<mxfile host="app.diagrams.net" modified="2023-11-27T01:58:55.443Z" agent="Mozilla/5.0 (Macintosh; Intel Mac OS X 10_15_7) AppleWebKit/537.36 (KHTML, like Gecko) Chrome/119.0.0.0 Safari/537.36 Edg/119.0.0.0" etag="kM_QrKJ0n4JaI2YknEce" version="22.1.3" type="github" pages="4">
  <diagram id="prtHgNgQTEPvFCAcTncT" name="Proses KMK">
    <mxGraphModel dx="1432" dy="1020" grid="1" gridSize="10" guides="1" tooltips="1" connect="1" arrows="1" fold="1" page="1" pageScale="1" pageWidth="827" pageHeight="1169" math="0" shadow="0">
      <root>
        <mxCell id="0" />
        <mxCell id="1" parent="0" />
        <mxCell id="dNxyNK7c78bLwvsdeMH5-19" value="Pendaftaran KMK" style="swimlane;html=1;childLayout=stackLayout;resizeParent=1;resizeParentMax=0;horizontal=0;startSize=20;horizontalStack=0;" parent="1" vertex="1">
          <mxGeometry x="120" y="120" width="2500" height="500" as="geometry" />
        </mxCell>
        <mxCell id="dNxyNK7c78bLwvsdeMH5-20" value="Customer" style="swimlane;html=1;startSize=20;horizontal=0;" parent="dNxyNK7c78bLwvsdeMH5-19" vertex="1">
          <mxGeometry x="20" width="2480" height="120" as="geometry" />
        </mxCell>
        <mxCell id="dNxyNK7c78bLwvsdeMH5-25" value="" style="edgeStyle=orthogonalEdgeStyle;rounded=0;orthogonalLoop=1;jettySize=auto;html=1;" parent="dNxyNK7c78bLwvsdeMH5-20" source="dNxyNK7c78bLwvsdeMH5-23" target="dNxyNK7c78bLwvsdeMH5-24" edge="1">
          <mxGeometry relative="1" as="geometry" />
        </mxCell>
        <mxCell id="dNxyNK7c78bLwvsdeMH5-23" value="" style="ellipse;whiteSpace=wrap;html=1;" parent="dNxyNK7c78bLwvsdeMH5-20" vertex="1">
          <mxGeometry x="40" y="40" width="40" height="40" as="geometry" />
        </mxCell>
        <mxCell id="FtvU1o7NDwiha-P4Q8uA-6" value="" style="edgeStyle=orthogonalEdgeStyle;rounded=0;orthogonalLoop=1;jettySize=auto;html=1;entryX=0;entryY=0.5;entryDx=0;entryDy=0;" parent="dNxyNK7c78bLwvsdeMH5-20" source="dNxyNK7c78bLwvsdeMH5-24" target="FtvU1o7NDwiha-P4Q8uA-1" edge="1">
          <mxGeometry relative="1" as="geometry" />
        </mxCell>
        <mxCell id="dNxyNK7c78bLwvsdeMH5-24" value="Aktivasi KMK" style="rounded=0;whiteSpace=wrap;html=1;fontFamily=Helvetica;fontSize=12;fontColor=#000000;align=center;" parent="dNxyNK7c78bLwvsdeMH5-20" vertex="1">
          <mxGeometry x="120" y="30" width="80" height="60" as="geometry" />
        </mxCell>
        <mxCell id="FtvU1o7NDwiha-P4Q8uA-9" value="" style="edgeStyle=orthogonalEdgeStyle;rounded=0;orthogonalLoop=1;jettySize=auto;html=1;" parent="dNxyNK7c78bLwvsdeMH5-20" source="FtvU1o7NDwiha-P4Q8uA-1" target="FtvU1o7NDwiha-P4Q8uA-4" edge="1">
          <mxGeometry relative="1" as="geometry" />
        </mxCell>
        <mxCell id="FtvU1o7NDwiha-P4Q8uA-10" value="Bukan" style="edgeLabel;html=1;align=center;verticalAlign=middle;resizable=0;points=[];" parent="FtvU1o7NDwiha-P4Q8uA-9" vertex="1" connectable="0">
          <mxGeometry x="0.36" relative="1" as="geometry">
            <mxPoint x="1" as="offset" />
          </mxGeometry>
        </mxCell>
        <mxCell id="FtvU1o7NDwiha-P4Q8uA-24" value="" style="edgeStyle=orthogonalEdgeStyle;rounded=0;orthogonalLoop=1;jettySize=auto;html=1;" parent="dNxyNK7c78bLwvsdeMH5-20" source="FtvU1o7NDwiha-P4Q8uA-1" target="FtvU1o7NDwiha-P4Q8uA-23" edge="1">
          <mxGeometry relative="1" as="geometry" />
        </mxCell>
        <mxCell id="FtvU1o7NDwiha-P4Q8uA-1" value="Akun Bisnis" style="rhombus;whiteSpace=wrap;html=1;fontFamily=Helvetica;fontSize=12;fontColor=#000000;align=center;" parent="dNxyNK7c78bLwvsdeMH5-20" vertex="1">
          <mxGeometry x="273.5" y="70" width="40" height="40" as="geometry" />
        </mxCell>
        <mxCell id="FtvU1o7NDwiha-P4Q8uA-4" value="" style="ellipse;whiteSpace=wrap;html=1;" parent="dNxyNK7c78bLwvsdeMH5-20" vertex="1">
          <mxGeometry x="273.5" width="40" height="40" as="geometry" />
        </mxCell>
        <mxCell id="FtvU1o7NDwiha-P4Q8uA-26" value="" style="edgeStyle=orthogonalEdgeStyle;rounded=0;orthogonalLoop=1;jettySize=auto;html=1;" parent="dNxyNK7c78bLwvsdeMH5-20" source="FtvU1o7NDwiha-P4Q8uA-23" target="FtvU1o7NDwiha-P4Q8uA-25" edge="1">
          <mxGeometry relative="1" as="geometry" />
        </mxCell>
        <mxCell id="FtvU1o7NDwiha-P4Q8uA-23" value="Submit requirement KMK" style="whiteSpace=wrap;html=1;fontColor=#000000;" parent="dNxyNK7c78bLwvsdeMH5-20" vertex="1">
          <mxGeometry x="380" y="30" width="120" height="60" as="geometry" />
        </mxCell>
        <mxCell id="FtvU1o7NDwiha-P4Q8uA-28" value="" style="edgeStyle=orthogonalEdgeStyle;rounded=0;orthogonalLoop=1;jettySize=auto;html=1;" parent="dNxyNK7c78bLwvsdeMH5-20" source="FtvU1o7NDwiha-P4Q8uA-25" target="FtvU1o7NDwiha-P4Q8uA-27" edge="1">
          <mxGeometry relative="1" as="geometry" />
        </mxCell>
        <mxCell id="FtvU1o7NDwiha-P4Q8uA-25" value="Submit dokumen agunan" style="whiteSpace=wrap;html=1;fontColor=#000000;" parent="dNxyNK7c78bLwvsdeMH5-20" vertex="1">
          <mxGeometry x="580" y="30" width="120" height="60" as="geometry" />
        </mxCell>
        <mxCell id="FtvU1o7NDwiha-P4Q8uA-27" value="Bayar Biaya Appraiser" style="whiteSpace=wrap;html=1;fontColor=#000000;" parent="dNxyNK7c78bLwvsdeMH5-20" vertex="1">
          <mxGeometry x="780" y="30" width="120" height="60" as="geometry" />
        </mxCell>
        <mxCell id="FtvU1o7NDwiha-P4Q8uA-71" value="" style="edgeStyle=orthogonalEdgeStyle;rounded=0;orthogonalLoop=1;jettySize=auto;html=1;" parent="dNxyNK7c78bLwvsdeMH5-20" source="FtvU1o7NDwiha-P4Q8uA-68" target="FtvU1o7NDwiha-P4Q8uA-297" edge="1">
          <mxGeometry relative="1" as="geometry">
            <mxPoint x="1880" y="50" as="targetPoint" />
          </mxGeometry>
        </mxCell>
        <mxCell id="FtvU1o7NDwiha-P4Q8uA-72" value="Tidak" style="edgeLabel;html=1;align=center;verticalAlign=middle;resizable=0;points=[];" parent="FtvU1o7NDwiha-P4Q8uA-71" vertex="1" connectable="0">
          <mxGeometry x="-0.055" y="3" relative="1" as="geometry">
            <mxPoint as="offset" />
          </mxGeometry>
        </mxCell>
        <mxCell id="FtvU1o7NDwiha-P4Q8uA-68" value="Bayar Asuransi?" style="rhombus;whiteSpace=wrap;html=1;fontColor=#000000;" parent="dNxyNK7c78bLwvsdeMH5-20" vertex="1">
          <mxGeometry x="1960" y="10" width="80" height="80" as="geometry" />
        </mxCell>
        <mxCell id="FtvU1o7NDwiha-P4Q8uA-297" value="" style="ellipse;whiteSpace=wrap;html=1;" parent="dNxyNK7c78bLwvsdeMH5-20" vertex="1">
          <mxGeometry x="1840" y="30" width="40" height="40" as="geometry" />
        </mxCell>
        <mxCell id="FtvU1o7NDwiha-P4Q8uA-301" value="" style="ellipse;whiteSpace=wrap;html=1;" parent="dNxyNK7c78bLwvsdeMH5-20" vertex="1">
          <mxGeometry x="1420" y="40" width="40" height="40" as="geometry" />
        </mxCell>
        <mxCell id="dNxyNK7c78bLwvsdeMH5-21" value="Admin" style="swimlane;html=1;startSize=20;horizontal=0;" parent="dNxyNK7c78bLwvsdeMH5-19" vertex="1">
          <mxGeometry x="20" y="120" width="2480" height="120" as="geometry" />
        </mxCell>
        <mxCell id="FtvU1o7NDwiha-P4Q8uA-41" value="" style="edgeStyle=orthogonalEdgeStyle;rounded=0;orthogonalLoop=1;jettySize=auto;html=1;" parent="dNxyNK7c78bLwvsdeMH5-21" source="FtvU1o7NDwiha-P4Q8uA-29" target="FtvU1o7NDwiha-P4Q8uA-40" edge="1">
          <mxGeometry relative="1" as="geometry" />
        </mxCell>
        <mxCell id="FtvU1o7NDwiha-P4Q8uA-29" value="Pengecekan Requirement KMK" style="whiteSpace=wrap;html=1;fontColor=#000000;" parent="dNxyNK7c78bLwvsdeMH5-21" vertex="1">
          <mxGeometry x="780" y="30" width="120" height="60" as="geometry" />
        </mxCell>
        <mxCell id="FtvU1o7NDwiha-P4Q8uA-45" value="" style="edgeStyle=orthogonalEdgeStyle;rounded=0;orthogonalLoop=1;jettySize=auto;html=1;" parent="dNxyNK7c78bLwvsdeMH5-21" source="FtvU1o7NDwiha-P4Q8uA-40" target="FtvU1o7NDwiha-P4Q8uA-44" edge="1">
          <mxGeometry relative="1" as="geometry" />
        </mxCell>
        <mxCell id="FtvU1o7NDwiha-P4Q8uA-40" value="Request Appraisal Agunan" style="whiteSpace=wrap;html=1;fontColor=#000000;" parent="dNxyNK7c78bLwvsdeMH5-21" vertex="1">
          <mxGeometry x="980" y="30" width="120" height="60" as="geometry" />
        </mxCell>
        <mxCell id="FtvU1o7NDwiha-P4Q8uA-49" value="" style="edgeStyle=orthogonalEdgeStyle;rounded=0;orthogonalLoop=1;jettySize=auto;html=1;" parent="dNxyNK7c78bLwvsdeMH5-21" source="FtvU1o7NDwiha-P4Q8uA-44" target="FtvU1o7NDwiha-P4Q8uA-48" edge="1">
          <mxGeometry relative="1" as="geometry" />
        </mxCell>
        <mxCell id="FtvU1o7NDwiha-P4Q8uA-44" value="Pengecekan Laporan Keuangan" style="whiteSpace=wrap;html=1;fontColor=#000000;" parent="dNxyNK7c78bLwvsdeMH5-21" vertex="1">
          <mxGeometry x="1180" y="30" width="120" height="60" as="geometry" />
        </mxCell>
        <mxCell id="FtvU1o7NDwiha-P4Q8uA-55" value="" style="edgeStyle=orthogonalEdgeStyle;rounded=0;orthogonalLoop=1;jettySize=auto;html=1;" parent="dNxyNK7c78bLwvsdeMH5-21" source="FtvU1o7NDwiha-P4Q8uA-48" target="FtvU1o7NDwiha-P4Q8uA-54" edge="1">
          <mxGeometry relative="1" as="geometry" />
        </mxCell>
        <mxCell id="FtvU1o7NDwiha-P4Q8uA-48" value="Aplikasi KMK Diterima?" style="rhombus;whiteSpace=wrap;html=1;fontColor=#000000;" parent="dNxyNK7c78bLwvsdeMH5-21" vertex="1">
          <mxGeometry x="1400" y="20" width="80" height="80" as="geometry" />
        </mxCell>
        <mxCell id="FtvU1o7NDwiha-P4Q8uA-54" value="Request Perhitungan asauransi" style="whiteSpace=wrap;html=1;fontColor=#000000;" parent="dNxyNK7c78bLwvsdeMH5-21" vertex="1">
          <mxGeometry x="1540" y="30" width="120" height="60" as="geometry" />
        </mxCell>
        <mxCell id="FtvU1o7NDwiha-P4Q8uA-64" value="Pembuatan Tagihan Asuransi" style="whiteSpace=wrap;html=1;fontColor=#000000;" parent="dNxyNK7c78bLwvsdeMH5-21" vertex="1">
          <mxGeometry x="1940" y="30" width="120" height="60" as="geometry" />
        </mxCell>
        <mxCell id="FtvU1o7NDwiha-P4Q8uA-94" value="" style="edgeStyle=orthogonalEdgeStyle;rounded=0;orthogonalLoop=1;jettySize=auto;html=1;" parent="dNxyNK7c78bLwvsdeMH5-21" source="FtvU1o7NDwiha-P4Q8uA-78" target="FtvU1o7NDwiha-P4Q8uA-302" edge="1">
          <mxGeometry relative="1" as="geometry">
            <mxPoint x="2360" y="60" as="targetPoint" />
          </mxGeometry>
        </mxCell>
        <mxCell id="FtvU1o7NDwiha-P4Q8uA-78" value="Approval" style="whiteSpace=wrap;html=1;fontColor=#000000;" parent="dNxyNK7c78bLwvsdeMH5-21" vertex="1">
          <mxGeometry x="2140" y="30" width="120" height="60" as="geometry" />
        </mxCell>
        <mxCell id="FtvU1o7NDwiha-P4Q8uA-302" value="" style="ellipse;whiteSpace=wrap;html=1;" parent="dNxyNK7c78bLwvsdeMH5-21" vertex="1">
          <mxGeometry x="2360" y="40" width="40" height="40" as="geometry" />
        </mxCell>
        <mxCell id="dNxyNK7c78bLwvsdeMH5-22" value="Appraiser" style="swimlane;html=1;startSize=20;horizontal=0;" parent="dNxyNK7c78bLwvsdeMH5-19" vertex="1">
          <mxGeometry x="20" y="240" width="2480" height="130" as="geometry" />
        </mxCell>
        <mxCell id="FtvU1o7NDwiha-P4Q8uA-42" value="Proses Appraisal" style="whiteSpace=wrap;html=1;fontColor=#000000;" parent="dNxyNK7c78bLwvsdeMH5-22" vertex="1">
          <mxGeometry x="980" y="50" width="120" height="60" as="geometry" />
        </mxCell>
        <mxCell id="FtvU1o7NDwiha-P4Q8uA-30" value="" style="edgeStyle=orthogonalEdgeStyle;rounded=0;orthogonalLoop=1;jettySize=auto;html=1;" parent="dNxyNK7c78bLwvsdeMH5-19" source="FtvU1o7NDwiha-P4Q8uA-27" target="FtvU1o7NDwiha-P4Q8uA-29" edge="1">
          <mxGeometry relative="1" as="geometry" />
        </mxCell>
        <mxCell id="FtvU1o7NDwiha-P4Q8uA-43" value="" style="edgeStyle=orthogonalEdgeStyle;rounded=0;orthogonalLoop=1;jettySize=auto;html=1;" parent="dNxyNK7c78bLwvsdeMH5-19" source="FtvU1o7NDwiha-P4Q8uA-40" target="FtvU1o7NDwiha-P4Q8uA-42" edge="1">
          <mxGeometry relative="1" as="geometry" />
        </mxCell>
        <mxCell id="FtvU1o7NDwiha-P4Q8uA-50" value="" style="edgeStyle=orthogonalEdgeStyle;rounded=0;orthogonalLoop=1;jettySize=auto;html=1;entryX=0.5;entryY=1;entryDx=0;entryDy=0;exitX=1;exitY=0.5;exitDx=0;exitDy=0;" parent="dNxyNK7c78bLwvsdeMH5-19" source="FtvU1o7NDwiha-P4Q8uA-42" target="FtvU1o7NDwiha-P4Q8uA-48" edge="1">
          <mxGeometry relative="1" as="geometry">
            <mxPoint x="1070" y="220" as="sourcePoint" />
            <mxPoint x="1070" y="300" as="targetPoint" />
          </mxGeometry>
        </mxCell>
        <mxCell id="FtvU1o7NDwiha-P4Q8uA-52" value="" style="edgeStyle=orthogonalEdgeStyle;rounded=0;orthogonalLoop=1;jettySize=auto;html=1;" parent="dNxyNK7c78bLwvsdeMH5-19" source="FtvU1o7NDwiha-P4Q8uA-48" target="FtvU1o7NDwiha-P4Q8uA-301" edge="1">
          <mxGeometry relative="1" as="geometry">
            <mxPoint x="1460" y="100" as="targetPoint" />
          </mxGeometry>
        </mxCell>
        <mxCell id="FtvU1o7NDwiha-P4Q8uA-53" value="Tidak" style="edgeLabel;html=1;align=center;verticalAlign=middle;resizable=0;points=[];" parent="FtvU1o7NDwiha-P4Q8uA-52" vertex="1" connectable="0">
          <mxGeometry x="-0.6167" y="-2" relative="1" as="geometry">
            <mxPoint as="offset" />
          </mxGeometry>
        </mxCell>
        <mxCell id="FtvU1o7NDwiha-P4Q8uA-58" value="Asuransi" style="swimlane;html=1;startSize=20;horizontal=0;" parent="dNxyNK7c78bLwvsdeMH5-19" vertex="1">
          <mxGeometry x="20" y="370" width="2480" height="130" as="geometry" />
        </mxCell>
        <mxCell id="FtvU1o7NDwiha-P4Q8uA-60" value="Perhitungan biaya asuransi" style="whiteSpace=wrap;html=1;fontColor=#000000;" parent="FtvU1o7NDwiha-P4Q8uA-58" vertex="1">
          <mxGeometry x="1540" y="40" width="120" height="60" as="geometry" />
        </mxCell>
        <mxCell id="FtvU1o7NDwiha-P4Q8uA-95" value="Proses Asuransi agunan" style="whiteSpace=wrap;html=1;fontColor=#000000;" parent="FtvU1o7NDwiha-P4Q8uA-58" vertex="1">
          <mxGeometry x="2140" y="40" width="120" height="60" as="geometry" />
        </mxCell>
        <mxCell id="FtvU1o7NDwiha-P4Q8uA-61" value="" style="edgeStyle=orthogonalEdgeStyle;rounded=0;orthogonalLoop=1;jettySize=auto;html=1;" parent="dNxyNK7c78bLwvsdeMH5-19" source="FtvU1o7NDwiha-P4Q8uA-54" target="FtvU1o7NDwiha-P4Q8uA-60" edge="1">
          <mxGeometry relative="1" as="geometry" />
        </mxCell>
        <mxCell id="FtvU1o7NDwiha-P4Q8uA-67" value="" style="edgeStyle=orthogonalEdgeStyle;rounded=0;orthogonalLoop=1;jettySize=auto;html=1;entryX=0.5;entryY=1;entryDx=0;entryDy=0;" parent="dNxyNK7c78bLwvsdeMH5-19" source="FtvU1o7NDwiha-P4Q8uA-60" target="FtvU1o7NDwiha-P4Q8uA-64" edge="1">
          <mxGeometry relative="1" as="geometry">
            <mxPoint x="1760" y="440" as="targetPoint" />
          </mxGeometry>
        </mxCell>
        <mxCell id="FtvU1o7NDwiha-P4Q8uA-69" value="" style="edgeStyle=orthogonalEdgeStyle;rounded=0;orthogonalLoop=1;jettySize=auto;html=1;" parent="dNxyNK7c78bLwvsdeMH5-19" source="FtvU1o7NDwiha-P4Q8uA-64" target="FtvU1o7NDwiha-P4Q8uA-68" edge="1">
          <mxGeometry relative="1" as="geometry" />
        </mxCell>
        <mxCell id="FtvU1o7NDwiha-P4Q8uA-74" value="" style="edgeStyle=orthogonalEdgeStyle;rounded=0;orthogonalLoop=1;jettySize=auto;html=1;entryX=0;entryY=0.5;entryDx=0;entryDy=0;" parent="dNxyNK7c78bLwvsdeMH5-19" source="FtvU1o7NDwiha-P4Q8uA-68" target="FtvU1o7NDwiha-P4Q8uA-95" edge="1">
          <mxGeometry relative="1" as="geometry">
            <mxPoint x="2220" y="150" as="targetPoint" />
          </mxGeometry>
        </mxCell>
        <mxCell id="FtvU1o7NDwiha-P4Q8uA-75" value="Ya" style="edgeLabel;html=1;align=center;verticalAlign=middle;resizable=0;points=[];" parent="FtvU1o7NDwiha-P4Q8uA-74" vertex="1" connectable="0">
          <mxGeometry x="-0.1217" relative="1" as="geometry">
            <mxPoint as="offset" />
          </mxGeometry>
        </mxCell>
        <mxCell id="FtvU1o7NDwiha-P4Q8uA-100" value="" style="edgeStyle=orthogonalEdgeStyle;rounded=0;orthogonalLoop=1;jettySize=auto;html=1;entryX=0.5;entryY=1;entryDx=0;entryDy=0;" parent="dNxyNK7c78bLwvsdeMH5-19" source="FtvU1o7NDwiha-P4Q8uA-95" target="FtvU1o7NDwiha-P4Q8uA-78" edge="1">
          <mxGeometry relative="1" as="geometry">
            <mxPoint x="2219.9999999999995" y="330" as="targetPoint" />
          </mxGeometry>
        </mxCell>
        <mxCell id="FtvU1o7NDwiha-P4Q8uA-65" value="" style="edgeStyle=orthogonalEdgeStyle;rounded=0;orthogonalLoop=1;jettySize=auto;html=1;" parent="1" source="FtvU1o7NDwiha-P4Q8uA-62" target="FtvU1o7NDwiha-P4Q8uA-64" edge="1">
          <mxGeometry relative="1" as="geometry" />
        </mxCell>
        <mxCell id="FtvU1o7NDwiha-P4Q8uA-62" value="Approval dan Penentuan Plafond" style="whiteSpace=wrap;html=1;fontColor=#000000;" parent="1" vertex="1">
          <mxGeometry x="1880" y="270" width="120" height="60" as="geometry" />
        </mxCell>
        <mxCell id="FtvU1o7NDwiha-P4Q8uA-63" value="" style="edgeStyle=orthogonalEdgeStyle;rounded=0;orthogonalLoop=1;jettySize=auto;html=1;" parent="1" source="FtvU1o7NDwiha-P4Q8uA-54" target="FtvU1o7NDwiha-P4Q8uA-62" edge="1">
          <mxGeometry relative="1" as="geometry" />
        </mxCell>
        <mxCell id="FtvU1o7NDwiha-P4Q8uA-154" value="Pengajuan Kredit KMK 1" style="swimlane;html=1;childLayout=stackLayout;resizeParent=1;resizeParentMax=0;horizontal=0;startSize=20;horizontalStack=0;" parent="1" vertex="1">
          <mxGeometry x="120" y="680" width="930" height="240" as="geometry" />
        </mxCell>
        <mxCell id="FtvU1o7NDwiha-P4Q8uA-155" value="Customer" style="swimlane;html=1;startSize=20;horizontal=0;" parent="FtvU1o7NDwiha-P4Q8uA-154" vertex="1">
          <mxGeometry x="20" width="910" height="120" as="geometry" />
        </mxCell>
        <mxCell id="FtvU1o7NDwiha-P4Q8uA-156" value="" style="edgeStyle=orthogonalEdgeStyle;rounded=0;orthogonalLoop=1;jettySize=auto;html=1;" parent="FtvU1o7NDwiha-P4Q8uA-155" source="FtvU1o7NDwiha-P4Q8uA-157" target="FtvU1o7NDwiha-P4Q8uA-159" edge="1">
          <mxGeometry relative="1" as="geometry" />
        </mxCell>
        <mxCell id="FtvU1o7NDwiha-P4Q8uA-157" value="" style="ellipse;whiteSpace=wrap;html=1;" parent="FtvU1o7NDwiha-P4Q8uA-155" vertex="1">
          <mxGeometry x="40" y="40" width="40" height="40" as="geometry" />
        </mxCell>
        <mxCell id="FtvU1o7NDwiha-P4Q8uA-158" value="" style="edgeStyle=orthogonalEdgeStyle;rounded=0;orthogonalLoop=1;jettySize=auto;html=1;entryX=0;entryY=0.5;entryDx=0;entryDy=0;" parent="FtvU1o7NDwiha-P4Q8uA-155" source="FtvU1o7NDwiha-P4Q8uA-159" target="FtvU1o7NDwiha-P4Q8uA-163" edge="1">
          <mxGeometry relative="1" as="geometry" />
        </mxCell>
        <mxCell id="FtvU1o7NDwiha-P4Q8uA-159" value="Cek Status KMK" style="rounded=0;whiteSpace=wrap;html=1;fontFamily=Helvetica;fontSize=12;fontColor=#000000;align=center;" parent="FtvU1o7NDwiha-P4Q8uA-155" vertex="1">
          <mxGeometry x="120" y="30" width="80" height="60" as="geometry" />
        </mxCell>
        <mxCell id="FtvU1o7NDwiha-P4Q8uA-160" value="" style="edgeStyle=orthogonalEdgeStyle;rounded=0;orthogonalLoop=1;jettySize=auto;html=1;" parent="FtvU1o7NDwiha-P4Q8uA-155" source="FtvU1o7NDwiha-P4Q8uA-163" target="FtvU1o7NDwiha-P4Q8uA-164" edge="1">
          <mxGeometry relative="1" as="geometry" />
        </mxCell>
        <mxCell id="FtvU1o7NDwiha-P4Q8uA-161" value="Tidak" style="edgeLabel;html=1;align=center;verticalAlign=middle;resizable=0;points=[];" parent="FtvU1o7NDwiha-P4Q8uA-160" vertex="1" connectable="0">
          <mxGeometry x="0.36" relative="1" as="geometry">
            <mxPoint x="1" as="offset" />
          </mxGeometry>
        </mxCell>
        <mxCell id="FtvU1o7NDwiha-P4Q8uA-162" value="" style="edgeStyle=orthogonalEdgeStyle;rounded=0;orthogonalLoop=1;jettySize=auto;html=1;" parent="FtvU1o7NDwiha-P4Q8uA-155" source="FtvU1o7NDwiha-P4Q8uA-163" target="FtvU1o7NDwiha-P4Q8uA-166" edge="1">
          <mxGeometry relative="1" as="geometry" />
        </mxCell>
        <mxCell id="FtvU1o7NDwiha-P4Q8uA-206" value="Ya" style="edgeLabel;html=1;align=center;verticalAlign=middle;resizable=0;points=[];" parent="FtvU1o7NDwiha-P4Q8uA-162" vertex="1" connectable="0">
          <mxGeometry x="-0.0827" y="1" relative="1" as="geometry">
            <mxPoint as="offset" />
          </mxGeometry>
        </mxCell>
        <mxCell id="FtvU1o7NDwiha-P4Q8uA-163" value="Aktif?" style="rhombus;whiteSpace=wrap;html=1;fontFamily=Helvetica;fontSize=12;fontColor=#000000;align=center;" parent="FtvU1o7NDwiha-P4Q8uA-155" vertex="1">
          <mxGeometry x="273.5" y="70" width="40" height="40" as="geometry" />
        </mxCell>
        <mxCell id="FtvU1o7NDwiha-P4Q8uA-164" value="" style="ellipse;whiteSpace=wrap;html=1;" parent="FtvU1o7NDwiha-P4Q8uA-155" vertex="1">
          <mxGeometry x="273.5" width="40" height="40" as="geometry" />
        </mxCell>
        <mxCell id="FtvU1o7NDwiha-P4Q8uA-166" value="Request Pencairan KMK" style="whiteSpace=wrap;html=1;fontColor=#000000;" parent="FtvU1o7NDwiha-P4Q8uA-155" vertex="1">
          <mxGeometry x="380" y="30" width="120" height="60" as="geometry" />
        </mxCell>
        <mxCell id="FtvU1o7NDwiha-P4Q8uA-214" value="" style="edgeStyle=orthogonalEdgeStyle;rounded=0;orthogonalLoop=1;jettySize=auto;html=1;" parent="FtvU1o7NDwiha-P4Q8uA-155" source="FtvU1o7NDwiha-P4Q8uA-211" target="FtvU1o7NDwiha-P4Q8uA-215" edge="1">
          <mxGeometry relative="1" as="geometry">
            <mxPoint x="800" y="60" as="targetPoint" />
          </mxGeometry>
        </mxCell>
        <mxCell id="FtvU1o7NDwiha-P4Q8uA-211" value="Pencairan berhasil" style="whiteSpace=wrap;html=1;fontColor=#000000;" parent="FtvU1o7NDwiha-P4Q8uA-155" vertex="1">
          <mxGeometry x="580" y="30" width="120" height="60" as="geometry" />
        </mxCell>
        <mxCell id="FtvU1o7NDwiha-P4Q8uA-215" value="" style="ellipse;whiteSpace=wrap;html=1;" parent="FtvU1o7NDwiha-P4Q8uA-155" vertex="1">
          <mxGeometry x="800" y="40" width="40" height="40" as="geometry" />
        </mxCell>
        <mxCell id="FtvU1o7NDwiha-P4Q8uA-175" value="System&lt;br&gt;" style="swimlane;html=1;startSize=20;horizontal=0;" parent="FtvU1o7NDwiha-P4Q8uA-154" vertex="1">
          <mxGeometry x="20" y="120" width="910" height="120" as="geometry" />
        </mxCell>
        <mxCell id="FtvU1o7NDwiha-P4Q8uA-210" value="" style="edgeStyle=orthogonalEdgeStyle;rounded=0;orthogonalLoop=1;jettySize=auto;html=1;" parent="FtvU1o7NDwiha-P4Q8uA-175" source="FtvU1o7NDwiha-P4Q8uA-207" target="FtvU1o7NDwiha-P4Q8uA-209" edge="1">
          <mxGeometry relative="1" as="geometry" />
        </mxCell>
        <mxCell id="FtvU1o7NDwiha-P4Q8uA-207" value="Transfer Pencairan" style="whiteSpace=wrap;html=1;fontColor=#000000;" parent="FtvU1o7NDwiha-P4Q8uA-175" vertex="1">
          <mxGeometry x="380" y="30" width="120" height="60" as="geometry" />
        </mxCell>
        <mxCell id="FtvU1o7NDwiha-P4Q8uA-209" value="Update Sisa Plafond" style="whiteSpace=wrap;html=1;fontColor=#000000;" parent="FtvU1o7NDwiha-P4Q8uA-175" vertex="1">
          <mxGeometry x="580" y="30" width="120" height="60" as="geometry" />
        </mxCell>
        <mxCell id="FtvU1o7NDwiha-P4Q8uA-208" value="" style="edgeStyle=orthogonalEdgeStyle;rounded=0;orthogonalLoop=1;jettySize=auto;html=1;" parent="FtvU1o7NDwiha-P4Q8uA-154" source="FtvU1o7NDwiha-P4Q8uA-166" target="FtvU1o7NDwiha-P4Q8uA-207" edge="1">
          <mxGeometry relative="1" as="geometry" />
        </mxCell>
        <mxCell id="FtvU1o7NDwiha-P4Q8uA-212" value="" style="edgeStyle=orthogonalEdgeStyle;rounded=0;orthogonalLoop=1;jettySize=auto;html=1;" parent="FtvU1o7NDwiha-P4Q8uA-154" source="FtvU1o7NDwiha-P4Q8uA-209" target="FtvU1o7NDwiha-P4Q8uA-211" edge="1">
          <mxGeometry relative="1" as="geometry" />
        </mxCell>
        <mxCell id="FtvU1o7NDwiha-P4Q8uA-217" value="Perpanjangan KMK" style="swimlane;html=1;childLayout=stackLayout;resizeParent=1;resizeParentMax=0;horizontal=0;startSize=20;horizontalStack=0;" parent="1" vertex="1">
          <mxGeometry x="120" y="960" width="1980" height="480" as="geometry" />
        </mxCell>
        <mxCell id="FtvU1o7NDwiha-P4Q8uA-218" value="Customer" style="swimlane;html=1;startSize=20;horizontal=0;" parent="FtvU1o7NDwiha-P4Q8uA-217" vertex="1">
          <mxGeometry x="20" width="1960" height="120" as="geometry" />
        </mxCell>
        <mxCell id="FtvU1o7NDwiha-P4Q8uA-262" value="" style="edgeStyle=orthogonalEdgeStyle;rounded=0;orthogonalLoop=1;jettySize=auto;html=1;" parent="FtvU1o7NDwiha-P4Q8uA-218" source="FtvU1o7NDwiha-P4Q8uA-260" target="FtvU1o7NDwiha-P4Q8uA-261" edge="1">
          <mxGeometry relative="1" as="geometry" />
        </mxCell>
        <mxCell id="FtvU1o7NDwiha-P4Q8uA-260" value="Perpanjangan?" style="rhombus;whiteSpace=wrap;html=1;fontFamily=Helvetica;fontSize=12;fontColor=#000000;align=center;" parent="FtvU1o7NDwiha-P4Q8uA-218" vertex="1">
          <mxGeometry x="410" y="40" width="40" height="40" as="geometry" />
        </mxCell>
        <mxCell id="FtvU1o7NDwiha-P4Q8uA-264" value="" style="edgeStyle=orthogonalEdgeStyle;rounded=0;orthogonalLoop=1;jettySize=auto;html=1;" parent="FtvU1o7NDwiha-P4Q8uA-218" source="FtvU1o7NDwiha-P4Q8uA-261" target="FtvU1o7NDwiha-P4Q8uA-263" edge="1">
          <mxGeometry relative="1" as="geometry" />
        </mxCell>
        <mxCell id="FtvU1o7NDwiha-P4Q8uA-261" value="Submit Data Keuangan" style="whiteSpace=wrap;html=1;fontColor=#000000;" parent="FtvU1o7NDwiha-P4Q8uA-218" vertex="1">
          <mxGeometry x="490" y="30" width="120" height="60" as="geometry" />
        </mxCell>
        <mxCell id="FtvU1o7NDwiha-P4Q8uA-263" value="Submit request perpanjangan" style="whiteSpace=wrap;html=1;fontColor=#000000;" parent="FtvU1o7NDwiha-P4Q8uA-218" vertex="1">
          <mxGeometry x="690" y="30" width="120" height="60" as="geometry" />
        </mxCell>
        <mxCell id="FtvU1o7NDwiha-P4Q8uA-293" value="" style="ellipse;whiteSpace=wrap;html=1;" parent="FtvU1o7NDwiha-P4Q8uA-218" vertex="1">
          <mxGeometry x="1120" y="30" width="40" height="40" as="geometry" />
        </mxCell>
        <mxCell id="FtvU1o7NDwiha-P4Q8uA-233" value="System&lt;br&gt;" style="swimlane;html=1;startSize=20;horizontal=0;" parent="FtvU1o7NDwiha-P4Q8uA-217" vertex="1">
          <mxGeometry x="20" y="120" width="1960" height="120" as="geometry">
            <mxRectangle x="20" y="120" width="910" height="30" as="alternateBounds" />
          </mxGeometry>
        </mxCell>
        <mxCell id="FtvU1o7NDwiha-P4Q8uA-234" value="" style="edgeStyle=orthogonalEdgeStyle;rounded=0;orthogonalLoop=1;jettySize=auto;html=1;" parent="FtvU1o7NDwiha-P4Q8uA-233" edge="1">
          <mxGeometry relative="1" as="geometry">
            <mxPoint x="499.9999999999998" y="60.00000000000023" as="sourcePoint" />
          </mxGeometry>
        </mxCell>
        <mxCell id="FtvU1o7NDwiha-P4Q8uA-219" value="" style="edgeStyle=orthogonalEdgeStyle;rounded=0;orthogonalLoop=1;jettySize=auto;html=1;" parent="FtvU1o7NDwiha-P4Q8uA-233" edge="1">
          <mxGeometry relative="1" as="geometry">
            <mxPoint x="80" y="50.00000000000023" as="sourcePoint" />
          </mxGeometry>
        </mxCell>
        <mxCell id="FtvU1o7NDwiha-P4Q8uA-256" value="Notifikasi Perpanjangan KMK" style="whiteSpace=wrap;html=1;fontColor=#000000;" parent="FtvU1o7NDwiha-P4Q8uA-233" vertex="1">
          <mxGeometry x="370" y="20" width="120" height="60" as="geometry" />
        </mxCell>
        <mxCell id="FtvU1o7NDwiha-P4Q8uA-291" value="Update masa aktif KMK" style="whiteSpace=wrap;html=1;fontColor=#000000;" parent="FtvU1o7NDwiha-P4Q8uA-233" vertex="1">
          <mxGeometry x="1080" y="30" width="120" height="60" as="geometry" />
        </mxCell>
        <mxCell id="FtvU1o7NDwiha-P4Q8uA-401" value="" style="edgeStyle=orthogonalEdgeStyle;rounded=0;orthogonalLoop=1;jettySize=auto;html=1;" parent="FtvU1o7NDwiha-P4Q8uA-233" source="FtvU1o7NDwiha-P4Q8uA-398" target="FtvU1o7NDwiha-P4Q8uA-400" edge="1">
          <mxGeometry relative="1" as="geometry" />
        </mxCell>
        <mxCell id="FtvU1o7NDwiha-P4Q8uA-398" value="Catat Alasan Penolakan" style="whiteSpace=wrap;html=1;fontColor=#000000;" parent="FtvU1o7NDwiha-P4Q8uA-233" vertex="1">
          <mxGeometry x="1430" y="20" width="120" height="60" as="geometry" />
        </mxCell>
        <mxCell id="FtvU1o7NDwiha-P4Q8uA-400" value="" style="ellipse;whiteSpace=wrap;html=1;" parent="FtvU1o7NDwiha-P4Q8uA-233" vertex="1">
          <mxGeometry x="1650" y="30" width="40" height="40" as="geometry" />
        </mxCell>
        <mxCell id="FtvU1o7NDwiha-P4Q8uA-240" value="Scheduler/Job" style="swimlane;html=1;startSize=20;horizontal=0;" parent="FtvU1o7NDwiha-P4Q8uA-217" vertex="1">
          <mxGeometry x="20" y="240" width="1960" height="120" as="geometry" />
        </mxCell>
        <mxCell id="FtvU1o7NDwiha-P4Q8uA-244" value="" style="ellipse;whiteSpace=wrap;html=1;" parent="FtvU1o7NDwiha-P4Q8uA-240" vertex="1">
          <mxGeometry x="40" y="30" width="40" height="40" as="geometry" />
        </mxCell>
        <mxCell id="FtvU1o7NDwiha-P4Q8uA-248" value="" style="edgeStyle=orthogonalEdgeStyle;rounded=0;orthogonalLoop=1;jettySize=auto;html=1;" parent="FtvU1o7NDwiha-P4Q8uA-240" source="FtvU1o7NDwiha-P4Q8uA-245" target="FtvU1o7NDwiha-P4Q8uA-249" edge="1">
          <mxGeometry relative="1" as="geometry">
            <mxPoint x="290" y="50" as="targetPoint" />
          </mxGeometry>
        </mxCell>
        <mxCell id="FtvU1o7NDwiha-P4Q8uA-245" value="Cek masa aktif kmk" style="rounded=0;whiteSpace=wrap;html=1;fontFamily=Helvetica;fontSize=12;fontColor=#000000;align=center;" parent="FtvU1o7NDwiha-P4Q8uA-240" vertex="1">
          <mxGeometry x="130" y="20" width="80" height="60" as="geometry" />
        </mxCell>
        <mxCell id="FtvU1o7NDwiha-P4Q8uA-246" value="" style="edgeStyle=orthogonalEdgeStyle;rounded=0;orthogonalLoop=1;jettySize=auto;html=1;" parent="FtvU1o7NDwiha-P4Q8uA-240" source="FtvU1o7NDwiha-P4Q8uA-244" target="FtvU1o7NDwiha-P4Q8uA-245" edge="1">
          <mxGeometry relative="1" as="geometry" />
        </mxCell>
        <mxCell id="FtvU1o7NDwiha-P4Q8uA-249" value="Akan Expired?" style="rhombus;whiteSpace=wrap;html=1;fontFamily=Helvetica;fontSize=12;fontColor=#000000;align=center;" parent="FtvU1o7NDwiha-P4Q8uA-240" vertex="1">
          <mxGeometry x="290" y="30" width="40" height="40" as="geometry" />
        </mxCell>
        <mxCell id="FtvU1o7NDwiha-P4Q8uA-257" value="" style="edgeStyle=orthogonalEdgeStyle;rounded=0;orthogonalLoop=1;jettySize=auto;html=1;exitX=1;exitY=0.5;exitDx=0;exitDy=0;" parent="FtvU1o7NDwiha-P4Q8uA-217" source="FtvU1o7NDwiha-P4Q8uA-249" target="FtvU1o7NDwiha-P4Q8uA-256" edge="1">
          <mxGeometry relative="1" as="geometry">
            <mxPoint x="450" y="260" as="sourcePoint" />
          </mxGeometry>
        </mxCell>
        <mxCell id="FtvU1o7NDwiha-P4Q8uA-294" value="ya" style="edgeLabel;html=1;align=center;verticalAlign=middle;resizable=0;points=[];" parent="FtvU1o7NDwiha-P4Q8uA-257" vertex="1" connectable="0">
          <mxGeometry x="-0.4474" relative="1" as="geometry">
            <mxPoint as="offset" />
          </mxGeometry>
        </mxCell>
        <mxCell id="FtvU1o7NDwiha-P4Q8uA-259" value="" style="edgeStyle=orthogonalEdgeStyle;rounded=0;orthogonalLoop=1;jettySize=auto;html=1;entryX=0.5;entryY=1;entryDx=0;entryDy=0;" parent="FtvU1o7NDwiha-P4Q8uA-217" source="FtvU1o7NDwiha-P4Q8uA-256" target="FtvU1o7NDwiha-P4Q8uA-260" edge="1">
          <mxGeometry relative="1" as="geometry">
            <mxPoint x="449.9999999999998" y="80.00000000000023" as="targetPoint" />
          </mxGeometry>
        </mxCell>
        <mxCell id="FtvU1o7NDwiha-P4Q8uA-269" value="Admin" style="swimlane;html=1;startSize=20;horizontal=0;" parent="FtvU1o7NDwiha-P4Q8uA-217" vertex="1">
          <mxGeometry x="20" y="360" width="1960" height="120" as="geometry" />
        </mxCell>
        <mxCell id="FtvU1o7NDwiha-P4Q8uA-270" value="" style="edgeStyle=orthogonalEdgeStyle;rounded=0;orthogonalLoop=1;jettySize=auto;html=1;" parent="FtvU1o7NDwiha-P4Q8uA-269" edge="1">
          <mxGeometry relative="1" as="geometry">
            <mxPoint x="499.9999999999998" y="60.00000000000023" as="sourcePoint" />
          </mxGeometry>
        </mxCell>
        <mxCell id="FtvU1o7NDwiha-P4Q8uA-271" value="" style="edgeStyle=orthogonalEdgeStyle;rounded=0;orthogonalLoop=1;jettySize=auto;html=1;" parent="FtvU1o7NDwiha-P4Q8uA-269" edge="1">
          <mxGeometry relative="1" as="geometry">
            <mxPoint x="80" y="50.00000000000023" as="sourcePoint" />
          </mxGeometry>
        </mxCell>
        <mxCell id="FtvU1o7NDwiha-P4Q8uA-288" value="" style="edgeStyle=orthogonalEdgeStyle;rounded=0;orthogonalLoop=1;jettySize=auto;html=1;" parent="FtvU1o7NDwiha-P4Q8uA-269" source="FtvU1o7NDwiha-P4Q8uA-281" target="FtvU1o7NDwiha-P4Q8uA-287" edge="1">
          <mxGeometry relative="1" as="geometry" />
        </mxCell>
        <mxCell id="FtvU1o7NDwiha-P4Q8uA-281" value="Review dan analisa data" style="whiteSpace=wrap;html=1;fontColor=#000000;" parent="FtvU1o7NDwiha-P4Q8uA-269" vertex="1">
          <mxGeometry x="690" y="30" width="120" height="60" as="geometry" />
        </mxCell>
        <mxCell id="FtvU1o7NDwiha-P4Q8uA-290" value="Ya" style="edgeStyle=orthogonalEdgeStyle;rounded=0;orthogonalLoop=1;jettySize=auto;html=1;" parent="FtvU1o7NDwiha-P4Q8uA-269" source="FtvU1o7NDwiha-P4Q8uA-287" target="FtvU1o7NDwiha-P4Q8uA-289" edge="1">
          <mxGeometry relative="1" as="geometry" />
        </mxCell>
        <mxCell id="FtvU1o7NDwiha-P4Q8uA-287" value="Approval" style="rhombus;whiteSpace=wrap;html=1;fontFamily=Helvetica;fontSize=12;fontColor=#000000;align=center;" parent="FtvU1o7NDwiha-P4Q8uA-269" vertex="1">
          <mxGeometry x="870" y="40" width="40" height="40" as="geometry" />
        </mxCell>
        <mxCell id="FtvU1o7NDwiha-P4Q8uA-289" value="Approve Perpanjangan KMK" style="whiteSpace=wrap;html=1;fontColor=#000000;" parent="FtvU1o7NDwiha-P4Q8uA-269" vertex="1">
          <mxGeometry x="990" y="30" width="120" height="60" as="geometry" />
        </mxCell>
        <mxCell id="FtvU1o7NDwiha-P4Q8uA-254" value="" style="ellipse;whiteSpace=wrap;html=1;" parent="FtvU1o7NDwiha-P4Q8uA-269" vertex="1">
          <mxGeometry x="290" y="40" width="40" height="40" as="geometry" />
        </mxCell>
        <mxCell id="FtvU1o7NDwiha-P4Q8uA-395" value="Input Alasan Penolakan" style="whiteSpace=wrap;html=1;fontColor=#000000;" parent="FtvU1o7NDwiha-P4Q8uA-269" vertex="1">
          <mxGeometry x="1270" y="30" width="120" height="60" as="geometry" />
        </mxCell>
        <mxCell id="FtvU1o7NDwiha-P4Q8uA-396" value="" style="edgeStyle=orthogonalEdgeStyle;rounded=0;orthogonalLoop=1;jettySize=auto;html=1;" parent="FtvU1o7NDwiha-P4Q8uA-269" source="FtvU1o7NDwiha-P4Q8uA-287" target="FtvU1o7NDwiha-P4Q8uA-395" edge="1">
          <mxGeometry relative="1" as="geometry">
            <Array as="points">
              <mxPoint x="890" y="150" />
              <mxPoint x="1330" y="150" />
            </Array>
          </mxGeometry>
        </mxCell>
        <mxCell id="FtvU1o7NDwiha-P4Q8uA-397" value="Tolak" style="edgeLabel;html=1;align=center;verticalAlign=middle;resizable=0;points=[];" parent="FtvU1o7NDwiha-P4Q8uA-396" vertex="1" connectable="0">
          <mxGeometry x="-0.2151" y="1" relative="1" as="geometry">
            <mxPoint as="offset" />
          </mxGeometry>
        </mxCell>
        <mxCell id="FtvU1o7NDwiha-P4Q8uA-282" value="" style="edgeStyle=orthogonalEdgeStyle;rounded=0;orthogonalLoop=1;jettySize=auto;html=1;" parent="FtvU1o7NDwiha-P4Q8uA-217" source="FtvU1o7NDwiha-P4Q8uA-263" target="FtvU1o7NDwiha-P4Q8uA-281" edge="1">
          <mxGeometry relative="1" as="geometry" />
        </mxCell>
        <mxCell id="FtvU1o7NDwiha-P4Q8uA-292" value="" style="edgeStyle=orthogonalEdgeStyle;rounded=0;orthogonalLoop=1;jettySize=auto;html=1;" parent="FtvU1o7NDwiha-P4Q8uA-217" source="FtvU1o7NDwiha-P4Q8uA-289" target="FtvU1o7NDwiha-P4Q8uA-291" edge="1">
          <mxGeometry relative="1" as="geometry" />
        </mxCell>
        <mxCell id="FtvU1o7NDwiha-P4Q8uA-255" value="" style="edgeStyle=orthogonalEdgeStyle;rounded=0;orthogonalLoop=1;jettySize=auto;html=1;" parent="FtvU1o7NDwiha-P4Q8uA-217" source="FtvU1o7NDwiha-P4Q8uA-249" target="FtvU1o7NDwiha-P4Q8uA-254" edge="1">
          <mxGeometry relative="1" as="geometry" />
        </mxCell>
        <mxCell id="FtvU1o7NDwiha-P4Q8uA-295" value="tidak" style="edgeLabel;html=1;align=center;verticalAlign=middle;resizable=0;points=[];" parent="FtvU1o7NDwiha-P4Q8uA-255" vertex="1" connectable="0">
          <mxGeometry x="-0.3869" y="4" relative="1" as="geometry">
            <mxPoint y="1" as="offset" />
          </mxGeometry>
        </mxCell>
        <mxCell id="FtvU1o7NDwiha-P4Q8uA-296" value="" style="edgeStyle=orthogonalEdgeStyle;rounded=0;orthogonalLoop=1;jettySize=auto;html=1;" parent="FtvU1o7NDwiha-P4Q8uA-217" source="FtvU1o7NDwiha-P4Q8uA-291" target="FtvU1o7NDwiha-P4Q8uA-293" edge="1">
          <mxGeometry relative="1" as="geometry" />
        </mxCell>
        <mxCell id="FtvU1o7NDwiha-P4Q8uA-399" value="" style="edgeStyle=orthogonalEdgeStyle;rounded=0;orthogonalLoop=1;jettySize=auto;html=1;" parent="FtvU1o7NDwiha-P4Q8uA-217" source="FtvU1o7NDwiha-P4Q8uA-395" target="FtvU1o7NDwiha-P4Q8uA-398" edge="1">
          <mxGeometry relative="1" as="geometry" />
        </mxCell>
        <mxCell id="FtvU1o7NDwiha-P4Q8uA-340" value="Penambahan Plafond KMK" style="swimlane;html=1;childLayout=stackLayout;resizeParent=1;resizeParentMax=0;horizontal=0;startSize=20;horizontalStack=0;" parent="1" vertex="1">
          <mxGeometry x="120" y="1480" width="1880" height="360" as="geometry" />
        </mxCell>
        <mxCell id="FtvU1o7NDwiha-P4Q8uA-341" value="Customer" style="swimlane;html=1;startSize=20;horizontal=0;" parent="FtvU1o7NDwiha-P4Q8uA-340" vertex="1">
          <mxGeometry x="20" width="1860" height="120" as="geometry" />
        </mxCell>
        <mxCell id="FtvU1o7NDwiha-P4Q8uA-378" value="" style="edgeStyle=orthogonalEdgeStyle;rounded=0;orthogonalLoop=1;jettySize=auto;html=1;" parent="FtvU1o7NDwiha-P4Q8uA-341" source="FtvU1o7NDwiha-P4Q8uA-376" target="FtvU1o7NDwiha-P4Q8uA-377" edge="1">
          <mxGeometry relative="1" as="geometry" />
        </mxCell>
        <mxCell id="FtvU1o7NDwiha-P4Q8uA-376" value="" style="ellipse;whiteSpace=wrap;html=1;" parent="FtvU1o7NDwiha-P4Q8uA-341" vertex="1">
          <mxGeometry x="40" y="40" width="40" height="40" as="geometry" />
        </mxCell>
        <mxCell id="FtvU1o7NDwiha-P4Q8uA-380" value="" style="edgeStyle=orthogonalEdgeStyle;rounded=0;orthogonalLoop=1;jettySize=auto;html=1;" parent="FtvU1o7NDwiha-P4Q8uA-341" source="FtvU1o7NDwiha-P4Q8uA-377" target="FtvU1o7NDwiha-P4Q8uA-379" edge="1">
          <mxGeometry relative="1" as="geometry" />
        </mxCell>
        <mxCell id="FtvU1o7NDwiha-P4Q8uA-377" value="Input Request Update Plafond KMK" style="whiteSpace=wrap;html=1;" parent="FtvU1o7NDwiha-P4Q8uA-341" vertex="1">
          <mxGeometry x="120" y="30" width="120" height="60" as="geometry" />
        </mxCell>
        <mxCell id="FtvU1o7NDwiha-P4Q8uA-379" value="Upload Doc pendukung" style="whiteSpace=wrap;html=1;" parent="FtvU1o7NDwiha-P4Q8uA-341" vertex="1">
          <mxGeometry x="320" y="30" width="120" height="60" as="geometry" />
        </mxCell>
        <mxCell id="FtvU1o7NDwiha-P4Q8uA-408" value="" style="ellipse;whiteSpace=wrap;html=1;" parent="FtvU1o7NDwiha-P4Q8uA-341" vertex="1">
          <mxGeometry x="1660" y="20" width="40" height="40" as="geometry" />
        </mxCell>
        <mxCell id="FtvU1o7NDwiha-P4Q8uA-382" value="System" style="swimlane;html=1;startSize=20;horizontal=0;" parent="FtvU1o7NDwiha-P4Q8uA-340" vertex="1">
          <mxGeometry x="20" y="120" width="1860" height="120" as="geometry" />
        </mxCell>
        <mxCell id="FtvU1o7NDwiha-P4Q8uA-389" value="Record Request Penambahan Plafond" style="whiteSpace=wrap;html=1;" parent="FtvU1o7NDwiha-P4Q8uA-382" vertex="1">
          <mxGeometry x="460" y="30" width="120" height="60" as="geometry" />
        </mxCell>
        <mxCell id="FtvU1o7NDwiha-P4Q8uA-406" value="Notifikasi User" style="whiteSpace=wrap;html=1;fontColor=#000000;" parent="FtvU1o7NDwiha-P4Q8uA-382" vertex="1">
          <mxGeometry x="1620" y="40" width="120" height="60" as="geometry" />
        </mxCell>
        <mxCell id="FtvU1o7NDwiha-P4Q8uA-419" value="" style="edgeStyle=orthogonalEdgeStyle;rounded=0;orthogonalLoop=1;jettySize=auto;html=1;" parent="FtvU1o7NDwiha-P4Q8uA-382" source="FtvU1o7NDwiha-P4Q8uA-413" target="FtvU1o7NDwiha-P4Q8uA-406" edge="1">
          <mxGeometry relative="1" as="geometry" />
        </mxCell>
        <mxCell id="FtvU1o7NDwiha-P4Q8uA-413" value="Update Plafond User" style="whiteSpace=wrap;html=1;fontColor=#000000;" parent="FtvU1o7NDwiha-P4Q8uA-382" vertex="1">
          <mxGeometry x="1450" y="40" width="120" height="60" as="geometry" />
        </mxCell>
        <mxCell id="FtvU1o7NDwiha-P4Q8uA-388" value="Admin" style="swimlane;html=1;startSize=20;horizontal=0;" parent="FtvU1o7NDwiha-P4Q8uA-340" vertex="1">
          <mxGeometry x="20" y="240" width="1860" height="120" as="geometry" />
        </mxCell>
        <mxCell id="FtvU1o7NDwiha-P4Q8uA-394" value="" style="edgeStyle=orthogonalEdgeStyle;rounded=0;orthogonalLoop=1;jettySize=auto;html=1;" parent="FtvU1o7NDwiha-P4Q8uA-388" source="FtvU1o7NDwiha-P4Q8uA-391" target="FtvU1o7NDwiha-P4Q8uA-393" edge="1">
          <mxGeometry relative="1" as="geometry" />
        </mxCell>
        <mxCell id="FtvU1o7NDwiha-P4Q8uA-391" value="Analisa Request Penambahan Plafond" style="whiteSpace=wrap;html=1;" parent="FtvU1o7NDwiha-P4Q8uA-388" vertex="1">
          <mxGeometry x="610" y="30" width="120" height="60" as="geometry" />
        </mxCell>
        <mxCell id="FtvU1o7NDwiha-P4Q8uA-403" value="Tidak" style="edgeStyle=orthogonalEdgeStyle;rounded=0;orthogonalLoop=1;jettySize=auto;html=1;" parent="FtvU1o7NDwiha-P4Q8uA-388" source="FtvU1o7NDwiha-P4Q8uA-393" target="FtvU1o7NDwiha-P4Q8uA-402" edge="1">
          <mxGeometry relative="1" as="geometry" />
        </mxCell>
        <mxCell id="FtvU1o7NDwiha-P4Q8uA-393" value="Diterima?" style="rhombus;whiteSpace=wrap;html=1;fontFamily=Helvetica;fontSize=12;fontColor=#000000;align=center;" parent="FtvU1o7NDwiha-P4Q8uA-388" vertex="1">
          <mxGeometry x="810" y="40" width="40" height="40" as="geometry" />
        </mxCell>
        <mxCell id="FtvU1o7NDwiha-P4Q8uA-402" value="Input Alasan Penolakan" style="whiteSpace=wrap;html=1;fontColor=#000000;" parent="FtvU1o7NDwiha-P4Q8uA-388" vertex="1">
          <mxGeometry x="890" y="30" width="120" height="60" as="geometry" />
        </mxCell>
        <mxCell id="FtvU1o7NDwiha-P4Q8uA-410" value="Input alasan dan Penambahan Plafond" style="whiteSpace=wrap;html=1;fontColor=#000000;" parent="FtvU1o7NDwiha-P4Q8uA-388" vertex="1">
          <mxGeometry x="1230" y="30" width="120" height="60" as="geometry" />
        </mxCell>
        <mxCell id="FtvU1o7NDwiha-P4Q8uA-411" value="" style="edgeStyle=orthogonalEdgeStyle;rounded=0;orthogonalLoop=1;jettySize=auto;html=1;" parent="FtvU1o7NDwiha-P4Q8uA-388" source="FtvU1o7NDwiha-P4Q8uA-393" target="FtvU1o7NDwiha-P4Q8uA-410" edge="1">
          <mxGeometry relative="1" as="geometry">
            <Array as="points">
              <mxPoint x="830" y="180" />
              <mxPoint x="1290" y="180" />
            </Array>
          </mxGeometry>
        </mxCell>
        <mxCell id="FtvU1o7NDwiha-P4Q8uA-412" value="Ya" style="edgeLabel;html=1;align=center;verticalAlign=middle;resizable=0;points=[];" parent="FtvU1o7NDwiha-P4Q8uA-411" vertex="1" connectable="0">
          <mxGeometry x="-0.0001" y="-3" relative="1" as="geometry">
            <mxPoint as="offset" />
          </mxGeometry>
        </mxCell>
        <mxCell id="FtvU1o7NDwiha-P4Q8uA-390" value="" style="edgeStyle=orthogonalEdgeStyle;rounded=0;orthogonalLoop=1;jettySize=auto;html=1;" parent="FtvU1o7NDwiha-P4Q8uA-340" source="FtvU1o7NDwiha-P4Q8uA-379" target="FtvU1o7NDwiha-P4Q8uA-389" edge="1">
          <mxGeometry relative="1" as="geometry" />
        </mxCell>
        <mxCell id="FtvU1o7NDwiha-P4Q8uA-392" value="" style="edgeStyle=orthogonalEdgeStyle;rounded=0;orthogonalLoop=1;jettySize=auto;html=1;" parent="FtvU1o7NDwiha-P4Q8uA-340" source="FtvU1o7NDwiha-P4Q8uA-389" target="FtvU1o7NDwiha-P4Q8uA-391" edge="1">
          <mxGeometry relative="1" as="geometry" />
        </mxCell>
        <mxCell id="FtvU1o7NDwiha-P4Q8uA-409" value="" style="edgeStyle=orthogonalEdgeStyle;rounded=0;orthogonalLoop=1;jettySize=auto;html=1;" parent="FtvU1o7NDwiha-P4Q8uA-340" source="FtvU1o7NDwiha-P4Q8uA-406" target="FtvU1o7NDwiha-P4Q8uA-408" edge="1">
          <mxGeometry relative="1" as="geometry" />
        </mxCell>
        <mxCell id="FtvU1o7NDwiha-P4Q8uA-414" value="" style="edgeStyle=orthogonalEdgeStyle;rounded=0;orthogonalLoop=1;jettySize=auto;html=1;" parent="FtvU1o7NDwiha-P4Q8uA-340" source="FtvU1o7NDwiha-P4Q8uA-410" target="FtvU1o7NDwiha-P4Q8uA-413" edge="1">
          <mxGeometry relative="1" as="geometry" />
        </mxCell>
        <mxCell id="FtvU1o7NDwiha-P4Q8uA-407" value="" style="edgeStyle=orthogonalEdgeStyle;rounded=0;orthogonalLoop=1;jettySize=auto;html=1;" parent="1" source="FtvU1o7NDwiha-P4Q8uA-404" target="FtvU1o7NDwiha-P4Q8uA-406" edge="1">
          <mxGeometry relative="1" as="geometry">
            <Array as="points">
              <mxPoint x="1640" y="1660" />
              <mxPoint x="1640" y="1660" />
            </Array>
          </mxGeometry>
        </mxCell>
        <mxCell id="FtvU1o7NDwiha-P4Q8uA-404" value="Catat Alasan Penolakan" style="whiteSpace=wrap;html=1;fontColor=#000000;" parent="1" vertex="1">
          <mxGeometry x="1170" y="1630" width="120" height="60" as="geometry" />
        </mxCell>
        <mxCell id="FtvU1o7NDwiha-P4Q8uA-405" value="" style="edgeStyle=orthogonalEdgeStyle;rounded=0;orthogonalLoop=1;jettySize=auto;html=1;" parent="1" source="FtvU1o7NDwiha-P4Q8uA-402" target="FtvU1o7NDwiha-P4Q8uA-404" edge="1">
          <mxGeometry relative="1" as="geometry" />
        </mxCell>
        <mxCell id="FtvU1o7NDwiha-P4Q8uA-420" value="Pengajuan Kredit KMK 2" style="swimlane;html=1;childLayout=stackLayout;resizeParent=1;resizeParentMax=0;horizontal=0;startSize=20;horizontalStack=0;" parent="1" vertex="1">
          <mxGeometry x="1120" y="680" width="1330" height="250" as="geometry" />
        </mxCell>
        <mxCell id="FtvU1o7NDwiha-P4Q8uA-421" value="Customer" style="swimlane;html=1;startSize=20;horizontal=0;" parent="FtvU1o7NDwiha-P4Q8uA-420" vertex="1">
          <mxGeometry x="20" width="1310" height="120" as="geometry" />
        </mxCell>
        <mxCell id="FtvU1o7NDwiha-P4Q8uA-422" value="" style="edgeStyle=orthogonalEdgeStyle;rounded=0;orthogonalLoop=1;jettySize=auto;html=1;" parent="FtvU1o7NDwiha-P4Q8uA-421" source="FtvU1o7NDwiha-P4Q8uA-423" target="FtvU1o7NDwiha-P4Q8uA-425" edge="1">
          <mxGeometry relative="1" as="geometry" />
        </mxCell>
        <mxCell id="FtvU1o7NDwiha-P4Q8uA-423" value="" style="ellipse;whiteSpace=wrap;html=1;" parent="FtvU1o7NDwiha-P4Q8uA-421" vertex="1">
          <mxGeometry x="40" y="40" width="40" height="40" as="geometry" />
        </mxCell>
        <mxCell id="FtvU1o7NDwiha-P4Q8uA-425" value="Cek Status KMK" style="rounded=0;whiteSpace=wrap;html=1;fontFamily=Helvetica;fontSize=12;fontColor=#000000;align=center;" parent="FtvU1o7NDwiha-P4Q8uA-421" vertex="1">
          <mxGeometry x="120" y="30" width="80" height="60" as="geometry" />
        </mxCell>
        <mxCell id="FtvU1o7NDwiha-P4Q8uA-459" value="" style="edgeStyle=orthogonalEdgeStyle;rounded=0;orthogonalLoop=1;jettySize=auto;html=1;" parent="FtvU1o7NDwiha-P4Q8uA-421" source="FtvU1o7NDwiha-P4Q8uA-432" target="FtvU1o7NDwiha-P4Q8uA-458" edge="1">
          <mxGeometry relative="1" as="geometry" />
        </mxCell>
        <mxCell id="FtvU1o7NDwiha-P4Q8uA-432" value="Input Durasi/ Tanggal Pembayaran" style="whiteSpace=wrap;html=1;fontColor=#000000;" parent="FtvU1o7NDwiha-P4Q8uA-421" vertex="1">
          <mxGeometry x="360" y="30" width="120" height="60" as="geometry" />
        </mxCell>
        <mxCell id="FtvU1o7NDwiha-P4Q8uA-433" value="" style="edgeStyle=orthogonalEdgeStyle;rounded=0;orthogonalLoop=1;jettySize=auto;html=1;" parent="FtvU1o7NDwiha-P4Q8uA-421" source="FtvU1o7NDwiha-P4Q8uA-434" target="FtvU1o7NDwiha-P4Q8uA-435" edge="1">
          <mxGeometry relative="1" as="geometry">
            <mxPoint x="800" y="60" as="targetPoint" />
          </mxGeometry>
        </mxCell>
        <mxCell id="FtvU1o7NDwiha-P4Q8uA-434" value="Withdraw Pencairan" style="whiteSpace=wrap;html=1;fontColor=#000000;" parent="FtvU1o7NDwiha-P4Q8uA-421" vertex="1">
          <mxGeometry x="1040" y="30" width="120" height="60" as="geometry" />
        </mxCell>
        <mxCell id="FtvU1o7NDwiha-P4Q8uA-435" value="" style="ellipse;whiteSpace=wrap;html=1;" parent="FtvU1o7NDwiha-P4Q8uA-421" vertex="1">
          <mxGeometry x="1260" y="40" width="40" height="40" as="geometry" />
        </mxCell>
        <mxCell id="FtvU1o7NDwiha-P4Q8uA-458" value="Submit Request Pencairan" style="whiteSpace=wrap;html=1;" parent="FtvU1o7NDwiha-P4Q8uA-421" vertex="1">
          <mxGeometry x="560" y="30" width="120" height="60" as="geometry" />
        </mxCell>
        <mxCell id="FtvU1o7NDwiha-P4Q8uA-436" value="System&lt;br&gt;" style="swimlane;html=1;startSize=20;horizontal=0;" parent="FtvU1o7NDwiha-P4Q8uA-420" vertex="1">
          <mxGeometry x="20" y="120" width="1310" height="130" as="geometry" />
        </mxCell>
        <mxCell id="FtvU1o7NDwiha-P4Q8uA-437" value="" style="edgeStyle=orthogonalEdgeStyle;rounded=0;orthogonalLoop=1;jettySize=auto;html=1;" parent="FtvU1o7NDwiha-P4Q8uA-436" source="FtvU1o7NDwiha-P4Q8uA-438" target="FtvU1o7NDwiha-P4Q8uA-439" edge="1">
          <mxGeometry relative="1" as="geometry" />
        </mxCell>
        <mxCell id="FtvU1o7NDwiha-P4Q8uA-438" value="Transfer Pencairan" style="whiteSpace=wrap;html=1;fontColor=#000000;" parent="FtvU1o7NDwiha-P4Q8uA-436" vertex="1">
          <mxGeometry x="690" y="30" width="120" height="60" as="geometry" />
        </mxCell>
        <mxCell id="FtvU1o7NDwiha-P4Q8uA-439" value="Update Sisa Plafond" style="whiteSpace=wrap;html=1;fontColor=#000000;" parent="FtvU1o7NDwiha-P4Q8uA-436" vertex="1">
          <mxGeometry x="890" y="30" width="120" height="60" as="geometry" />
        </mxCell>
        <mxCell id="FtvU1o7NDwiha-P4Q8uA-430" value="Aktif?" style="rhombus;whiteSpace=wrap;html=1;fontFamily=Helvetica;fontSize=12;fontColor=#000000;align=center;" parent="FtvU1o7NDwiha-P4Q8uA-436" vertex="1">
          <mxGeometry x="273.5" y="40" width="40" height="40" as="geometry" />
        </mxCell>
        <mxCell id="FtvU1o7NDwiha-P4Q8uA-431" value="" style="ellipse;whiteSpace=wrap;html=1;" parent="FtvU1o7NDwiha-P4Q8uA-436" vertex="1">
          <mxGeometry x="380" y="40" width="40" height="40" as="geometry" />
        </mxCell>
        <mxCell id="FtvU1o7NDwiha-P4Q8uA-426" value="" style="edgeStyle=orthogonalEdgeStyle;rounded=0;orthogonalLoop=1;jettySize=auto;html=1;" parent="FtvU1o7NDwiha-P4Q8uA-436" source="FtvU1o7NDwiha-P4Q8uA-430" target="FtvU1o7NDwiha-P4Q8uA-431" edge="1">
          <mxGeometry relative="1" as="geometry" />
        </mxCell>
        <mxCell id="FtvU1o7NDwiha-P4Q8uA-427" value="Tidak" style="edgeLabel;html=1;align=center;verticalAlign=middle;resizable=0;points=[];" parent="FtvU1o7NDwiha-P4Q8uA-426" vertex="1" connectable="0">
          <mxGeometry x="0.36" relative="1" as="geometry">
            <mxPoint x="1" as="offset" />
          </mxGeometry>
        </mxCell>
        <mxCell id="FtvU1o7NDwiha-P4Q8uA-441" value="" style="edgeStyle=orthogonalEdgeStyle;rounded=0;orthogonalLoop=1;jettySize=auto;html=1;" parent="FtvU1o7NDwiha-P4Q8uA-420" source="FtvU1o7NDwiha-P4Q8uA-439" target="FtvU1o7NDwiha-P4Q8uA-434" edge="1">
          <mxGeometry relative="1" as="geometry">
            <Array as="points">
              <mxPoint x="960" y="180" />
            </Array>
          </mxGeometry>
        </mxCell>
        <mxCell id="FtvU1o7NDwiha-P4Q8uA-424" value="" style="edgeStyle=orthogonalEdgeStyle;rounded=0;orthogonalLoop=1;jettySize=auto;html=1;entryX=0;entryY=0.5;entryDx=0;entryDy=0;" parent="FtvU1o7NDwiha-P4Q8uA-420" source="FtvU1o7NDwiha-P4Q8uA-425" target="FtvU1o7NDwiha-P4Q8uA-430" edge="1">
          <mxGeometry relative="1" as="geometry" />
        </mxCell>
        <mxCell id="FtvU1o7NDwiha-P4Q8uA-428" value="" style="edgeStyle=orthogonalEdgeStyle;rounded=0;orthogonalLoop=1;jettySize=auto;html=1;" parent="FtvU1o7NDwiha-P4Q8uA-420" source="FtvU1o7NDwiha-P4Q8uA-430" target="FtvU1o7NDwiha-P4Q8uA-432" edge="1">
          <mxGeometry relative="1" as="geometry">
            <Array as="points">
              <mxPoint x="314" y="60" />
            </Array>
          </mxGeometry>
        </mxCell>
        <mxCell id="FtvU1o7NDwiha-P4Q8uA-429" value="Ya" style="edgeLabel;html=1;align=center;verticalAlign=middle;resizable=0;points=[];" parent="FtvU1o7NDwiha-P4Q8uA-428" vertex="1" connectable="0">
          <mxGeometry x="-0.0827" y="1" relative="1" as="geometry">
            <mxPoint as="offset" />
          </mxGeometry>
        </mxCell>
        <mxCell id="FtvU1o7NDwiha-P4Q8uA-460" value="" style="edgeStyle=orthogonalEdgeStyle;rounded=0;orthogonalLoop=1;jettySize=auto;html=1;" parent="FtvU1o7NDwiha-P4Q8uA-420" source="FtvU1o7NDwiha-P4Q8uA-458" target="FtvU1o7NDwiha-P4Q8uA-438" edge="1">
          <mxGeometry relative="1" as="geometry" />
        </mxCell>
        <mxCell id="FtvU1o7NDwiha-P4Q8uA-523" value="Pembayaran KMK Alt 1 &amp;amp; 2" style="swimlane;html=1;childLayout=stackLayout;resizeParent=1;resizeParentMax=0;horizontal=0;startSize=20;horizontalStack=0;" parent="1" vertex="1">
          <mxGeometry x="120" y="1940" width="1290" height="360" as="geometry" />
        </mxCell>
        <mxCell id="FtvU1o7NDwiha-P4Q8uA-524" value="Customer" style="swimlane;html=1;startSize=20;horizontal=0;" parent="FtvU1o7NDwiha-P4Q8uA-523" vertex="1">
          <mxGeometry x="20" width="1270" height="120" as="geometry" />
        </mxCell>
        <mxCell id="FtvU1o7NDwiha-P4Q8uA-560" value="" style="edgeStyle=orthogonalEdgeStyle;rounded=0;orthogonalLoop=1;jettySize=auto;html=1;" parent="FtvU1o7NDwiha-P4Q8uA-524" source="FtvU1o7NDwiha-P4Q8uA-557" target="FtvU1o7NDwiha-P4Q8uA-559" edge="1">
          <mxGeometry relative="1" as="geometry" />
        </mxCell>
        <mxCell id="FtvU1o7NDwiha-P4Q8uA-557" value="Pembayaran?" style="rhombus;whiteSpace=wrap;html=1;fontFamily=Helvetica;fontSize=12;fontColor=#000000;align=center;" parent="FtvU1o7NDwiha-P4Q8uA-524" vertex="1">
          <mxGeometry x="420" y="40" width="40" height="40" as="geometry" />
        </mxCell>
        <mxCell id="FtvU1o7NDwiha-P4Q8uA-559" value="Bayar Bunga" style="whiteSpace=wrap;html=1;fontColor=#000000;" parent="FtvU1o7NDwiha-P4Q8uA-524" vertex="1">
          <mxGeometry x="610" y="30" width="120" height="60" as="geometry" />
        </mxCell>
        <mxCell id="FtvU1o7NDwiha-P4Q8uA-573" value="Bayar Semua" style="whiteSpace=wrap;html=1;fontColor=#000000;" parent="FtvU1o7NDwiha-P4Q8uA-524" vertex="1">
          <mxGeometry x="770" y="30" width="120" height="60" as="geometry" />
        </mxCell>
        <mxCell id="FtvU1o7NDwiha-P4Q8uA-574" value="" style="edgeStyle=orthogonalEdgeStyle;rounded=0;orthogonalLoop=1;jettySize=auto;html=1;" parent="FtvU1o7NDwiha-P4Q8uA-524" source="FtvU1o7NDwiha-P4Q8uA-557" target="FtvU1o7NDwiha-P4Q8uA-573" edge="1">
          <mxGeometry relative="1" as="geometry">
            <Array as="points">
              <mxPoint x="440" y="10" />
              <mxPoint x="830" y="10" />
            </Array>
          </mxGeometry>
        </mxCell>
        <mxCell id="FtvU1o7NDwiha-P4Q8uA-539" value="System&lt;br&gt;" style="swimlane;html=1;startSize=20;horizontal=0;" parent="FtvU1o7NDwiha-P4Q8uA-523" vertex="1">
          <mxGeometry x="20" y="120" width="1270" height="120" as="geometry" />
        </mxCell>
        <mxCell id="FtvU1o7NDwiha-P4Q8uA-555" value="Notifikasi Transaksi Outstanding" style="whiteSpace=wrap;html=1;fontColor=#000000;" parent="FtvU1o7NDwiha-P4Q8uA-539" vertex="1">
          <mxGeometry x="380" y="30" width="120" height="60" as="geometry" />
        </mxCell>
        <mxCell id="FtvU1o7NDwiha-P4Q8uA-566" value="" style="edgeStyle=orthogonalEdgeStyle;rounded=0;orthogonalLoop=1;jettySize=auto;html=1;" parent="FtvU1o7NDwiha-P4Q8uA-539" source="FtvU1o7NDwiha-P4Q8uA-561" target="FtvU1o7NDwiha-P4Q8uA-565" edge="1">
          <mxGeometry relative="1" as="geometry" />
        </mxCell>
        <mxCell id="FtvU1o7NDwiha-P4Q8uA-570" value="Ya" style="edgeLabel;html=1;align=center;verticalAlign=middle;resizable=0;points=[];" parent="FtvU1o7NDwiha-P4Q8uA-566" vertex="1" connectable="0">
          <mxGeometry x="-0.0143" y="-2" relative="1" as="geometry">
            <mxPoint as="offset" />
          </mxGeometry>
        </mxCell>
        <mxCell id="FtvU1o7NDwiha-P4Q8uA-561" value="Minimal Bunga?" style="rhombus;whiteSpace=wrap;html=1;fontFamily=Helvetica;fontSize=12;fontColor=#000000;align=center;" parent="FtvU1o7NDwiha-P4Q8uA-539" vertex="1">
          <mxGeometry x="650" y="40" width="40" height="40" as="geometry" />
        </mxCell>
        <mxCell id="FtvU1o7NDwiha-P4Q8uA-565" value="Catat Pembayaran Bunga" style="whiteSpace=wrap;html=1;fontColor=#000000;" parent="FtvU1o7NDwiha-P4Q8uA-539" vertex="1">
          <mxGeometry x="770" y="30" width="120" height="60" as="geometry" />
        </mxCell>
        <mxCell id="FtvU1o7NDwiha-P4Q8uA-575" value="Catat Pelunasa Pembayaran" style="whiteSpace=wrap;html=1;fontColor=#000000;" parent="FtvU1o7NDwiha-P4Q8uA-539" vertex="1">
          <mxGeometry x="970" y="30" width="120" height="60" as="geometry" />
        </mxCell>
        <mxCell id="FtvU1o7NDwiha-P4Q8uA-548" value="Scheduler/Job" style="swimlane;html=1;startSize=20;horizontal=0;" parent="FtvU1o7NDwiha-P4Q8uA-523" vertex="1">
          <mxGeometry x="20" y="240" width="1270" height="120" as="geometry" />
        </mxCell>
        <mxCell id="FtvU1o7NDwiha-P4Q8uA-553" value="" style="edgeStyle=orthogonalEdgeStyle;rounded=0;orthogonalLoop=1;jettySize=auto;html=1;" parent="FtvU1o7NDwiha-P4Q8uA-548" source="FtvU1o7NDwiha-P4Q8uA-549" target="FtvU1o7NDwiha-P4Q8uA-554" edge="1">
          <mxGeometry relative="1" as="geometry">
            <mxPoint x="329.9999999999998" y="60" as="targetPoint" />
          </mxGeometry>
        </mxCell>
        <mxCell id="FtvU1o7NDwiha-P4Q8uA-549" value="Cek Outstanding per tanggal" style="whiteSpace=wrap;html=1;" parent="FtvU1o7NDwiha-P4Q8uA-548" vertex="1">
          <mxGeometry x="130" y="30" width="120" height="60" as="geometry" />
        </mxCell>
        <mxCell id="FtvU1o7NDwiha-P4Q8uA-550" value="" style="ellipse;whiteSpace=wrap;html=1;" parent="FtvU1o7NDwiha-P4Q8uA-548" vertex="1">
          <mxGeometry x="50" y="40" width="40" height="40" as="geometry" />
        </mxCell>
        <mxCell id="FtvU1o7NDwiha-P4Q8uA-551" value="" style="edgeStyle=orthogonalEdgeStyle;rounded=0;orthogonalLoop=1;jettySize=auto;html=1;" parent="FtvU1o7NDwiha-P4Q8uA-548" source="FtvU1o7NDwiha-P4Q8uA-550" target="FtvU1o7NDwiha-P4Q8uA-549" edge="1">
          <mxGeometry relative="1" as="geometry" />
        </mxCell>
        <mxCell id="FtvU1o7NDwiha-P4Q8uA-554" value="Outstanding KMK?" style="rhombus;whiteSpace=wrap;html=1;fontFamily=Helvetica;fontSize=12;fontColor=#000000;align=center;" parent="FtvU1o7NDwiha-P4Q8uA-548" vertex="1">
          <mxGeometry x="330" y="40" width="40" height="40" as="geometry" />
        </mxCell>
        <mxCell id="FtvU1o7NDwiha-P4Q8uA-567" value="" style="ellipse;whiteSpace=wrap;html=1;" parent="FtvU1o7NDwiha-P4Q8uA-548" vertex="1">
          <mxGeometry x="810" y="40" width="40" height="40" as="geometry" />
        </mxCell>
        <mxCell id="FtvU1o7NDwiha-P4Q8uA-556" value="" style="edgeStyle=orthogonalEdgeStyle;rounded=0;orthogonalLoop=1;jettySize=auto;html=1;" parent="FtvU1o7NDwiha-P4Q8uA-523" source="FtvU1o7NDwiha-P4Q8uA-554" target="FtvU1o7NDwiha-P4Q8uA-555" edge="1">
          <mxGeometry relative="1" as="geometry" />
        </mxCell>
        <mxCell id="FtvU1o7NDwiha-P4Q8uA-558" value="" style="edgeStyle=orthogonalEdgeStyle;rounded=0;orthogonalLoop=1;jettySize=auto;html=1;" parent="FtvU1o7NDwiha-P4Q8uA-523" source="FtvU1o7NDwiha-P4Q8uA-555" target="FtvU1o7NDwiha-P4Q8uA-557" edge="1">
          <mxGeometry relative="1" as="geometry" />
        </mxCell>
        <mxCell id="FtvU1o7NDwiha-P4Q8uA-562" value="" style="edgeStyle=orthogonalEdgeStyle;rounded=0;orthogonalLoop=1;jettySize=auto;html=1;" parent="FtvU1o7NDwiha-P4Q8uA-523" source="FtvU1o7NDwiha-P4Q8uA-559" target="FtvU1o7NDwiha-P4Q8uA-561" edge="1">
          <mxGeometry relative="1" as="geometry" />
        </mxCell>
        <mxCell id="FtvU1o7NDwiha-P4Q8uA-576" value="" style="edgeStyle=orthogonalEdgeStyle;rounded=0;orthogonalLoop=1;jettySize=auto;html=1;" parent="FtvU1o7NDwiha-P4Q8uA-523" source="FtvU1o7NDwiha-P4Q8uA-573" target="FtvU1o7NDwiha-P4Q8uA-575" edge="1">
          <mxGeometry relative="1" as="geometry" />
        </mxCell>
        <mxCell id="FtvU1o7NDwiha-P4Q8uA-569" value="" style="edgeStyle=orthogonalEdgeStyle;rounded=0;orthogonalLoop=1;jettySize=auto;html=1;" parent="FtvU1o7NDwiha-P4Q8uA-523" source="FtvU1o7NDwiha-P4Q8uA-561" target="FtvU1o7NDwiha-P4Q8uA-567" edge="1">
          <mxGeometry relative="1" as="geometry">
            <Array as="points">
              <mxPoint x="690" y="300" />
            </Array>
          </mxGeometry>
        </mxCell>
        <mxCell id="FtvU1o7NDwiha-P4Q8uA-571" value="Tidak" style="edgeLabel;html=1;align=center;verticalAlign=middle;resizable=0;points=[];" parent="FtvU1o7NDwiha-P4Q8uA-569" vertex="1" connectable="0">
          <mxGeometry x="-0.1607" y="-5" relative="1" as="geometry">
            <mxPoint y="-1" as="offset" />
          </mxGeometry>
        </mxCell>
        <mxCell id="FtvU1o7NDwiha-P4Q8uA-577" value="" style="edgeStyle=orthogonalEdgeStyle;rounded=0;orthogonalLoop=1;jettySize=auto;html=1;" parent="FtvU1o7NDwiha-P4Q8uA-523" source="FtvU1o7NDwiha-P4Q8uA-575" target="FtvU1o7NDwiha-P4Q8uA-567" edge="1">
          <mxGeometry relative="1" as="geometry">
            <Array as="points">
              <mxPoint x="1050" y="300" />
            </Array>
          </mxGeometry>
        </mxCell>
        <mxCell id="FtvU1o7NDwiha-P4Q8uA-578" value="" style="edgeStyle=orthogonalEdgeStyle;rounded=0;orthogonalLoop=1;jettySize=auto;html=1;" parent="FtvU1o7NDwiha-P4Q8uA-523" source="FtvU1o7NDwiha-P4Q8uA-565" target="FtvU1o7NDwiha-P4Q8uA-567" edge="1">
          <mxGeometry relative="1" as="geometry" />
        </mxCell>
        <mxCell id="FtvU1o7NDwiha-P4Q8uA-579" value="Pembayaran KMK Alt 3" style="swimlane;html=1;childLayout=stackLayout;resizeParent=1;resizeParentMax=0;horizontal=0;startSize=20;horizontalStack=0;" parent="1" vertex="1">
          <mxGeometry x="120" y="2370" width="1290" height="240" as="geometry" />
        </mxCell>
        <mxCell id="FtvU1o7NDwiha-P4Q8uA-580" value="Customer" style="swimlane;html=1;startSize=20;horizontal=0;" parent="FtvU1o7NDwiha-P4Q8uA-579" vertex="1">
          <mxGeometry x="20" width="1270" height="120" as="geometry" />
        </mxCell>
        <mxCell id="FtvU1o7NDwiha-P4Q8uA-581" value="" style="edgeStyle=orthogonalEdgeStyle;rounded=0;orthogonalLoop=1;jettySize=auto;html=1;" parent="FtvU1o7NDwiha-P4Q8uA-580" source="FtvU1o7NDwiha-P4Q8uA-582" target="FtvU1o7NDwiha-P4Q8uA-583" edge="1">
          <mxGeometry relative="1" as="geometry" />
        </mxCell>
        <mxCell id="FtvU1o7NDwiha-P4Q8uA-582" value="Pembayaran?" style="rhombus;whiteSpace=wrap;html=1;fontFamily=Helvetica;fontSize=12;fontColor=#000000;align=center;" parent="FtvU1o7NDwiha-P4Q8uA-580" vertex="1">
          <mxGeometry x="420" y="40" width="40" height="40" as="geometry" />
        </mxCell>
        <mxCell id="FtvU1o7NDwiha-P4Q8uA-583" value="Bayar Bunga" style="whiteSpace=wrap;html=1;fontColor=#000000;" parent="FtvU1o7NDwiha-P4Q8uA-580" vertex="1">
          <mxGeometry x="610" y="30" width="120" height="60" as="geometry" />
        </mxCell>
        <mxCell id="FtvU1o7NDwiha-P4Q8uA-584" value="Bayar Semua" style="whiteSpace=wrap;html=1;fontColor=#000000;" parent="FtvU1o7NDwiha-P4Q8uA-580" vertex="1">
          <mxGeometry x="770" y="30" width="120" height="60" as="geometry" />
        </mxCell>
        <mxCell id="FtvU1o7NDwiha-P4Q8uA-585" value="" style="edgeStyle=orthogonalEdgeStyle;rounded=0;orthogonalLoop=1;jettySize=auto;html=1;" parent="FtvU1o7NDwiha-P4Q8uA-580" source="FtvU1o7NDwiha-P4Q8uA-582" target="FtvU1o7NDwiha-P4Q8uA-584" edge="1">
          <mxGeometry relative="1" as="geometry">
            <Array as="points">
              <mxPoint x="440" y="10" />
              <mxPoint x="830" y="10" />
            </Array>
          </mxGeometry>
        </mxCell>
        <mxCell id="FtvU1o7NDwiha-P4Q8uA-596" value="" style="ellipse;whiteSpace=wrap;html=1;" parent="FtvU1o7NDwiha-P4Q8uA-580" vertex="1">
          <mxGeometry x="50" y="40" width="40" height="40" as="geometry" />
        </mxCell>
        <mxCell id="FtvU1o7NDwiha-P4Q8uA-595" value="User Inquiry Pembayaran" style="whiteSpace=wrap;html=1;" parent="FtvU1o7NDwiha-P4Q8uA-580" vertex="1">
          <mxGeometry x="130" y="30" width="120" height="60" as="geometry" />
        </mxCell>
        <mxCell id="FtvU1o7NDwiha-P4Q8uA-597" value="" style="edgeStyle=orthogonalEdgeStyle;rounded=0;orthogonalLoop=1;jettySize=auto;html=1;" parent="FtvU1o7NDwiha-P4Q8uA-580" source="FtvU1o7NDwiha-P4Q8uA-596" target="FtvU1o7NDwiha-P4Q8uA-595" edge="1">
          <mxGeometry relative="1" as="geometry" />
        </mxCell>
        <mxCell id="FtvU1o7NDwiha-P4Q8uA-586" value="System&lt;br&gt;" style="swimlane;html=1;startSize=20;horizontal=0;" parent="FtvU1o7NDwiha-P4Q8uA-579" vertex="1">
          <mxGeometry x="20" y="120" width="1270" height="120" as="geometry" />
        </mxCell>
        <mxCell id="FtvU1o7NDwiha-P4Q8uA-587" value="Perhitungan Minimum dan total" style="whiteSpace=wrap;html=1;fontColor=#000000;" parent="FtvU1o7NDwiha-P4Q8uA-586" vertex="1">
          <mxGeometry x="273" y="40" width="120" height="60" as="geometry" />
        </mxCell>
        <mxCell id="FtvU1o7NDwiha-P4Q8uA-588" value="" style="edgeStyle=orthogonalEdgeStyle;rounded=0;orthogonalLoop=1;jettySize=auto;html=1;" parent="FtvU1o7NDwiha-P4Q8uA-586" source="FtvU1o7NDwiha-P4Q8uA-590" target="FtvU1o7NDwiha-P4Q8uA-591" edge="1">
          <mxGeometry relative="1" as="geometry" />
        </mxCell>
        <mxCell id="FtvU1o7NDwiha-P4Q8uA-589" value="Ya" style="edgeLabel;html=1;align=center;verticalAlign=middle;resizable=0;points=[];" parent="FtvU1o7NDwiha-P4Q8uA-588" vertex="1" connectable="0">
          <mxGeometry x="-0.0143" y="-2" relative="1" as="geometry">
            <mxPoint as="offset" />
          </mxGeometry>
        </mxCell>
        <mxCell id="FtvU1o7NDwiha-P4Q8uA-590" value="Minimal Bunga?" style="rhombus;whiteSpace=wrap;html=1;fontFamily=Helvetica;fontSize=12;fontColor=#000000;align=center;" parent="FtvU1o7NDwiha-P4Q8uA-586" vertex="1">
          <mxGeometry x="650" y="40" width="40" height="40" as="geometry" />
        </mxCell>
        <mxCell id="FtvU1o7NDwiha-P4Q8uA-591" value="Catat Pembayaran Bunga" style="whiteSpace=wrap;html=1;fontColor=#000000;" parent="FtvU1o7NDwiha-P4Q8uA-586" vertex="1">
          <mxGeometry x="770" y="30" width="120" height="60" as="geometry" />
        </mxCell>
        <mxCell id="FtvU1o7NDwiha-P4Q8uA-592" value="Catat Pelunasa Pembayaran" style="whiteSpace=wrap;html=1;fontColor=#000000;" parent="FtvU1o7NDwiha-P4Q8uA-586" vertex="1">
          <mxGeometry x="970" y="30" width="120" height="60" as="geometry" />
        </mxCell>
        <mxCell id="FtvU1o7NDwiha-P4Q8uA-601" value="" style="edgeStyle=orthogonalEdgeStyle;rounded=0;orthogonalLoop=1;jettySize=auto;html=1;" parent="FtvU1o7NDwiha-P4Q8uA-579" source="FtvU1o7NDwiha-P4Q8uA-587" target="FtvU1o7NDwiha-P4Q8uA-582" edge="1">
          <mxGeometry relative="1" as="geometry" />
        </mxCell>
        <mxCell id="FtvU1o7NDwiha-P4Q8uA-602" value="" style="edgeStyle=orthogonalEdgeStyle;rounded=0;orthogonalLoop=1;jettySize=auto;html=1;" parent="FtvU1o7NDwiha-P4Q8uA-579" source="FtvU1o7NDwiha-P4Q8uA-583" target="FtvU1o7NDwiha-P4Q8uA-590" edge="1">
          <mxGeometry relative="1" as="geometry" />
        </mxCell>
        <mxCell id="FtvU1o7NDwiha-P4Q8uA-603" value="" style="edgeStyle=orthogonalEdgeStyle;rounded=0;orthogonalLoop=1;jettySize=auto;html=1;" parent="FtvU1o7NDwiha-P4Q8uA-579" source="FtvU1o7NDwiha-P4Q8uA-584" target="FtvU1o7NDwiha-P4Q8uA-592" edge="1">
          <mxGeometry relative="1" as="geometry" />
        </mxCell>
        <mxCell id="FtvU1o7NDwiha-P4Q8uA-609" value="" style="edgeStyle=orthogonalEdgeStyle;rounded=0;orthogonalLoop=1;jettySize=auto;html=1;" parent="FtvU1o7NDwiha-P4Q8uA-579" source="FtvU1o7NDwiha-P4Q8uA-595" target="FtvU1o7NDwiha-P4Q8uA-587" edge="1">
          <mxGeometry relative="1" as="geometry" />
        </mxCell>
      </root>
    </mxGraphModel>
  </diagram>
  <diagram id="eIapdoKruXeBs0H_kOx1" name="Aktivasi KMK">
    <mxGraphModel dx="859" dy="612" grid="1" gridSize="10" guides="1" tooltips="1" connect="1" arrows="1" fold="1" page="1" pageScale="1" pageWidth="850" pageHeight="1100" math="0" shadow="0">
      <root>
        <mxCell id="0" />
        <mxCell id="1" parent="0" />
        <mxCell id="Lf82y6h0gUUzLqwLpCzH-1" value="User: Aktivasi KMK" style="html=1;verticalLabelPosition=bottom;align=center;labelBackgroundColor=#ffffff;verticalAlign=top;strokeWidth=2;strokeColor=#82b366;shadow=0;dashed=0;shape=mxgraph.ios7.icons.smartphone;fillColor=#d5e8d4;" parent="1" vertex="1">
          <mxGeometry x="180" y="140" width="18" height="30" as="geometry" />
        </mxCell>
        <mxCell id="Lf82y6h0gUUzLqwLpCzH-5" value="User: Input Data Perusahaan" style="html=1;strokeWidth=2;shape=manualInput;whiteSpace=wrap;rounded=1;size=26;arcSize=11;fillColor=#d5e8d4;strokeColor=#82b366;" parent="1" vertex="1">
          <mxGeometry x="370" y="125" width="100" height="60" as="geometry" />
        </mxCell>
        <mxCell id="Lf82y6h0gUUzLqwLpCzH-6" value="" style="shape=flexArrow;endArrow=classic;html=1;rounded=0;" parent="1" edge="1">
          <mxGeometry width="50" height="50" relative="1" as="geometry">
            <mxPoint x="260" y="154.5" as="sourcePoint" />
            <mxPoint x="330" y="154.5" as="targetPoint" />
          </mxGeometry>
        </mxCell>
        <mxCell id="Lf82y6h0gUUzLqwLpCzH-8" value="User: Submit Doc" style="shadow=0;dashed=0;html=1;strokeColor=#82b366;fillColor=#00FF00;labelPosition=center;verticalLabelPosition=bottom;verticalAlign=top;align=center;outlineConnect=0;shape=mxgraph.veeam.checked_doc;" parent="1" vertex="1">
          <mxGeometry x="624.5" y="123.4" width="50.8" height="61.6" as="geometry" />
        </mxCell>
        <mxCell id="Lf82y6h0gUUzLqwLpCzH-9" value="Core: Simpan Data" style="sketch=0;html=1;dashed=0;whitespace=wrap;fillColor=#2875E2;strokeColor=#ffffff;points=[[0.005,0.63,0],[0.1,0.2,0],[0.9,0.2,0],[0.5,0,0],[0.995,0.63,0],[0.72,0.99,0],[0.5,1,0],[0.28,0.99,0]];verticalLabelPosition=bottom;align=center;verticalAlign=top;shape=mxgraph.kubernetes.icon;prIcon=api" parent="1" vertex="1">
          <mxGeometry x="625.3" y="270" width="50" height="48" as="geometry" />
        </mxCell>
        <mxCell id="Lf82y6h0gUUzLqwLpCzH-10" value="" style="shape=flexArrow;endArrow=classic;html=1;rounded=0;" parent="1" edge="1">
          <mxGeometry width="50" height="50" relative="1" as="geometry">
            <mxPoint x="510" y="155.3" as="sourcePoint" />
            <mxPoint x="580" y="155.3" as="targetPoint" />
          </mxGeometry>
        </mxCell>
        <mxCell id="Lf82y6h0gUUzLqwLpCzH-13" value="" style="shape=flexArrow;endArrow=classic;html=1;rounded=0;" parent="1" edge="1">
          <mxGeometry width="50" height="50" relative="1" as="geometry">
            <mxPoint x="650.0999999999999" y="220" as="sourcePoint" />
            <mxPoint x="649.8" y="260" as="targetPoint" />
          </mxGeometry>
        </mxCell>
        <mxCell id="q2sQ3y0OkWjJgGKvxP-m-1" value="Core: Return biaya Appraisal" style="sketch=0;html=1;dashed=0;whitespace=wrap;fillColor=#2875E2;strokeColor=#ffffff;points=[[0.005,0.63,0],[0.1,0.2,0],[0.9,0.2,0],[0.5,0,0],[0.995,0.63,0],[0.72,0.99,0],[0.5,1,0],[0.28,0.99,0]];verticalLabelPosition=bottom;align=center;verticalAlign=top;shape=mxgraph.kubernetes.icon;prIcon=api" parent="1" vertex="1">
          <mxGeometry x="395.2" y="270" width="50" height="48" as="geometry" />
        </mxCell>
        <mxCell id="q2sQ3y0OkWjJgGKvxP-m-2" value="" style="shape=flexArrow;endArrow=classic;html=1;rounded=0;" parent="1" edge="1">
          <mxGeometry width="50" height="50" relative="1" as="geometry">
            <mxPoint x="570" y="300" as="sourcePoint" />
            <mxPoint x="500" y="300" as="targetPoint" />
          </mxGeometry>
        </mxCell>
        <mxCell id="q2sQ3y0OkWjJgGKvxP-m-3" value="" style="shape=flexArrow;endArrow=classic;html=1;rounded=0;" parent="1" edge="1">
          <mxGeometry width="50" height="50" relative="1" as="geometry">
            <mxPoint x="330" y="300" as="sourcePoint" />
            <mxPoint x="260" y="300" as="targetPoint" />
          </mxGeometry>
        </mxCell>
        <mxCell id="q2sQ3y0OkWjJgGKvxP-m-8" value="User: Pembayaran Appraisal" style="shape=image;html=1;verticalAlign=top;verticalLabelPosition=bottom;labelBackgroundColor=#ffffff;imageAspect=0;aspect=fixed;image=https://cdn4.iconfinder.com/data/icons/essential-app-2/16/cash-money-coin-value-128.png;imageBackground=#00FF00;" parent="1" vertex="1">
          <mxGeometry x="156" y="260" width="58" height="58" as="geometry" />
        </mxCell>
        <mxCell id="DcfqevQ7FhGaly8kKqTw-3" value="Int Analyst:&lt;br&gt;&amp;nbsp;Pengecekan Dokumen" style="sketch=0;html=1;aspect=fixed;strokeColor=none;shadow=0;fillColor=#3B8DF1;verticalAlign=top;labelPosition=center;verticalLabelPosition=bottom;shape=mxgraph.gcp2.check" parent="1" vertex="1">
          <mxGeometry x="164" y="390" width="50" height="40" as="geometry" />
        </mxCell>
        <mxCell id="DcfqevQ7FhGaly8kKqTw-5" value="" style="shape=flexArrow;endArrow=classic;html=1;rounded=0;" parent="1" edge="1">
          <mxGeometry width="50" height="50" relative="1" as="geometry">
            <mxPoint x="184.79999999999995" y="350" as="sourcePoint" />
            <mxPoint x="184.5" y="390" as="targetPoint" />
          </mxGeometry>
        </mxCell>
        <mxCell id="FEe0PEOKQ8aVlpqZeLEH-1" value="&lt;font color=&quot;#000000&quot;&gt;Int Admin: &lt;br&gt;Request Appraisal Vendor&lt;/font&gt;" style="outlineConnect=0;dashed=0;verticalLabelPosition=bottom;verticalAlign=top;align=center;html=1;shape=mxgraph.aws3.workdocs;fillColor=#2875E2;gradientDirection=north;strokeColor=#001DBC;fontColor=#ffffff;" parent="1" vertex="1">
          <mxGeometry x="395" y="390" width="50.2" height="57.5" as="geometry" />
        </mxCell>
        <mxCell id="FEe0PEOKQ8aVlpqZeLEH-2" value="" style="shape=flexArrow;endArrow=classic;html=1;rounded=0;" parent="1" edge="1">
          <mxGeometry width="50" height="50" relative="1" as="geometry">
            <mxPoint x="260" y="417.5" as="sourcePoint" />
            <mxPoint x="330" y="417.5" as="targetPoint" />
          </mxGeometry>
        </mxCell>
        <mxCell id="FEe0PEOKQ8aVlpqZeLEH-5" value="" style="shape=flexArrow;endArrow=classic;html=1;rounded=0;" parent="1" edge="1">
          <mxGeometry width="50" height="50" relative="1" as="geometry">
            <mxPoint x="510" y="409.5" as="sourcePoint" />
            <mxPoint x="580" y="409.5" as="targetPoint" />
          </mxGeometry>
        </mxCell>
        <mxCell id="FEe0PEOKQ8aVlpqZeLEH-6" value="Int Analyst:&lt;br&gt;Penentuan Plafond &amp;amp; &lt;br&gt;approval KMK" style="sketch=0;pointerEvents=1;shadow=0;dashed=0;html=1;strokeColor=#82b366;fillColor=#2875E2;labelPosition=center;verticalLabelPosition=bottom;verticalAlign=top;outlineConnect=0;align=center;shape=mxgraph.office.users.approver;gradientColor=none;" parent="1" vertex="1">
          <mxGeometry x="616.3" y="382.5" width="59" height="55" as="geometry" />
        </mxCell>
        <mxCell id="LUhPVpvY_0gqTyXC3KTQ-1" value="Int: Escrow Account Topup" style="sketch=0;outlineConnect=0;fontColor=#232F3E;gradientColor=none;strokeColor=#FFFFFF;fillColor=#2875E2;dashed=0;verticalLabelPosition=bottom;verticalAlign=top;align=center;html=1;fontSize=12;fontStyle=0;aspect=fixed;shape=mxgraph.aws4.resourceIcon;resIcon=mxgraph.aws4.bank;" parent="1" vertex="1">
          <mxGeometry x="158.99999999999994" y="547.5" width="60" height="60" as="geometry" />
        </mxCell>
        <mxCell id="LUhPVpvY_0gqTyXC3KTQ-2" value="" style="shape=flexArrow;endArrow=classic;html=1;rounded=0;" parent="1" edge="1">
          <mxGeometry width="50" height="50" relative="1" as="geometry">
            <mxPoint x="645.0999999999999" y="500" as="sourcePoint" />
            <mxPoint x="644.8" y="540" as="targetPoint" />
          </mxGeometry>
        </mxCell>
        <mxCell id="LUhPVpvY_0gqTyXC3KTQ-5" value="User: Pembayaran Asuransi" style="shape=image;html=1;verticalAlign=top;verticalLabelPosition=bottom;labelBackgroundColor=#ffffff;imageAspect=0;aspect=fixed;image=https://cdn4.iconfinder.com/data/icons/essential-app-2/16/cash-money-coin-value-128.png;imageBackground=#00FF00;" parent="1" vertex="1">
          <mxGeometry x="391.19999999999993" y="550" width="58" height="58" as="geometry" />
        </mxCell>
        <mxCell id="LUhPVpvY_0gqTyXC3KTQ-6" value="&lt;font color=&quot;#000000&quot;&gt;Int Admin: &lt;br&gt;Request Asuransi Agunan&lt;/font&gt;" style="outlineConnect=0;dashed=0;verticalLabelPosition=bottom;verticalAlign=top;align=center;html=1;shape=mxgraph.aws3.workdocs;fillColor=#2875E2;gradientDirection=north;strokeColor=#001DBC;fontColor=#ffffff;" parent="1" vertex="1">
          <mxGeometry x="620.7" y="550" width="50.2" height="57.5" as="geometry" />
        </mxCell>
        <mxCell id="LUhPVpvY_0gqTyXC3KTQ-7" value="" style="shape=flexArrow;endArrow=classic;html=1;rounded=0;" parent="1" edge="1">
          <mxGeometry width="50" height="50" relative="1" as="geometry">
            <mxPoint x="580" y="577" as="sourcePoint" />
            <mxPoint x="510" y="577" as="targetPoint" />
          </mxGeometry>
        </mxCell>
        <mxCell id="LUhPVpvY_0gqTyXC3KTQ-8" value="" style="shape=flexArrow;endArrow=classic;html=1;rounded=0;" parent="1" edge="1">
          <mxGeometry width="50" height="50" relative="1" as="geometry">
            <mxPoint x="330" y="578.25" as="sourcePoint" />
            <mxPoint x="260" y="578.25" as="targetPoint" />
          </mxGeometry>
        </mxCell>
        <mxCell id="7T_FqCXLOfWET1ZWaEB0-1" value="Create Account Opening" style="html=1;dashed=0;whiteSpace=wrap;" vertex="1" parent="1">
          <mxGeometry x="730" y="125" width="100" height="50" as="geometry" />
        </mxCell>
        <mxCell id="7T_FqCXLOfWET1ZWaEB0-2" value="Init FPP on Approval" style="html=1;dashed=0;whiteSpace=wrap;" vertex="1" parent="1">
          <mxGeometry x="730" y="210" width="100" height="50" as="geometry" />
        </mxCell>
        <mxCell id="7T_FqCXLOfWET1ZWaEB0-3" value="Create SPKA and request Fee payment for Appraisal&amp;nbsp;" style="html=1;dashed=0;whiteSpace=wrap;" vertex="1" parent="1">
          <mxGeometry x="730" y="290" width="100" height="50" as="geometry" />
        </mxCell>
        <mxCell id="Q_TAVNt--HU7O1F3TpVZ-1" value="Create Insurance Fee and SPAJK" style="html=1;dashed=0;whiteSpace=wrap;" vertex="1" parent="1">
          <mxGeometry x="730" y="390" width="100" height="50" as="geometry" />
        </mxCell>
      </root>
    </mxGraphModel>
  </diagram>
  <diagram id="FWsbAeIf38Cux5-srpk-" name="Pencairan Kredit">
    <mxGraphModel dx="859" dy="612" grid="1" gridSize="10" guides="1" tooltips="1" connect="1" arrows="1" fold="1" page="1" pageScale="1" pageWidth="850" pageHeight="1100" math="0" shadow="0">
      <root>
        <mxCell id="0" />
        <mxCell id="1" parent="0" />
        <mxCell id="0fQZlQV1JmAZEAYF8RgW-1" value="User: Pencairan KMK" style="html=1;verticalLabelPosition=bottom;align=center;labelBackgroundColor=#ffffff;verticalAlign=top;strokeWidth=2;strokeColor=#82b366;shadow=0;dashed=0;shape=mxgraph.ios7.icons.smartphone;fillColor=#d5e8d4;" parent="1" vertex="1">
          <mxGeometry x="180" y="140" width="18" height="30" as="geometry" />
        </mxCell>
        <mxCell id="ltFAYBb-yl0PeFpkvNsp-1" value="User: Input amount pencairan&lt;br&gt;dan durasi" style="html=1;strokeWidth=2;shape=manualInput;whiteSpace=wrap;rounded=1;size=26;arcSize=11;fillColor=#d5e8d4;strokeColor=#82b366;" parent="1" vertex="1">
          <mxGeometry x="370" y="125" width="100" height="60" as="geometry" />
        </mxCell>
        <mxCell id="a6mnKfEKI8QuM_K2rhmY-1" value="" style="shape=flexArrow;endArrow=classic;html=1;rounded=0;" parent="1" edge="1">
          <mxGeometry width="50" height="50" relative="1" as="geometry">
            <mxPoint x="260" y="154.5" as="sourcePoint" />
            <mxPoint x="330" y="154.5" as="targetPoint" />
          </mxGeometry>
        </mxCell>
        <mxCell id="24Bbf5ZMRaGLg-NiN_Dg-1" value="" style="shape=flexArrow;endArrow=classic;html=1;rounded=0;" parent="1" edge="1">
          <mxGeometry width="50" height="50" relative="1" as="geometry">
            <mxPoint x="510" y="155.3" as="sourcePoint" />
            <mxPoint x="580" y="155.3" as="targetPoint" />
          </mxGeometry>
        </mxCell>
        <mxCell id="kWGmrek8VEHAN-MQMUcg-1" value="User: Request Pencairan" style="shadow=0;dashed=0;html=1;strokeColor=#82b366;fillColor=#00FF00;labelPosition=center;verticalLabelPosition=bottom;verticalAlign=top;align=center;outlineConnect=0;shape=mxgraph.veeam.checked_doc;" parent="1" vertex="1">
          <mxGeometry x="624.5" y="123.4" width="50.8" height="61.6" as="geometry" />
        </mxCell>
        <mxCell id="_fsIimgC7Iud7dHEr7XD-1" value="Paylater: &lt;br&gt;Simpan data pencairan" style="sketch=0;html=1;dashed=0;whitespace=wrap;fillColor=#2875E2;strokeColor=#ffffff;points=[[0.005,0.63,0],[0.1,0.2,0],[0.9,0.2,0],[0.5,0,0],[0.995,0.63,0],[0.72,0.99,0],[0.5,1,0],[0.28,0.99,0]];verticalLabelPosition=bottom;align=center;verticalAlign=top;shape=mxgraph.kubernetes.icon;prIcon=api" parent="1" vertex="1">
          <mxGeometry x="625.3" y="270" width="50" height="48" as="geometry" />
        </mxCell>
        <mxCell id="_fsIimgC7Iud7dHEr7XD-2" value="" style="shape=flexArrow;endArrow=classic;html=1;rounded=0;" parent="1" edge="1">
          <mxGeometry width="50" height="50" relative="1" as="geometry">
            <mxPoint x="650.0999999999999" y="220" as="sourcePoint" />
            <mxPoint x="649.8" y="260" as="targetPoint" />
          </mxGeometry>
        </mxCell>
        <mxCell id="_fsIimgC7Iud7dHEr7XD-3" value="" style="shape=flexArrow;endArrow=classic;html=1;rounded=0;" parent="1" edge="1">
          <mxGeometry width="50" height="50" relative="1" as="geometry">
            <mxPoint x="570" y="300" as="sourcePoint" />
            <mxPoint x="500" y="300" as="targetPoint" />
          </mxGeometry>
        </mxCell>
        <mxCell id="_fsIimgC7Iud7dHEr7XD-4" value="Paylater:&lt;br&gt;Queue &lt;br&gt;Pencairan&amp;nbsp;" style="shape=dataStorage;whiteSpace=wrap;html=1;fixedSize=1;fillColor=#2875E2;fontColor=#ffffff;strokeColor=#006EAF;" parent="1" vertex="1">
          <mxGeometry x="370" y="254" width="100" height="80" as="geometry" />
        </mxCell>
        <mxCell id="fiaIwTWpPsYx7J52hTF2-1" value="" style="shape=flexArrow;endArrow=classic;html=1;rounded=0;" parent="1" edge="1">
          <mxGeometry width="50" height="50" relative="1" as="geometry">
            <mxPoint x="330" y="300" as="sourcePoint" />
            <mxPoint x="260" y="300" as="targetPoint" />
          </mxGeometry>
        </mxCell>
        <mxCell id="zp6W1lNHesTQsVMapBJY-1" value="Int: &lt;br&gt;Cek saldo escrow" style="sketch=0;outlineConnect=0;fontColor=#232F3E;gradientColor=none;strokeColor=#FFFFFF;fillColor=#2875E2;dashed=0;verticalLabelPosition=bottom;verticalAlign=top;align=center;html=1;fontSize=12;fontStyle=0;aspect=fixed;shape=mxgraph.aws4.resourceIcon;resIcon=mxgraph.aws4.bank;" parent="1" vertex="1">
          <mxGeometry x="158.99999999999994" y="264" width="60" height="60" as="geometry" />
        </mxCell>
        <mxCell id="uNn-MUqyyCSO_KGvR5aX-1" value="" style="shape=flexArrow;endArrow=classic;html=1;rounded=0;" parent="1" edge="1">
          <mxGeometry width="50" height="50" relative="1" as="geometry">
            <mxPoint x="188.81999999999996" y="370" as="sourcePoint" />
            <mxPoint x="188.52" y="410" as="targetPoint" />
          </mxGeometry>
        </mxCell>
        <mxCell id="AYPdbD95wBtD_I3SY07a-1" value="Int:&lt;br&gt;Pencairan dana kredit" style="shape=image;html=1;verticalAlign=top;verticalLabelPosition=bottom;labelBackgroundColor=#ffffff;imageAspect=0;aspect=fixed;image=https://cdn4.iconfinder.com/data/icons/essential-app-2/16/cash-money-coin-value-128.png;imageBackground=#2875E2;" parent="1" vertex="1">
          <mxGeometry x="159.99999999999994" y="420" width="58" height="58" as="geometry" />
        </mxCell>
        <mxCell id="IR8-GovFWZfH7s9pR4_0-1" value="" style="shape=flexArrow;endArrow=classic;html=1;rounded=0;" parent="1" edge="1">
          <mxGeometry width="50" height="50" relative="1" as="geometry">
            <mxPoint x="260" y="448.52" as="sourcePoint" />
            <mxPoint x="330" y="448.52" as="targetPoint" />
          </mxGeometry>
        </mxCell>
        <mxCell id="IR8-GovFWZfH7s9pR4_0-3" value="Paylater: &lt;br&gt;Update status dan Plafond" style="sketch=0;html=1;dashed=0;whitespace=wrap;fillColor=#2875E2;strokeColor=#ffffff;points=[[0.005,0.63,0],[0.1,0.2,0],[0.9,0.2,0],[0.5,0,0],[0.995,0.63,0],[0.72,0.99,0],[0.5,1,0],[0.28,0.99,0]];verticalLabelPosition=bottom;align=center;verticalAlign=top;shape=mxgraph.kubernetes.icon;prIcon=api" parent="1" vertex="1">
          <mxGeometry x="389.99999999999994" y="425" width="50" height="48" as="geometry" />
        </mxCell>
      </root>
    </mxGraphModel>
  </diagram>
  <diagram id="cYc8gHdr81E2ahwCxurN" name="Database KMK - Paylater">
    <mxGraphModel dx="1718" dy="1224" grid="1" gridSize="10" guides="1" tooltips="1" connect="1" arrows="1" fold="1" page="1" pageScale="1" pageWidth="850" pageHeight="1100" math="0" shadow="0">
      <root>
        <mxCell id="0" />
        <mxCell id="1" parent="0" />
        <mxCell id="Q5zIUpZef0RbTiOsl3um-1" value="credit_applications" style="shape=table;startSize=30;container=1;collapsible=1;childLayout=tableLayout;fixedRows=1;rowLines=0;fontStyle=1;align=center;resizeLast=1;html=1;" vertex="1" parent="1">
          <mxGeometry x="240" y="110" width="180" height="330" as="geometry" />
        </mxCell>
        <mxCell id="Q5zIUpZef0RbTiOsl3um-2" value="" style="shape=tableRow;horizontal=0;startSize=0;swimlaneHead=0;swimlaneBody=0;fillColor=none;collapsible=0;dropTarget=0;points=[[0,0.5],[1,0.5]];portConstraint=eastwest;top=0;left=0;right=0;bottom=1;" vertex="1" parent="Q5zIUpZef0RbTiOsl3um-1">
          <mxGeometry y="30" width="180" height="30" as="geometry" />
        </mxCell>
        <mxCell id="Q5zIUpZef0RbTiOsl3um-3" value="PK" style="shape=partialRectangle;connectable=0;fillColor=none;top=0;left=0;bottom=0;right=0;fontStyle=1;overflow=hidden;whiteSpace=wrap;html=1;" vertex="1" parent="Q5zIUpZef0RbTiOsl3um-2">
          <mxGeometry width="30" height="30" as="geometry">
            <mxRectangle width="30" height="30" as="alternateBounds" />
          </mxGeometry>
        </mxCell>
        <mxCell id="Q5zIUpZef0RbTiOsl3um-4" value="ID (uuid)" style="shape=partialRectangle;connectable=0;fillColor=none;top=0;left=0;bottom=0;right=0;align=left;spacingLeft=6;fontStyle=5;overflow=hidden;whiteSpace=wrap;html=1;" vertex="1" parent="Q5zIUpZef0RbTiOsl3um-2">
          <mxGeometry x="30" width="150" height="30" as="geometry">
            <mxRectangle width="150" height="30" as="alternateBounds" />
          </mxGeometry>
        </mxCell>
        <mxCell id="Q5zIUpZef0RbTiOsl3um-5" value="" style="shape=tableRow;horizontal=0;startSize=0;swimlaneHead=0;swimlaneBody=0;fillColor=none;collapsible=0;dropTarget=0;points=[[0,0.5],[1,0.5]];portConstraint=eastwest;top=0;left=0;right=0;bottom=0;" vertex="1" parent="Q5zIUpZef0RbTiOsl3um-1">
          <mxGeometry y="60" width="180" height="30" as="geometry" />
        </mxCell>
        <mxCell id="Q5zIUpZef0RbTiOsl3um-6" value="FK" style="shape=partialRectangle;connectable=0;fillColor=none;top=0;left=0;bottom=0;right=0;editable=1;overflow=hidden;whiteSpace=wrap;html=1;" vertex="1" parent="Q5zIUpZef0RbTiOsl3um-5">
          <mxGeometry width="30" height="30" as="geometry">
            <mxRectangle width="30" height="30" as="alternateBounds" />
          </mxGeometry>
        </mxCell>
        <mxCell id="Q5zIUpZef0RbTiOsl3um-7" value="user_id (int)" style="shape=partialRectangle;connectable=0;fillColor=none;top=0;left=0;bottom=0;right=0;align=left;spacingLeft=6;overflow=hidden;whiteSpace=wrap;html=1;" vertex="1" parent="Q5zIUpZef0RbTiOsl3um-5">
          <mxGeometry x="30" width="150" height="30" as="geometry">
            <mxRectangle width="150" height="30" as="alternateBounds" />
          </mxGeometry>
        </mxCell>
        <mxCell id="Q5zIUpZef0RbTiOsl3um-8" value="" style="shape=tableRow;horizontal=0;startSize=0;swimlaneHead=0;swimlaneBody=0;fillColor=none;collapsible=0;dropTarget=0;points=[[0,0.5],[1,0.5]];portConstraint=eastwest;top=0;left=0;right=0;bottom=0;" vertex="1" parent="Q5zIUpZef0RbTiOsl3um-1">
          <mxGeometry y="90" width="180" height="30" as="geometry" />
        </mxCell>
        <mxCell id="Q5zIUpZef0RbTiOsl3um-9" value="" style="shape=partialRectangle;connectable=0;fillColor=none;top=0;left=0;bottom=0;right=0;editable=1;overflow=hidden;whiteSpace=wrap;html=1;" vertex="1" parent="Q5zIUpZef0RbTiOsl3um-8">
          <mxGeometry width="30" height="30" as="geometry">
            <mxRectangle width="30" height="30" as="alternateBounds" />
          </mxGeometry>
        </mxCell>
        <mxCell id="Q5zIUpZef0RbTiOsl3um-10" value="name (string)" style="shape=partialRectangle;connectable=0;fillColor=none;top=0;left=0;bottom=0;right=0;align=left;spacingLeft=6;overflow=hidden;whiteSpace=wrap;html=1;" vertex="1" parent="Q5zIUpZef0RbTiOsl3um-8">
          <mxGeometry x="30" width="150" height="30" as="geometry">
            <mxRectangle width="150" height="30" as="alternateBounds" />
          </mxGeometry>
        </mxCell>
        <mxCell id="Q5zIUpZef0RbTiOsl3um-11" value="" style="shape=tableRow;horizontal=0;startSize=0;swimlaneHead=0;swimlaneBody=0;fillColor=none;collapsible=0;dropTarget=0;points=[[0,0.5],[1,0.5]];portConstraint=eastwest;top=0;left=0;right=0;bottom=0;" vertex="1" parent="Q5zIUpZef0RbTiOsl3um-1">
          <mxGeometry y="120" width="180" height="30" as="geometry" />
        </mxCell>
        <mxCell id="Q5zIUpZef0RbTiOsl3um-12" value="" style="shape=partialRectangle;connectable=0;fillColor=none;top=0;left=0;bottom=0;right=0;editable=1;overflow=hidden;whiteSpace=wrap;html=1;" vertex="1" parent="Q5zIUpZef0RbTiOsl3um-11">
          <mxGeometry width="30" height="30" as="geometry">
            <mxRectangle width="30" height="30" as="alternateBounds" />
          </mxGeometry>
        </mxCell>
        <mxCell id="Q5zIUpZef0RbTiOsl3um-13" value="nik (string)" style="shape=partialRectangle;connectable=0;fillColor=none;top=0;left=0;bottom=0;right=0;align=left;spacingLeft=6;overflow=hidden;whiteSpace=wrap;html=1;" vertex="1" parent="Q5zIUpZef0RbTiOsl3um-11">
          <mxGeometry x="30" width="150" height="30" as="geometry">
            <mxRectangle width="150" height="30" as="alternateBounds" />
          </mxGeometry>
        </mxCell>
        <mxCell id="Q5zIUpZef0RbTiOsl3um-14" value="" style="shape=tableRow;horizontal=0;startSize=0;swimlaneHead=0;swimlaneBody=0;fillColor=none;collapsible=0;dropTarget=0;points=[[0,0.5],[1,0.5]];portConstraint=eastwest;top=0;left=0;right=0;bottom=0;" vertex="1" parent="Q5zIUpZef0RbTiOsl3um-1">
          <mxGeometry y="150" width="180" height="30" as="geometry" />
        </mxCell>
        <mxCell id="Q5zIUpZef0RbTiOsl3um-15" value="" style="shape=partialRectangle;connectable=0;fillColor=none;top=0;left=0;bottom=0;right=0;editable=1;overflow=hidden;whiteSpace=wrap;html=1;" vertex="1" parent="Q5zIUpZef0RbTiOsl3um-14">
          <mxGeometry width="30" height="30" as="geometry">
            <mxRectangle width="30" height="30" as="alternateBounds" />
          </mxGeometry>
        </mxCell>
        <mxCell id="Q5zIUpZef0RbTiOsl3um-16" value="telephone (string)" style="shape=partialRectangle;connectable=0;fillColor=none;top=0;left=0;bottom=0;right=0;align=left;spacingLeft=6;overflow=hidden;whiteSpace=wrap;html=1;" vertex="1" parent="Q5zIUpZef0RbTiOsl3um-14">
          <mxGeometry x="30" width="150" height="30" as="geometry">
            <mxRectangle width="150" height="30" as="alternateBounds" />
          </mxGeometry>
        </mxCell>
        <mxCell id="Q5zIUpZef0RbTiOsl3um-17" value="" style="shape=tableRow;horizontal=0;startSize=0;swimlaneHead=0;swimlaneBody=0;fillColor=none;collapsible=0;dropTarget=0;points=[[0,0.5],[1,0.5]];portConstraint=eastwest;top=0;left=0;right=0;bottom=0;" vertex="1" parent="Q5zIUpZef0RbTiOsl3um-1">
          <mxGeometry y="180" width="180" height="30" as="geometry" />
        </mxCell>
        <mxCell id="Q5zIUpZef0RbTiOsl3um-18" value="" style="shape=partialRectangle;connectable=0;fillColor=none;top=0;left=0;bottom=0;right=0;editable=1;overflow=hidden;whiteSpace=wrap;html=1;" vertex="1" parent="Q5zIUpZef0RbTiOsl3um-17">
          <mxGeometry width="30" height="30" as="geometry">
            <mxRectangle width="30" height="30" as="alternateBounds" />
          </mxGeometry>
        </mxCell>
        <mxCell id="Q5zIUpZef0RbTiOsl3um-19" value="status (string)" style="shape=partialRectangle;connectable=0;fillColor=none;top=0;left=0;bottom=0;right=0;align=left;spacingLeft=6;overflow=hidden;whiteSpace=wrap;html=1;" vertex="1" parent="Q5zIUpZef0RbTiOsl3um-17">
          <mxGeometry x="30" width="150" height="30" as="geometry">
            <mxRectangle width="150" height="30" as="alternateBounds" />
          </mxGeometry>
        </mxCell>
        <mxCell id="Q5zIUpZef0RbTiOsl3um-39" value="" style="shape=tableRow;horizontal=0;startSize=0;swimlaneHead=0;swimlaneBody=0;fillColor=none;collapsible=0;dropTarget=0;points=[[0,0.5],[1,0.5]];portConstraint=eastwest;top=0;left=0;right=0;bottom=0;" vertex="1" parent="Q5zIUpZef0RbTiOsl3um-1">
          <mxGeometry y="210" width="180" height="30" as="geometry" />
        </mxCell>
        <mxCell id="Q5zIUpZef0RbTiOsl3um-40" value="" style="shape=partialRectangle;connectable=0;fillColor=none;top=0;left=0;bottom=0;right=0;editable=1;overflow=hidden;whiteSpace=wrap;html=1;" vertex="1" parent="Q5zIUpZef0RbTiOsl3um-39">
          <mxGeometry width="30" height="30" as="geometry">
            <mxRectangle width="30" height="30" as="alternateBounds" />
          </mxGeometry>
        </mxCell>
        <mxCell id="Q5zIUpZef0RbTiOsl3um-41" value="requested_amount (string)" style="shape=partialRectangle;connectable=0;fillColor=none;top=0;left=0;bottom=0;right=0;align=left;spacingLeft=6;overflow=hidden;whiteSpace=wrap;html=1;" vertex="1" parent="Q5zIUpZef0RbTiOsl3um-39">
          <mxGeometry x="30" width="150" height="30" as="geometry">
            <mxRectangle width="150" height="30" as="alternateBounds" />
          </mxGeometry>
        </mxCell>
        <mxCell id="Q5zIUpZef0RbTiOsl3um-42" value="" style="shape=tableRow;horizontal=0;startSize=0;swimlaneHead=0;swimlaneBody=0;fillColor=none;collapsible=0;dropTarget=0;points=[[0,0.5],[1,0.5]];portConstraint=eastwest;top=0;left=0;right=0;bottom=0;" vertex="1" parent="Q5zIUpZef0RbTiOsl3um-1">
          <mxGeometry y="240" width="180" height="30" as="geometry" />
        </mxCell>
        <mxCell id="Q5zIUpZef0RbTiOsl3um-43" value="" style="shape=partialRectangle;connectable=0;fillColor=none;top=0;left=0;bottom=0;right=0;editable=1;overflow=hidden;whiteSpace=wrap;html=1;" vertex="1" parent="Q5zIUpZef0RbTiOsl3um-42">
          <mxGeometry width="30" height="30" as="geometry">
            <mxRectangle width="30" height="30" as="alternateBounds" />
          </mxGeometry>
        </mxCell>
        <mxCell id="Q5zIUpZef0RbTiOsl3um-44" value="purpose (string)" style="shape=partialRectangle;connectable=0;fillColor=none;top=0;left=0;bottom=0;right=0;align=left;spacingLeft=6;overflow=hidden;whiteSpace=wrap;html=1;" vertex="1" parent="Q5zIUpZef0RbTiOsl3um-42">
          <mxGeometry x="30" width="150" height="30" as="geometry">
            <mxRectangle width="150" height="30" as="alternateBounds" />
          </mxGeometry>
        </mxCell>
        <mxCell id="Q5zIUpZef0RbTiOsl3um-45" value="" style="shape=tableRow;horizontal=0;startSize=0;swimlaneHead=0;swimlaneBody=0;fillColor=none;collapsible=0;dropTarget=0;points=[[0,0.5],[1,0.5]];portConstraint=eastwest;top=0;left=0;right=0;bottom=0;" vertex="1" parent="Q5zIUpZef0RbTiOsl3um-1">
          <mxGeometry y="270" width="180" height="30" as="geometry" />
        </mxCell>
        <mxCell id="Q5zIUpZef0RbTiOsl3um-46" value="" style="shape=partialRectangle;connectable=0;fillColor=none;top=0;left=0;bottom=0;right=0;editable=1;overflow=hidden;whiteSpace=wrap;html=1;" vertex="1" parent="Q5zIUpZef0RbTiOsl3um-45">
          <mxGeometry width="30" height="30" as="geometry">
            <mxRectangle width="30" height="30" as="alternateBounds" />
          </mxGeometry>
        </mxCell>
        <mxCell id="Q5zIUpZef0RbTiOsl3um-47" value="credit_duration (int)" style="shape=partialRectangle;connectable=0;fillColor=none;top=0;left=0;bottom=0;right=0;align=left;spacingLeft=6;overflow=hidden;whiteSpace=wrap;html=1;" vertex="1" parent="Q5zIUpZef0RbTiOsl3um-45">
          <mxGeometry x="30" width="150" height="30" as="geometry">
            <mxRectangle width="150" height="30" as="alternateBounds" />
          </mxGeometry>
        </mxCell>
        <mxCell id="Q5zIUpZef0RbTiOsl3um-48" value="" style="shape=tableRow;horizontal=0;startSize=0;swimlaneHead=0;swimlaneBody=0;fillColor=none;collapsible=0;dropTarget=0;points=[[0,0.5],[1,0.5]];portConstraint=eastwest;top=0;left=0;right=0;bottom=0;" vertex="1" parent="Q5zIUpZef0RbTiOsl3um-1">
          <mxGeometry y="300" width="180" height="30" as="geometry" />
        </mxCell>
        <mxCell id="Q5zIUpZef0RbTiOsl3um-49" value="" style="shape=partialRectangle;connectable=0;fillColor=none;top=0;left=0;bottom=0;right=0;editable=1;overflow=hidden;whiteSpace=wrap;html=1;" vertex="1" parent="Q5zIUpZef0RbTiOsl3um-48">
          <mxGeometry width="30" height="30" as="geometry">
            <mxRectangle width="30" height="30" as="alternateBounds" />
          </mxGeometry>
        </mxCell>
        <mxCell id="Q5zIUpZef0RbTiOsl3um-50" value="notes" style="shape=partialRectangle;connectable=0;fillColor=none;top=0;left=0;bottom=0;right=0;align=left;spacingLeft=6;overflow=hidden;whiteSpace=wrap;html=1;" vertex="1" parent="Q5zIUpZef0RbTiOsl3um-48">
          <mxGeometry x="30" width="150" height="30" as="geometry">
            <mxRectangle width="150" height="30" as="alternateBounds" />
          </mxGeometry>
        </mxCell>
        <mxCell id="5S27-Js8zjE9cuL5HpX0-1" value="application_approvals" style="shape=table;startSize=30;container=1;collapsible=1;childLayout=tableLayout;fixedRows=1;rowLines=0;fontStyle=1;align=center;resizeLast=1;html=1;" vertex="1" parent="1">
          <mxGeometry x="530" y="140" width="180" height="300" as="geometry" />
        </mxCell>
        <mxCell id="5S27-Js8zjE9cuL5HpX0-2" value="" style="shape=tableRow;horizontal=0;startSize=0;swimlaneHead=0;swimlaneBody=0;fillColor=none;collapsible=0;dropTarget=0;points=[[0,0.5],[1,0.5]];portConstraint=eastwest;top=0;left=0;right=0;bottom=1;" vertex="1" parent="5S27-Js8zjE9cuL5HpX0-1">
          <mxGeometry y="30" width="180" height="30" as="geometry" />
        </mxCell>
        <mxCell id="5S27-Js8zjE9cuL5HpX0-3" value="PK" style="shape=partialRectangle;connectable=0;fillColor=none;top=0;left=0;bottom=0;right=0;fontStyle=1;overflow=hidden;whiteSpace=wrap;html=1;" vertex="1" parent="5S27-Js8zjE9cuL5HpX0-2">
          <mxGeometry width="30" height="30" as="geometry">
            <mxRectangle width="30" height="30" as="alternateBounds" />
          </mxGeometry>
        </mxCell>
        <mxCell id="5S27-Js8zjE9cuL5HpX0-4" value="id: uuid" style="shape=partialRectangle;connectable=0;fillColor=none;top=0;left=0;bottom=0;right=0;align=left;spacingLeft=6;fontStyle=5;overflow=hidden;whiteSpace=wrap;html=1;" vertex="1" parent="5S27-Js8zjE9cuL5HpX0-2">
          <mxGeometry x="30" width="150" height="30" as="geometry">
            <mxRectangle width="150" height="30" as="alternateBounds" />
          </mxGeometry>
        </mxCell>
        <mxCell id="5S27-Js8zjE9cuL5HpX0-5" value="" style="shape=tableRow;horizontal=0;startSize=0;swimlaneHead=0;swimlaneBody=0;fillColor=none;collapsible=0;dropTarget=0;points=[[0,0.5],[1,0.5]];portConstraint=eastwest;top=0;left=0;right=0;bottom=0;" vertex="1" parent="5S27-Js8zjE9cuL5HpX0-1">
          <mxGeometry y="60" width="180" height="30" as="geometry" />
        </mxCell>
        <mxCell id="5S27-Js8zjE9cuL5HpX0-6" value="FK" style="shape=partialRectangle;connectable=0;fillColor=none;top=0;left=0;bottom=0;right=0;editable=1;overflow=hidden;whiteSpace=wrap;html=1;" vertex="1" parent="5S27-Js8zjE9cuL5HpX0-5">
          <mxGeometry width="30" height="30" as="geometry">
            <mxRectangle width="30" height="30" as="alternateBounds" />
          </mxGeometry>
        </mxCell>
        <mxCell id="5S27-Js8zjE9cuL5HpX0-7" value="credit_application_id: uuid" style="shape=partialRectangle;connectable=0;fillColor=none;top=0;left=0;bottom=0;right=0;align=left;spacingLeft=6;overflow=hidden;whiteSpace=wrap;html=1;" vertex="1" parent="5S27-Js8zjE9cuL5HpX0-5">
          <mxGeometry x="30" width="150" height="30" as="geometry">
            <mxRectangle width="150" height="30" as="alternateBounds" />
          </mxGeometry>
        </mxCell>
        <mxCell id="5S27-Js8zjE9cuL5HpX0-8" value="" style="shape=tableRow;horizontal=0;startSize=0;swimlaneHead=0;swimlaneBody=0;fillColor=none;collapsible=0;dropTarget=0;points=[[0,0.5],[1,0.5]];portConstraint=eastwest;top=0;left=0;right=0;bottom=0;" vertex="1" parent="5S27-Js8zjE9cuL5HpX0-1">
          <mxGeometry y="90" width="180" height="30" as="geometry" />
        </mxCell>
        <mxCell id="5S27-Js8zjE9cuL5HpX0-9" value="" style="shape=partialRectangle;connectable=0;fillColor=none;top=0;left=0;bottom=0;right=0;editable=1;overflow=hidden;whiteSpace=wrap;html=1;" vertex="1" parent="5S27-Js8zjE9cuL5HpX0-8">
          <mxGeometry width="30" height="30" as="geometry">
            <mxRectangle width="30" height="30" as="alternateBounds" />
          </mxGeometry>
        </mxCell>
        <mxCell id="5S27-Js8zjE9cuL5HpX0-10" value="status: string" style="shape=partialRectangle;connectable=0;fillColor=none;top=0;left=0;bottom=0;right=0;align=left;spacingLeft=6;overflow=hidden;whiteSpace=wrap;html=1;" vertex="1" parent="5S27-Js8zjE9cuL5HpX0-8">
          <mxGeometry x="30" width="150" height="30" as="geometry">
            <mxRectangle width="150" height="30" as="alternateBounds" />
          </mxGeometry>
        </mxCell>
        <mxCell id="5S27-Js8zjE9cuL5HpX0-11" value="" style="shape=tableRow;horizontal=0;startSize=0;swimlaneHead=0;swimlaneBody=0;fillColor=none;collapsible=0;dropTarget=0;points=[[0,0.5],[1,0.5]];portConstraint=eastwest;top=0;left=0;right=0;bottom=0;" vertex="1" parent="5S27-Js8zjE9cuL5HpX0-1">
          <mxGeometry y="120" width="180" height="30" as="geometry" />
        </mxCell>
        <mxCell id="5S27-Js8zjE9cuL5HpX0-12" value="" style="shape=partialRectangle;connectable=0;fillColor=none;top=0;left=0;bottom=0;right=0;editable=1;overflow=hidden;whiteSpace=wrap;html=1;" vertex="1" parent="5S27-Js8zjE9cuL5HpX0-11">
          <mxGeometry width="30" height="30" as="geometry">
            <mxRectangle width="30" height="30" as="alternateBounds" />
          </mxGeometry>
        </mxCell>
        <mxCell id="5S27-Js8zjE9cuL5HpX0-13" value="loan_period: integer" style="shape=partialRectangle;connectable=0;fillColor=none;top=0;left=0;bottom=0;right=0;align=left;spacingLeft=6;overflow=hidden;whiteSpace=wrap;html=1;" vertex="1" parent="5S27-Js8zjE9cuL5HpX0-11">
          <mxGeometry x="30" width="150" height="30" as="geometry">
            <mxRectangle width="150" height="30" as="alternateBounds" />
          </mxGeometry>
        </mxCell>
        <mxCell id="5S27-Js8zjE9cuL5HpX0-14" value="" style="shape=tableRow;horizontal=0;startSize=0;swimlaneHead=0;swimlaneBody=0;fillColor=none;collapsible=0;dropTarget=0;points=[[0,0.5],[1,0.5]];portConstraint=eastwest;top=0;left=0;right=0;bottom=0;" vertex="1" parent="5S27-Js8zjE9cuL5HpX0-1">
          <mxGeometry y="150" width="180" height="30" as="geometry" />
        </mxCell>
        <mxCell id="5S27-Js8zjE9cuL5HpX0-15" value="" style="shape=partialRectangle;connectable=0;fillColor=none;top=0;left=0;bottom=0;right=0;editable=1;overflow=hidden;whiteSpace=wrap;html=1;" vertex="1" parent="5S27-Js8zjE9cuL5HpX0-14">
          <mxGeometry width="30" height="30" as="geometry">
            <mxRectangle width="30" height="30" as="alternateBounds" />
          </mxGeometry>
        </mxCell>
        <mxCell id="5S27-Js8zjE9cuL5HpX0-16" value="collateral_value: float" style="shape=partialRectangle;connectable=0;fillColor=none;top=0;left=0;bottom=0;right=0;align=left;spacingLeft=6;overflow=hidden;whiteSpace=wrap;html=1;" vertex="1" parent="5S27-Js8zjE9cuL5HpX0-14">
          <mxGeometry x="30" width="150" height="30" as="geometry">
            <mxRectangle width="150" height="30" as="alternateBounds" />
          </mxGeometry>
        </mxCell>
        <mxCell id="5S27-Js8zjE9cuL5HpX0-17" value="" style="shape=tableRow;horizontal=0;startSize=0;swimlaneHead=0;swimlaneBody=0;fillColor=none;collapsible=0;dropTarget=0;points=[[0,0.5],[1,0.5]];portConstraint=eastwest;top=0;left=0;right=0;bottom=0;" vertex="1" parent="5S27-Js8zjE9cuL5HpX0-1">
          <mxGeometry y="180" width="180" height="30" as="geometry" />
        </mxCell>
        <mxCell id="5S27-Js8zjE9cuL5HpX0-18" value="" style="shape=partialRectangle;connectable=0;fillColor=none;top=0;left=0;bottom=0;right=0;editable=1;overflow=hidden;whiteSpace=wrap;html=1;" vertex="1" parent="5S27-Js8zjE9cuL5HpX0-17">
          <mxGeometry width="30" height="30" as="geometry">
            <mxRectangle width="30" height="30" as="alternateBounds" />
          </mxGeometry>
        </mxCell>
        <mxCell id="5S27-Js8zjE9cuL5HpX0-19" value="approved_loan_amount: float" style="shape=partialRectangle;connectable=0;fillColor=none;top=0;left=0;bottom=0;right=0;align=left;spacingLeft=6;overflow=hidden;whiteSpace=wrap;html=1;" vertex="1" parent="5S27-Js8zjE9cuL5HpX0-17">
          <mxGeometry x="30" width="150" height="30" as="geometry">
            <mxRectangle width="150" height="30" as="alternateBounds" />
          </mxGeometry>
        </mxCell>
        <mxCell id="5S27-Js8zjE9cuL5HpX0-20" value="" style="shape=tableRow;horizontal=0;startSize=0;swimlaneHead=0;swimlaneBody=0;fillColor=none;collapsible=0;dropTarget=0;points=[[0,0.5],[1,0.5]];portConstraint=eastwest;top=0;left=0;right=0;bottom=0;" vertex="1" parent="5S27-Js8zjE9cuL5HpX0-1">
          <mxGeometry y="210" width="180" height="30" as="geometry" />
        </mxCell>
        <mxCell id="5S27-Js8zjE9cuL5HpX0-21" value="" style="shape=partialRectangle;connectable=0;fillColor=none;top=0;left=0;bottom=0;right=0;editable=1;overflow=hidden;whiteSpace=wrap;html=1;" vertex="1" parent="5S27-Js8zjE9cuL5HpX0-20">
          <mxGeometry width="30" height="30" as="geometry">
            <mxRectangle width="30" height="30" as="alternateBounds" />
          </mxGeometry>
        </mxCell>
        <mxCell id="5S27-Js8zjE9cuL5HpX0-22" value="loan_interest_pct: float" style="shape=partialRectangle;connectable=0;fillColor=none;top=0;left=0;bottom=0;right=0;align=left;spacingLeft=6;overflow=hidden;whiteSpace=wrap;html=1;" vertex="1" parent="5S27-Js8zjE9cuL5HpX0-20">
          <mxGeometry x="30" width="150" height="30" as="geometry">
            <mxRectangle width="150" height="30" as="alternateBounds" />
          </mxGeometry>
        </mxCell>
        <mxCell id="5S27-Js8zjE9cuL5HpX0-23" value="" style="shape=tableRow;horizontal=0;startSize=0;swimlaneHead=0;swimlaneBody=0;fillColor=none;collapsible=0;dropTarget=0;points=[[0,0.5],[1,0.5]];portConstraint=eastwest;top=0;left=0;right=0;bottom=0;" vertex="1" parent="5S27-Js8zjE9cuL5HpX0-1">
          <mxGeometry y="240" width="180" height="30" as="geometry" />
        </mxCell>
        <mxCell id="5S27-Js8zjE9cuL5HpX0-24" value="" style="shape=partialRectangle;connectable=0;fillColor=none;top=0;left=0;bottom=0;right=0;editable=1;overflow=hidden;whiteSpace=wrap;html=1;" vertex="1" parent="5S27-Js8zjE9cuL5HpX0-23">
          <mxGeometry width="30" height="30" as="geometry">
            <mxRectangle width="30" height="30" as="alternateBounds" />
          </mxGeometry>
        </mxCell>
        <mxCell id="5S27-Js8zjE9cuL5HpX0-25" value="loan_interest_type: string" style="shape=partialRectangle;connectable=0;fillColor=none;top=0;left=0;bottom=0;right=0;align=left;spacingLeft=6;overflow=hidden;whiteSpace=wrap;html=1;" vertex="1" parent="5S27-Js8zjE9cuL5HpX0-23">
          <mxGeometry x="30" width="150" height="30" as="geometry">
            <mxRectangle width="150" height="30" as="alternateBounds" />
          </mxGeometry>
        </mxCell>
        <mxCell id="dxGmpXsbxTn3v0M72mMc-1" value="" style="shape=tableRow;horizontal=0;startSize=0;swimlaneHead=0;swimlaneBody=0;fillColor=none;collapsible=0;dropTarget=0;points=[[0,0.5],[1,0.5]];portConstraint=eastwest;top=0;left=0;right=0;bottom=0;" vertex="1" parent="5S27-Js8zjE9cuL5HpX0-1">
          <mxGeometry y="270" width="180" height="30" as="geometry" />
        </mxCell>
        <mxCell id="dxGmpXsbxTn3v0M72mMc-2" value="" style="shape=partialRectangle;connectable=0;fillColor=none;top=0;left=0;bottom=0;right=0;editable=1;overflow=hidden;whiteSpace=wrap;html=1;" vertex="1" parent="dxGmpXsbxTn3v0M72mMc-1">
          <mxGeometry width="30" height="30" as="geometry">
            <mxRectangle width="30" height="30" as="alternateBounds" />
          </mxGeometry>
        </mxCell>
        <mxCell id="dxGmpXsbxTn3v0M72mMc-3" value="late_charge_fee" style="shape=partialRectangle;connectable=0;fillColor=none;top=0;left=0;bottom=0;right=0;align=left;spacingLeft=6;overflow=hidden;whiteSpace=wrap;html=1;" vertex="1" parent="dxGmpXsbxTn3v0M72mMc-1">
          <mxGeometry x="30" width="150" height="30" as="geometry">
            <mxRectangle width="150" height="30" as="alternateBounds" />
          </mxGeometry>
        </mxCell>
        <mxCell id="5S27-Js8zjE9cuL5HpX0-51" value="application_transactions" style="shape=table;startSize=30;container=1;collapsible=1;childLayout=tableLayout;fixedRows=1;rowLines=0;fontStyle=1;align=center;resizeLast=1;html=1;" vertex="1" parent="1">
          <mxGeometry x="810" y="65" width="180" height="420" as="geometry" />
        </mxCell>
        <mxCell id="5S27-Js8zjE9cuL5HpX0-52" value="" style="shape=tableRow;horizontal=0;startSize=0;swimlaneHead=0;swimlaneBody=0;fillColor=none;collapsible=0;dropTarget=0;points=[[0,0.5],[1,0.5]];portConstraint=eastwest;top=0;left=0;right=0;bottom=1;" vertex="1" parent="5S27-Js8zjE9cuL5HpX0-51">
          <mxGeometry y="30" width="180" height="30" as="geometry" />
        </mxCell>
        <mxCell id="5S27-Js8zjE9cuL5HpX0-53" value="PK" style="shape=partialRectangle;connectable=0;fillColor=none;top=0;left=0;bottom=0;right=0;fontStyle=1;overflow=hidden;whiteSpace=wrap;html=1;" vertex="1" parent="5S27-Js8zjE9cuL5HpX0-52">
          <mxGeometry width="30" height="30" as="geometry">
            <mxRectangle width="30" height="30" as="alternateBounds" />
          </mxGeometry>
        </mxCell>
        <mxCell id="5S27-Js8zjE9cuL5HpX0-54" value="id: uuid" style="shape=partialRectangle;connectable=0;fillColor=none;top=0;left=0;bottom=0;right=0;align=left;spacingLeft=6;fontStyle=5;overflow=hidden;whiteSpace=wrap;html=1;" vertex="1" parent="5S27-Js8zjE9cuL5HpX0-52">
          <mxGeometry x="30" width="150" height="30" as="geometry">
            <mxRectangle width="150" height="30" as="alternateBounds" />
          </mxGeometry>
        </mxCell>
        <mxCell id="5S27-Js8zjE9cuL5HpX0-55" value="" style="shape=tableRow;horizontal=0;startSize=0;swimlaneHead=0;swimlaneBody=0;fillColor=none;collapsible=0;dropTarget=0;points=[[0,0.5],[1,0.5]];portConstraint=eastwest;top=0;left=0;right=0;bottom=0;" vertex="1" parent="5S27-Js8zjE9cuL5HpX0-51">
          <mxGeometry y="60" width="180" height="30" as="geometry" />
        </mxCell>
        <mxCell id="5S27-Js8zjE9cuL5HpX0-56" value="FK" style="shape=partialRectangle;connectable=0;fillColor=none;top=0;left=0;bottom=0;right=0;editable=1;overflow=hidden;whiteSpace=wrap;html=1;" vertex="1" parent="5S27-Js8zjE9cuL5HpX0-55">
          <mxGeometry width="30" height="30" as="geometry">
            <mxRectangle width="30" height="30" as="alternateBounds" />
          </mxGeometry>
        </mxCell>
        <mxCell id="5S27-Js8zjE9cuL5HpX0-57" value="application_approval_id: uuid" style="shape=partialRectangle;connectable=0;fillColor=none;top=0;left=0;bottom=0;right=0;align=left;spacingLeft=6;overflow=hidden;whiteSpace=wrap;html=1;" vertex="1" parent="5S27-Js8zjE9cuL5HpX0-55">
          <mxGeometry x="30" width="150" height="30" as="geometry">
            <mxRectangle width="150" height="30" as="alternateBounds" />
          </mxGeometry>
        </mxCell>
        <mxCell id="5S27-Js8zjE9cuL5HpX0-58" value="" style="shape=tableRow;horizontal=0;startSize=0;swimlaneHead=0;swimlaneBody=0;fillColor=none;collapsible=0;dropTarget=0;points=[[0,0.5],[1,0.5]];portConstraint=eastwest;top=0;left=0;right=0;bottom=0;" vertex="1" parent="5S27-Js8zjE9cuL5HpX0-51">
          <mxGeometry y="90" width="180" height="30" as="geometry" />
        </mxCell>
        <mxCell id="5S27-Js8zjE9cuL5HpX0-59" value="" style="shape=partialRectangle;connectable=0;fillColor=none;top=0;left=0;bottom=0;right=0;editable=1;overflow=hidden;whiteSpace=wrap;html=1;" vertex="1" parent="5S27-Js8zjE9cuL5HpX0-58">
          <mxGeometry width="30" height="30" as="geometry">
            <mxRectangle width="30" height="30" as="alternateBounds" />
          </mxGeometry>
        </mxCell>
        <mxCell id="5S27-Js8zjE9cuL5HpX0-60" value="credit_transaction_id: int" style="shape=partialRectangle;connectable=0;fillColor=none;top=0;left=0;bottom=0;right=0;align=left;spacingLeft=6;overflow=hidden;whiteSpace=wrap;html=1;" vertex="1" parent="5S27-Js8zjE9cuL5HpX0-58">
          <mxGeometry x="30" width="150" height="30" as="geometry">
            <mxRectangle width="150" height="30" as="alternateBounds" />
          </mxGeometry>
        </mxCell>
        <mxCell id="5S27-Js8zjE9cuL5HpX0-61" value="" style="shape=tableRow;horizontal=0;startSize=0;swimlaneHead=0;swimlaneBody=0;fillColor=none;collapsible=0;dropTarget=0;points=[[0,0.5],[1,0.5]];portConstraint=eastwest;top=0;left=0;right=0;bottom=0;" vertex="1" parent="5S27-Js8zjE9cuL5HpX0-51">
          <mxGeometry y="120" width="180" height="30" as="geometry" />
        </mxCell>
        <mxCell id="5S27-Js8zjE9cuL5HpX0-62" value="" style="shape=partialRectangle;connectable=0;fillColor=none;top=0;left=0;bottom=0;right=0;editable=1;overflow=hidden;whiteSpace=wrap;html=1;" vertex="1" parent="5S27-Js8zjE9cuL5HpX0-61">
          <mxGeometry width="30" height="30" as="geometry">
            <mxRectangle width="30" height="30" as="alternateBounds" />
          </mxGeometry>
        </mxCell>
        <mxCell id="5S27-Js8zjE9cuL5HpX0-63" value="name: string" style="shape=partialRectangle;connectable=0;fillColor=none;top=0;left=0;bottom=0;right=0;align=left;spacingLeft=6;overflow=hidden;whiteSpace=wrap;html=1;" vertex="1" parent="5S27-Js8zjE9cuL5HpX0-61">
          <mxGeometry x="30" width="150" height="30" as="geometry">
            <mxRectangle width="150" height="30" as="alternateBounds" />
          </mxGeometry>
        </mxCell>
        <mxCell id="5S27-Js8zjE9cuL5HpX0-64" value="" style="shape=tableRow;horizontal=0;startSize=0;swimlaneHead=0;swimlaneBody=0;fillColor=none;collapsible=0;dropTarget=0;points=[[0,0.5],[1,0.5]];portConstraint=eastwest;top=0;left=0;right=0;bottom=0;" vertex="1" parent="5S27-Js8zjE9cuL5HpX0-51">
          <mxGeometry y="150" width="180" height="30" as="geometry" />
        </mxCell>
        <mxCell id="5S27-Js8zjE9cuL5HpX0-65" value="" style="shape=partialRectangle;connectable=0;fillColor=none;top=0;left=0;bottom=0;right=0;editable=1;overflow=hidden;whiteSpace=wrap;html=1;" vertex="1" parent="5S27-Js8zjE9cuL5HpX0-64">
          <mxGeometry width="30" height="30" as="geometry">
            <mxRectangle width="30" height="30" as="alternateBounds" />
          </mxGeometry>
        </mxCell>
        <mxCell id="5S27-Js8zjE9cuL5HpX0-66" value="loan_amount: float" style="shape=partialRectangle;connectable=0;fillColor=none;top=0;left=0;bottom=0;right=0;align=left;spacingLeft=6;overflow=hidden;whiteSpace=wrap;html=1;" vertex="1" parent="5S27-Js8zjE9cuL5HpX0-64">
          <mxGeometry x="30" width="150" height="30" as="geometry">
            <mxRectangle width="150" height="30" as="alternateBounds" />
          </mxGeometry>
        </mxCell>
        <mxCell id="5S27-Js8zjE9cuL5HpX0-67" value="" style="shape=tableRow;horizontal=0;startSize=0;swimlaneHead=0;swimlaneBody=0;fillColor=none;collapsible=0;dropTarget=0;points=[[0,0.5],[1,0.5]];portConstraint=eastwest;top=0;left=0;right=0;bottom=0;" vertex="1" parent="5S27-Js8zjE9cuL5HpX0-51">
          <mxGeometry y="180" width="180" height="30" as="geometry" />
        </mxCell>
        <mxCell id="5S27-Js8zjE9cuL5HpX0-68" value="" style="shape=partialRectangle;connectable=0;fillColor=none;top=0;left=0;bottom=0;right=0;editable=1;overflow=hidden;whiteSpace=wrap;html=1;" vertex="1" parent="5S27-Js8zjE9cuL5HpX0-67">
          <mxGeometry width="30" height="30" as="geometry">
            <mxRectangle width="30" height="30" as="alternateBounds" />
          </mxGeometry>
        </mxCell>
        <mxCell id="5S27-Js8zjE9cuL5HpX0-69" value="loan_period: int" style="shape=partialRectangle;connectable=0;fillColor=none;top=0;left=0;bottom=0;right=0;align=left;spacingLeft=6;overflow=hidden;whiteSpace=wrap;html=1;" vertex="1" parent="5S27-Js8zjE9cuL5HpX0-67">
          <mxGeometry x="30" width="150" height="30" as="geometry">
            <mxRectangle width="150" height="30" as="alternateBounds" />
          </mxGeometry>
        </mxCell>
        <mxCell id="5S27-Js8zjE9cuL5HpX0-70" value="" style="shape=tableRow;horizontal=0;startSize=0;swimlaneHead=0;swimlaneBody=0;fillColor=none;collapsible=0;dropTarget=0;points=[[0,0.5],[1,0.5]];portConstraint=eastwest;top=0;left=0;right=0;bottom=0;" vertex="1" parent="5S27-Js8zjE9cuL5HpX0-51">
          <mxGeometry y="210" width="180" height="30" as="geometry" />
        </mxCell>
        <mxCell id="5S27-Js8zjE9cuL5HpX0-71" value="" style="shape=partialRectangle;connectable=0;fillColor=none;top=0;left=0;bottom=0;right=0;editable=1;overflow=hidden;whiteSpace=wrap;html=1;" vertex="1" parent="5S27-Js8zjE9cuL5HpX0-70">
          <mxGeometry width="30" height="30" as="geometry">
            <mxRectangle width="30" height="30" as="alternateBounds" />
          </mxGeometry>
        </mxCell>
        <mxCell id="5S27-Js8zjE9cuL5HpX0-72" value="interest_type: string" style="shape=partialRectangle;connectable=0;fillColor=none;top=0;left=0;bottom=0;right=0;align=left;spacingLeft=6;overflow=hidden;whiteSpace=wrap;html=1;" vertex="1" parent="5S27-Js8zjE9cuL5HpX0-70">
          <mxGeometry x="30" width="150" height="30" as="geometry">
            <mxRectangle width="150" height="30" as="alternateBounds" />
          </mxGeometry>
        </mxCell>
        <mxCell id="5S27-Js8zjE9cuL5HpX0-73" value="" style="shape=tableRow;horizontal=0;startSize=0;swimlaneHead=0;swimlaneBody=0;fillColor=none;collapsible=0;dropTarget=0;points=[[0,0.5],[1,0.5]];portConstraint=eastwest;top=0;left=0;right=0;bottom=0;" vertex="1" parent="5S27-Js8zjE9cuL5HpX0-51">
          <mxGeometry y="240" width="180" height="30" as="geometry" />
        </mxCell>
        <mxCell id="5S27-Js8zjE9cuL5HpX0-74" value="" style="shape=partialRectangle;connectable=0;fillColor=none;top=0;left=0;bottom=0;right=0;editable=1;overflow=hidden;whiteSpace=wrap;html=1;" vertex="1" parent="5S27-Js8zjE9cuL5HpX0-73">
          <mxGeometry width="30" height="30" as="geometry">
            <mxRectangle width="30" height="30" as="alternateBounds" />
          </mxGeometry>
        </mxCell>
        <mxCell id="5S27-Js8zjE9cuL5HpX0-75" value="interest_pct: float" style="shape=partialRectangle;connectable=0;fillColor=none;top=0;left=0;bottom=0;right=0;align=left;spacingLeft=6;overflow=hidden;whiteSpace=wrap;html=1;" vertex="1" parent="5S27-Js8zjE9cuL5HpX0-73">
          <mxGeometry x="30" width="150" height="30" as="geometry">
            <mxRectangle width="150" height="30" as="alternateBounds" />
          </mxGeometry>
        </mxCell>
        <mxCell id="5S27-Js8zjE9cuL5HpX0-76" value="" style="shape=tableRow;horizontal=0;startSize=0;swimlaneHead=0;swimlaneBody=0;fillColor=none;collapsible=0;dropTarget=0;points=[[0,0.5],[1,0.5]];portConstraint=eastwest;top=0;left=0;right=0;bottom=0;" vertex="1" parent="5S27-Js8zjE9cuL5HpX0-51">
          <mxGeometry y="270" width="180" height="30" as="geometry" />
        </mxCell>
        <mxCell id="5S27-Js8zjE9cuL5HpX0-77" value="" style="shape=partialRectangle;connectable=0;fillColor=none;top=0;left=0;bottom=0;right=0;editable=1;overflow=hidden;whiteSpace=wrap;html=1;" vertex="1" parent="5S27-Js8zjE9cuL5HpX0-76">
          <mxGeometry width="30" height="30" as="geometry">
            <mxRectangle width="30" height="30" as="alternateBounds" />
          </mxGeometry>
        </mxCell>
        <mxCell id="5S27-Js8zjE9cuL5HpX0-78" value="settlement_status: string" style="shape=partialRectangle;connectable=0;fillColor=none;top=0;left=0;bottom=0;right=0;align=left;spacingLeft=6;overflow=hidden;whiteSpace=wrap;html=1;" vertex="1" parent="5S27-Js8zjE9cuL5HpX0-76">
          <mxGeometry x="30" width="150" height="30" as="geometry">
            <mxRectangle width="150" height="30" as="alternateBounds" />
          </mxGeometry>
        </mxCell>
        <mxCell id="5S27-Js8zjE9cuL5HpX0-79" value="" style="shape=tableRow;horizontal=0;startSize=0;swimlaneHead=0;swimlaneBody=0;fillColor=none;collapsible=0;dropTarget=0;points=[[0,0.5],[1,0.5]];portConstraint=eastwest;top=0;left=0;right=0;bottom=0;" vertex="1" parent="5S27-Js8zjE9cuL5HpX0-51">
          <mxGeometry y="300" width="180" height="30" as="geometry" />
        </mxCell>
        <mxCell id="5S27-Js8zjE9cuL5HpX0-80" value="" style="shape=partialRectangle;connectable=0;fillColor=none;top=0;left=0;bottom=0;right=0;editable=1;overflow=hidden;whiteSpace=wrap;html=1;" vertex="1" parent="5S27-Js8zjE9cuL5HpX0-79">
          <mxGeometry width="30" height="30" as="geometry">
            <mxRectangle width="30" height="30" as="alternateBounds" />
          </mxGeometry>
        </mxCell>
        <mxCell id="5S27-Js8zjE9cuL5HpX0-81" value="invoice_day: int" style="shape=partialRectangle;connectable=0;fillColor=none;top=0;left=0;bottom=0;right=0;align=left;spacingLeft=6;overflow=hidden;whiteSpace=wrap;html=1;" vertex="1" parent="5S27-Js8zjE9cuL5HpX0-79">
          <mxGeometry x="30" width="150" height="30" as="geometry">
            <mxRectangle width="150" height="30" as="alternateBounds" />
          </mxGeometry>
        </mxCell>
        <mxCell id="5S27-Js8zjE9cuL5HpX0-82" value="" style="shape=tableRow;horizontal=0;startSize=0;swimlaneHead=0;swimlaneBody=0;fillColor=none;collapsible=0;dropTarget=0;points=[[0,0.5],[1,0.5]];portConstraint=eastwest;top=0;left=0;right=0;bottom=0;" vertex="1" parent="5S27-Js8zjE9cuL5HpX0-51">
          <mxGeometry y="330" width="180" height="30" as="geometry" />
        </mxCell>
        <mxCell id="5S27-Js8zjE9cuL5HpX0-83" value="" style="shape=partialRectangle;connectable=0;fillColor=none;top=0;left=0;bottom=0;right=0;editable=1;overflow=hidden;whiteSpace=wrap;html=1;" vertex="1" parent="5S27-Js8zjE9cuL5HpX0-82">
          <mxGeometry width="30" height="30" as="geometry">
            <mxRectangle width="30" height="30" as="alternateBounds" />
          </mxGeometry>
        </mxCell>
        <mxCell id="5S27-Js8zjE9cuL5HpX0-84" value="settlement_at: datetime" style="shape=partialRectangle;connectable=0;fillColor=none;top=0;left=0;bottom=0;right=0;align=left;spacingLeft=6;overflow=hidden;whiteSpace=wrap;html=1;" vertex="1" parent="5S27-Js8zjE9cuL5HpX0-82">
          <mxGeometry x="30" width="150" height="30" as="geometry">
            <mxRectangle width="150" height="30" as="alternateBounds" />
          </mxGeometry>
        </mxCell>
        <mxCell id="5S27-Js8zjE9cuL5HpX0-85" value="" style="shape=tableRow;horizontal=0;startSize=0;swimlaneHead=0;swimlaneBody=0;fillColor=none;collapsible=0;dropTarget=0;points=[[0,0.5],[1,0.5]];portConstraint=eastwest;top=0;left=0;right=0;bottom=0;" vertex="1" parent="5S27-Js8zjE9cuL5HpX0-51">
          <mxGeometry y="360" width="180" height="30" as="geometry" />
        </mxCell>
        <mxCell id="5S27-Js8zjE9cuL5HpX0-86" value="" style="shape=partialRectangle;connectable=0;fillColor=none;top=0;left=0;bottom=0;right=0;editable=1;overflow=hidden;whiteSpace=wrap;html=1;" vertex="1" parent="5S27-Js8zjE9cuL5HpX0-85">
          <mxGeometry width="30" height="30" as="geometry">
            <mxRectangle width="30" height="30" as="alternateBounds" />
          </mxGeometry>
        </mxCell>
        <mxCell id="5S27-Js8zjE9cuL5HpX0-87" value="daily_late_charge_pct: float" style="shape=partialRectangle;connectable=0;fillColor=none;top=0;left=0;bottom=0;right=0;align=left;spacingLeft=6;overflow=hidden;whiteSpace=wrap;html=1;" vertex="1" parent="5S27-Js8zjE9cuL5HpX0-85">
          <mxGeometry x="30" width="150" height="30" as="geometry">
            <mxRectangle width="150" height="30" as="alternateBounds" />
          </mxGeometry>
        </mxCell>
        <mxCell id="5S27-Js8zjE9cuL5HpX0-88" value="" style="shape=tableRow;horizontal=0;startSize=0;swimlaneHead=0;swimlaneBody=0;fillColor=none;collapsible=0;dropTarget=0;points=[[0,0.5],[1,0.5]];portConstraint=eastwest;top=0;left=0;right=0;bottom=0;" vertex="1" parent="5S27-Js8zjE9cuL5HpX0-51">
          <mxGeometry y="390" width="180" height="30" as="geometry" />
        </mxCell>
        <mxCell id="5S27-Js8zjE9cuL5HpX0-89" value="" style="shape=partialRectangle;connectable=0;fillColor=none;top=0;left=0;bottom=0;right=0;editable=1;overflow=hidden;whiteSpace=wrap;html=1;" vertex="1" parent="5S27-Js8zjE9cuL5HpX0-88">
          <mxGeometry width="30" height="30" as="geometry">
            <mxRectangle width="30" height="30" as="alternateBounds" />
          </mxGeometry>
        </mxCell>
        <mxCell id="5S27-Js8zjE9cuL5HpX0-90" value="repayment_penalty_pct: float" style="shape=partialRectangle;connectable=0;fillColor=none;top=0;left=0;bottom=0;right=0;align=left;spacingLeft=6;overflow=hidden;whiteSpace=wrap;html=1;" vertex="1" parent="5S27-Js8zjE9cuL5HpX0-88">
          <mxGeometry x="30" width="150" height="30" as="geometry">
            <mxRectangle width="150" height="30" as="alternateBounds" />
          </mxGeometry>
        </mxCell>
        <mxCell id="uTmb2rMHJGZ81UzrTRhr-1" value="files" style="shape=table;startSize=30;container=1;collapsible=1;childLayout=tableLayout;fixedRows=1;rowLines=0;fontStyle=1;align=center;resizeLast=1;html=1;" vertex="1" parent="1">
          <mxGeometry x="840" y="640" width="180" height="210" as="geometry" />
        </mxCell>
        <mxCell id="uTmb2rMHJGZ81UzrTRhr-2" value="" style="shape=tableRow;horizontal=0;startSize=0;swimlaneHead=0;swimlaneBody=0;fillColor=none;collapsible=0;dropTarget=0;points=[[0,0.5],[1,0.5]];portConstraint=eastwest;top=0;left=0;right=0;bottom=1;" vertex="1" parent="uTmb2rMHJGZ81UzrTRhr-1">
          <mxGeometry y="30" width="180" height="30" as="geometry" />
        </mxCell>
        <mxCell id="uTmb2rMHJGZ81UzrTRhr-3" value="PK" style="shape=partialRectangle;connectable=0;fillColor=none;top=0;left=0;bottom=0;right=0;fontStyle=1;overflow=hidden;whiteSpace=wrap;html=1;" vertex="1" parent="uTmb2rMHJGZ81UzrTRhr-2">
          <mxGeometry width="30" height="30" as="geometry">
            <mxRectangle width="30" height="30" as="alternateBounds" />
          </mxGeometry>
        </mxCell>
        <mxCell id="uTmb2rMHJGZ81UzrTRhr-4" value="id: uuid" style="shape=partialRectangle;connectable=0;fillColor=none;top=0;left=0;bottom=0;right=0;align=left;spacingLeft=6;fontStyle=5;overflow=hidden;whiteSpace=wrap;html=1;" vertex="1" parent="uTmb2rMHJGZ81UzrTRhr-2">
          <mxGeometry x="30" width="150" height="30" as="geometry">
            <mxRectangle width="150" height="30" as="alternateBounds" />
          </mxGeometry>
        </mxCell>
        <mxCell id="uTmb2rMHJGZ81UzrTRhr-5" value="" style="shape=tableRow;horizontal=0;startSize=0;swimlaneHead=0;swimlaneBody=0;fillColor=none;collapsible=0;dropTarget=0;points=[[0,0.5],[1,0.5]];portConstraint=eastwest;top=0;left=0;right=0;bottom=0;" vertex="1" parent="uTmb2rMHJGZ81UzrTRhr-1">
          <mxGeometry y="60" width="180" height="30" as="geometry" />
        </mxCell>
        <mxCell id="uTmb2rMHJGZ81UzrTRhr-6" value="C" style="shape=partialRectangle;connectable=0;fillColor=none;top=0;left=0;bottom=0;right=0;editable=1;overflow=hidden;whiteSpace=wrap;html=1;" vertex="1" parent="uTmb2rMHJGZ81UzrTRhr-5">
          <mxGeometry width="30" height="30" as="geometry">
            <mxRectangle width="30" height="30" as="alternateBounds" />
          </mxGeometry>
        </mxCell>
        <mxCell id="uTmb2rMHJGZ81UzrTRhr-7" value="reference_id: string" style="shape=partialRectangle;connectable=0;fillColor=none;top=0;left=0;bottom=0;right=0;align=left;spacingLeft=6;overflow=hidden;whiteSpace=wrap;html=1;" vertex="1" parent="uTmb2rMHJGZ81UzrTRhr-5">
          <mxGeometry x="30" width="150" height="30" as="geometry">
            <mxRectangle width="150" height="30" as="alternateBounds" />
          </mxGeometry>
        </mxCell>
        <mxCell id="uTmb2rMHJGZ81UzrTRhr-8" value="" style="shape=tableRow;horizontal=0;startSize=0;swimlaneHead=0;swimlaneBody=0;fillColor=none;collapsible=0;dropTarget=0;points=[[0,0.5],[1,0.5]];portConstraint=eastwest;top=0;left=0;right=0;bottom=0;" vertex="1" parent="uTmb2rMHJGZ81UzrTRhr-1">
          <mxGeometry y="90" width="180" height="30" as="geometry" />
        </mxCell>
        <mxCell id="uTmb2rMHJGZ81UzrTRhr-9" value="" style="shape=partialRectangle;connectable=0;fillColor=none;top=0;left=0;bottom=0;right=0;editable=1;overflow=hidden;whiteSpace=wrap;html=1;" vertex="1" parent="uTmb2rMHJGZ81UzrTRhr-8">
          <mxGeometry width="30" height="30" as="geometry">
            <mxRectangle width="30" height="30" as="alternateBounds" />
          </mxGeometry>
        </mxCell>
        <mxCell id="uTmb2rMHJGZ81UzrTRhr-10" value="reference_type: string" style="shape=partialRectangle;connectable=0;fillColor=none;top=0;left=0;bottom=0;right=0;align=left;spacingLeft=6;overflow=hidden;whiteSpace=wrap;html=1;" vertex="1" parent="uTmb2rMHJGZ81UzrTRhr-8">
          <mxGeometry x="30" width="150" height="30" as="geometry">
            <mxRectangle width="150" height="30" as="alternateBounds" />
          </mxGeometry>
        </mxCell>
        <mxCell id="uTmb2rMHJGZ81UzrTRhr-11" value="" style="shape=tableRow;horizontal=0;startSize=0;swimlaneHead=0;swimlaneBody=0;fillColor=none;collapsible=0;dropTarget=0;points=[[0,0.5],[1,0.5]];portConstraint=eastwest;top=0;left=0;right=0;bottom=0;" vertex="1" parent="uTmb2rMHJGZ81UzrTRhr-1">
          <mxGeometry y="120" width="180" height="30" as="geometry" />
        </mxCell>
        <mxCell id="uTmb2rMHJGZ81UzrTRhr-12" value="" style="shape=partialRectangle;connectable=0;fillColor=none;top=0;left=0;bottom=0;right=0;editable=1;overflow=hidden;whiteSpace=wrap;html=1;" vertex="1" parent="uTmb2rMHJGZ81UzrTRhr-11">
          <mxGeometry width="30" height="30" as="geometry">
            <mxRectangle width="30" height="30" as="alternateBounds" />
          </mxGeometry>
        </mxCell>
        <mxCell id="uTmb2rMHJGZ81UzrTRhr-13" value="type: string" style="shape=partialRectangle;connectable=0;fillColor=none;top=0;left=0;bottom=0;right=0;align=left;spacingLeft=6;overflow=hidden;whiteSpace=wrap;html=1;" vertex="1" parent="uTmb2rMHJGZ81UzrTRhr-11">
          <mxGeometry x="30" width="150" height="30" as="geometry">
            <mxRectangle width="150" height="30" as="alternateBounds" />
          </mxGeometry>
        </mxCell>
        <mxCell id="uTmb2rMHJGZ81UzrTRhr-14" value="" style="shape=tableRow;horizontal=0;startSize=0;swimlaneHead=0;swimlaneBody=0;fillColor=none;collapsible=0;dropTarget=0;points=[[0,0.5],[1,0.5]];portConstraint=eastwest;top=0;left=0;right=0;bottom=0;" vertex="1" parent="uTmb2rMHJGZ81UzrTRhr-1">
          <mxGeometry y="150" width="180" height="30" as="geometry" />
        </mxCell>
        <mxCell id="uTmb2rMHJGZ81UzrTRhr-15" value="" style="shape=partialRectangle;connectable=0;fillColor=none;top=0;left=0;bottom=0;right=0;editable=1;overflow=hidden;whiteSpace=wrap;html=1;" vertex="1" parent="uTmb2rMHJGZ81UzrTRhr-14">
          <mxGeometry width="30" height="30" as="geometry">
            <mxRectangle width="30" height="30" as="alternateBounds" />
          </mxGeometry>
        </mxCell>
        <mxCell id="uTmb2rMHJGZ81UzrTRhr-16" value="name: string" style="shape=partialRectangle;connectable=0;fillColor=none;top=0;left=0;bottom=0;right=0;align=left;spacingLeft=6;overflow=hidden;whiteSpace=wrap;html=1;" vertex="1" parent="uTmb2rMHJGZ81UzrTRhr-14">
          <mxGeometry x="30" width="150" height="30" as="geometry">
            <mxRectangle width="150" height="30" as="alternateBounds" />
          </mxGeometry>
        </mxCell>
        <mxCell id="uTmb2rMHJGZ81UzrTRhr-17" value="" style="shape=tableRow;horizontal=0;startSize=0;swimlaneHead=0;swimlaneBody=0;fillColor=none;collapsible=0;dropTarget=0;points=[[0,0.5],[1,0.5]];portConstraint=eastwest;top=0;left=0;right=0;bottom=0;" vertex="1" parent="uTmb2rMHJGZ81UzrTRhr-1">
          <mxGeometry y="180" width="180" height="30" as="geometry" />
        </mxCell>
        <mxCell id="uTmb2rMHJGZ81UzrTRhr-18" value="" style="shape=partialRectangle;connectable=0;fillColor=none;top=0;left=0;bottom=0;right=0;editable=1;overflow=hidden;whiteSpace=wrap;html=1;" vertex="1" parent="uTmb2rMHJGZ81UzrTRhr-17">
          <mxGeometry width="30" height="30" as="geometry">
            <mxRectangle width="30" height="30" as="alternateBounds" />
          </mxGeometry>
        </mxCell>
        <mxCell id="uTmb2rMHJGZ81UzrTRhr-19" value="file_path: string" style="shape=partialRectangle;connectable=0;fillColor=none;top=0;left=0;bottom=0;right=0;align=left;spacingLeft=6;overflow=hidden;whiteSpace=wrap;html=1;" vertex="1" parent="uTmb2rMHJGZ81UzrTRhr-17">
          <mxGeometry x="30" width="150" height="30" as="geometry">
            <mxRectangle width="150" height="30" as="alternateBounds" />
          </mxGeometry>
        </mxCell>
        <mxCell id="uTmb2rMHJGZ81UzrTRhr-89" value="" style="edgeStyle=orthogonalEdgeStyle;rounded=0;orthogonalLoop=1;jettySize=auto;html=1;endArrow=ERone;endFill=0;startArrow=ERzeroToMany;startFill=0;" edge="1" parent="1" source="uTmb2rMHJGZ81UzrTRhr-20" target="uTmb2rMHJGZ81UzrTRhr-1">
          <mxGeometry relative="1" as="geometry">
            <mxPoint x="1150" y="590" as="targetPoint" />
          </mxGeometry>
        </mxCell>
        <mxCell id="uTmb2rMHJGZ81UzrTRhr-20" value="file_details" style="shape=table;startSize=30;container=1;collapsible=1;childLayout=tableLayout;fixedRows=1;rowLines=0;fontStyle=1;align=center;resizeLast=1;html=1;" vertex="1" parent="1">
          <mxGeometry x="1110" y="670" width="180" height="150" as="geometry" />
        </mxCell>
        <mxCell id="uTmb2rMHJGZ81UzrTRhr-21" value="" style="shape=tableRow;horizontal=0;startSize=0;swimlaneHead=0;swimlaneBody=0;fillColor=none;collapsible=0;dropTarget=0;points=[[0,0.5],[1,0.5]];portConstraint=eastwest;top=0;left=0;right=0;bottom=1;" vertex="1" parent="uTmb2rMHJGZ81UzrTRhr-20">
          <mxGeometry y="30" width="180" height="30" as="geometry" />
        </mxCell>
        <mxCell id="uTmb2rMHJGZ81UzrTRhr-22" value="PK" style="shape=partialRectangle;connectable=0;fillColor=none;top=0;left=0;bottom=0;right=0;fontStyle=1;overflow=hidden;whiteSpace=wrap;html=1;" vertex="1" parent="uTmb2rMHJGZ81UzrTRhr-21">
          <mxGeometry width="30" height="30" as="geometry">
            <mxRectangle width="30" height="30" as="alternateBounds" />
          </mxGeometry>
        </mxCell>
        <mxCell id="uTmb2rMHJGZ81UzrTRhr-23" value="id: uuid" style="shape=partialRectangle;connectable=0;fillColor=none;top=0;left=0;bottom=0;right=0;align=left;spacingLeft=6;fontStyle=5;overflow=hidden;whiteSpace=wrap;html=1;" vertex="1" parent="uTmb2rMHJGZ81UzrTRhr-21">
          <mxGeometry x="30" width="150" height="30" as="geometry">
            <mxRectangle width="150" height="30" as="alternateBounds" />
          </mxGeometry>
        </mxCell>
        <mxCell id="uTmb2rMHJGZ81UzrTRhr-24" value="" style="shape=tableRow;horizontal=0;startSize=0;swimlaneHead=0;swimlaneBody=0;fillColor=none;collapsible=0;dropTarget=0;points=[[0,0.5],[1,0.5]];portConstraint=eastwest;top=0;left=0;right=0;bottom=0;" vertex="1" parent="uTmb2rMHJGZ81UzrTRhr-20">
          <mxGeometry y="60" width="180" height="30" as="geometry" />
        </mxCell>
        <mxCell id="uTmb2rMHJGZ81UzrTRhr-25" value="FK" style="shape=partialRectangle;connectable=0;fillColor=none;top=0;left=0;bottom=0;right=0;editable=1;overflow=hidden;whiteSpace=wrap;html=1;" vertex="1" parent="uTmb2rMHJGZ81UzrTRhr-24">
          <mxGeometry width="30" height="30" as="geometry">
            <mxRectangle width="30" height="30" as="alternateBounds" />
          </mxGeometry>
        </mxCell>
        <mxCell id="uTmb2rMHJGZ81UzrTRhr-26" value="file_id: uuid" style="shape=partialRectangle;connectable=0;fillColor=none;top=0;left=0;bottom=0;right=0;align=left;spacingLeft=6;overflow=hidden;whiteSpace=wrap;html=1;" vertex="1" parent="uTmb2rMHJGZ81UzrTRhr-24">
          <mxGeometry x="30" width="150" height="30" as="geometry">
            <mxRectangle width="150" height="30" as="alternateBounds" />
          </mxGeometry>
        </mxCell>
        <mxCell id="uTmb2rMHJGZ81UzrTRhr-27" value="" style="shape=tableRow;horizontal=0;startSize=0;swimlaneHead=0;swimlaneBody=0;fillColor=none;collapsible=0;dropTarget=0;points=[[0,0.5],[1,0.5]];portConstraint=eastwest;top=0;left=0;right=0;bottom=0;" vertex="1" parent="uTmb2rMHJGZ81UzrTRhr-20">
          <mxGeometry y="90" width="180" height="30" as="geometry" />
        </mxCell>
        <mxCell id="uTmb2rMHJGZ81UzrTRhr-28" value="" style="shape=partialRectangle;connectable=0;fillColor=none;top=0;left=0;bottom=0;right=0;editable=1;overflow=hidden;whiteSpace=wrap;html=1;" vertex="1" parent="uTmb2rMHJGZ81UzrTRhr-27">
          <mxGeometry width="30" height="30" as="geometry">
            <mxRectangle width="30" height="30" as="alternateBounds" />
          </mxGeometry>
        </mxCell>
        <mxCell id="uTmb2rMHJGZ81UzrTRhr-29" value="key: string" style="shape=partialRectangle;connectable=0;fillColor=none;top=0;left=0;bottom=0;right=0;align=left;spacingLeft=6;overflow=hidden;whiteSpace=wrap;html=1;" vertex="1" parent="uTmb2rMHJGZ81UzrTRhr-27">
          <mxGeometry x="30" width="150" height="30" as="geometry">
            <mxRectangle width="150" height="30" as="alternateBounds" />
          </mxGeometry>
        </mxCell>
        <mxCell id="uTmb2rMHJGZ81UzrTRhr-30" value="" style="shape=tableRow;horizontal=0;startSize=0;swimlaneHead=0;swimlaneBody=0;fillColor=none;collapsible=0;dropTarget=0;points=[[0,0.5],[1,0.5]];portConstraint=eastwest;top=0;left=0;right=0;bottom=0;" vertex="1" parent="uTmb2rMHJGZ81UzrTRhr-20">
          <mxGeometry y="120" width="180" height="30" as="geometry" />
        </mxCell>
        <mxCell id="uTmb2rMHJGZ81UzrTRhr-31" value="" style="shape=partialRectangle;connectable=0;fillColor=none;top=0;left=0;bottom=0;right=0;editable=1;overflow=hidden;whiteSpace=wrap;html=1;" vertex="1" parent="uTmb2rMHJGZ81UzrTRhr-30">
          <mxGeometry width="30" height="30" as="geometry">
            <mxRectangle width="30" height="30" as="alternateBounds" />
          </mxGeometry>
        </mxCell>
        <mxCell id="uTmb2rMHJGZ81UzrTRhr-32" value="value: string" style="shape=partialRectangle;connectable=0;fillColor=none;top=0;left=0;bottom=0;right=0;align=left;spacingLeft=6;overflow=hidden;whiteSpace=wrap;html=1;" vertex="1" parent="uTmb2rMHJGZ81UzrTRhr-30">
          <mxGeometry x="30" width="150" height="30" as="geometry">
            <mxRectangle width="150" height="30" as="alternateBounds" />
          </mxGeometry>
        </mxCell>
        <mxCell id="uTmb2rMHJGZ81UzrTRhr-90" value="" style="edgeStyle=orthogonalEdgeStyle;rounded=0;orthogonalLoop=1;jettySize=auto;html=1;endArrow=ERone;endFill=0;startArrow=ERzeroToMany;startFill=0;" edge="1" parent="1" source="5S27-Js8zjE9cuL5HpX0-1" target="Q5zIUpZef0RbTiOsl3um-1">
          <mxGeometry relative="1" as="geometry">
            <mxPoint x="470" y="330" as="sourcePoint" />
            <mxPoint x="470" y="260" as="targetPoint" />
          </mxGeometry>
        </mxCell>
        <mxCell id="uTmb2rMHJGZ81UzrTRhr-91" value="" style="edgeStyle=orthogonalEdgeStyle;rounded=0;orthogonalLoop=1;jettySize=auto;html=1;endArrow=ERone;endFill=0;startArrow=ERzeroToMany;startFill=0;" edge="1" parent="1" source="5S27-Js8zjE9cuL5HpX0-51" target="5S27-Js8zjE9cuL5HpX0-1">
          <mxGeometry relative="1" as="geometry">
            <mxPoint x="820" y="250" as="sourcePoint" />
            <mxPoint x="710" y="250" as="targetPoint" />
          </mxGeometry>
        </mxCell>
        <mxCell id="uTmb2rMHJGZ81UzrTRhr-92" value="" style="edgeStyle=orthogonalEdgeStyle;rounded=0;orthogonalLoop=1;jettySize=auto;html=1;endArrow=ERone;endFill=0;startArrow=ERzeroToMany;startFill=0;" edge="1" parent="1" source="uTmb2rMHJGZ81UzrTRhr-1" target="5S27-Js8zjE9cuL5HpX0-51">
          <mxGeometry relative="1" as="geometry">
            <mxPoint x="910" y="890" as="sourcePoint" />
            <mxPoint x="910" y="820" as="targetPoint" />
          </mxGeometry>
        </mxCell>
        <mxCell id="dxGmpXsbxTn3v0M72mMc-4" value="appraisal_request" style="shape=table;startSize=30;container=1;collapsible=1;childLayout=tableLayout;fixedRows=1;rowLines=0;fontStyle=1;align=center;resizeLast=1;html=1;" vertex="1" parent="1">
          <mxGeometry x="240" y="560" width="180" height="240" as="geometry" />
        </mxCell>
        <mxCell id="dxGmpXsbxTn3v0M72mMc-5" value="" style="shape=tableRow;horizontal=0;startSize=0;swimlaneHead=0;swimlaneBody=0;fillColor=none;collapsible=0;dropTarget=0;points=[[0,0.5],[1,0.5]];portConstraint=eastwest;top=0;left=0;right=0;bottom=1;" vertex="1" parent="dxGmpXsbxTn3v0M72mMc-4">
          <mxGeometry y="30" width="180" height="30" as="geometry" />
        </mxCell>
        <mxCell id="dxGmpXsbxTn3v0M72mMc-6" value="PK" style="shape=partialRectangle;connectable=0;fillColor=none;top=0;left=0;bottom=0;right=0;fontStyle=1;overflow=hidden;whiteSpace=wrap;html=1;" vertex="1" parent="dxGmpXsbxTn3v0M72mMc-5">
          <mxGeometry width="30" height="30" as="geometry">
            <mxRectangle width="30" height="30" as="alternateBounds" />
          </mxGeometry>
        </mxCell>
        <mxCell id="dxGmpXsbxTn3v0M72mMc-7" value="id: uuid" style="shape=partialRectangle;connectable=0;fillColor=none;top=0;left=0;bottom=0;right=0;align=left;spacingLeft=6;fontStyle=5;overflow=hidden;whiteSpace=wrap;html=1;" vertex="1" parent="dxGmpXsbxTn3v0M72mMc-5">
          <mxGeometry x="30" width="150" height="30" as="geometry">
            <mxRectangle width="150" height="30" as="alternateBounds" />
          </mxGeometry>
        </mxCell>
        <mxCell id="dxGmpXsbxTn3v0M72mMc-8" value="" style="shape=tableRow;horizontal=0;startSize=0;swimlaneHead=0;swimlaneBody=0;fillColor=none;collapsible=0;dropTarget=0;points=[[0,0.5],[1,0.5]];portConstraint=eastwest;top=0;left=0;right=0;bottom=0;" vertex="1" parent="dxGmpXsbxTn3v0M72mMc-4">
          <mxGeometry y="60" width="180" height="30" as="geometry" />
        </mxCell>
        <mxCell id="dxGmpXsbxTn3v0M72mMc-9" value="" style="shape=partialRectangle;connectable=0;fillColor=none;top=0;left=0;bottom=0;right=0;editable=1;overflow=hidden;whiteSpace=wrap;html=1;" vertex="1" parent="dxGmpXsbxTn3v0M72mMc-8">
          <mxGeometry width="30" height="30" as="geometry">
            <mxRectangle width="30" height="30" as="alternateBounds" />
          </mxGeometry>
        </mxCell>
        <mxCell id="dxGmpXsbxTn3v0M72mMc-10" value="credit_application_id: uuid" style="shape=partialRectangle;connectable=0;fillColor=none;top=0;left=0;bottom=0;right=0;align=left;spacingLeft=6;overflow=hidden;whiteSpace=wrap;html=1;" vertex="1" parent="dxGmpXsbxTn3v0M72mMc-8">
          <mxGeometry x="30" width="150" height="30" as="geometry">
            <mxRectangle width="150" height="30" as="alternateBounds" />
          </mxGeometry>
        </mxCell>
        <mxCell id="dxGmpXsbxTn3v0M72mMc-26" value="" style="shape=tableRow;horizontal=0;startSize=0;swimlaneHead=0;swimlaneBody=0;fillColor=none;collapsible=0;dropTarget=0;points=[[0,0.5],[1,0.5]];portConstraint=eastwest;top=0;left=0;right=0;bottom=0;" vertex="1" parent="dxGmpXsbxTn3v0M72mMc-4">
          <mxGeometry y="90" width="180" height="30" as="geometry" />
        </mxCell>
        <mxCell id="dxGmpXsbxTn3v0M72mMc-27" value="" style="shape=partialRectangle;connectable=0;fillColor=none;top=0;left=0;bottom=0;right=0;editable=1;overflow=hidden;whiteSpace=wrap;html=1;" vertex="1" parent="dxGmpXsbxTn3v0M72mMc-26">
          <mxGeometry width="30" height="30" as="geometry">
            <mxRectangle width="30" height="30" as="alternateBounds" />
          </mxGeometry>
        </mxCell>
        <mxCell id="dxGmpXsbxTn3v0M72mMc-28" value="letter_no: string" style="shape=partialRectangle;connectable=0;fillColor=none;top=0;left=0;bottom=0;right=0;align=left;spacingLeft=6;overflow=hidden;whiteSpace=wrap;html=1;" vertex="1" parent="dxGmpXsbxTn3v0M72mMc-26">
          <mxGeometry x="30" width="150" height="30" as="geometry">
            <mxRectangle width="150" height="30" as="alternateBounds" />
          </mxGeometry>
        </mxCell>
        <mxCell id="dxGmpXsbxTn3v0M72mMc-11" value="" style="shape=tableRow;horizontal=0;startSize=0;swimlaneHead=0;swimlaneBody=0;fillColor=none;collapsible=0;dropTarget=0;points=[[0,0.5],[1,0.5]];portConstraint=eastwest;top=0;left=0;right=0;bottom=0;" vertex="1" parent="dxGmpXsbxTn3v0M72mMc-4">
          <mxGeometry y="120" width="180" height="30" as="geometry" />
        </mxCell>
        <mxCell id="dxGmpXsbxTn3v0M72mMc-12" value="" style="shape=partialRectangle;connectable=0;fillColor=none;top=0;left=0;bottom=0;right=0;editable=1;overflow=hidden;whiteSpace=wrap;html=1;" vertex="1" parent="dxGmpXsbxTn3v0M72mMc-11">
          <mxGeometry width="30" height="30" as="geometry">
            <mxRectangle width="30" height="30" as="alternateBounds" />
          </mxGeometry>
        </mxCell>
        <mxCell id="dxGmpXsbxTn3v0M72mMc-13" value="request_date: date" style="shape=partialRectangle;connectable=0;fillColor=none;top=0;left=0;bottom=0;right=0;align=left;spacingLeft=6;overflow=hidden;whiteSpace=wrap;html=1;" vertex="1" parent="dxGmpXsbxTn3v0M72mMc-11">
          <mxGeometry x="30" width="150" height="30" as="geometry">
            <mxRectangle width="150" height="30" as="alternateBounds" />
          </mxGeometry>
        </mxCell>
        <mxCell id="dxGmpXsbxTn3v0M72mMc-14" value="" style="shape=tableRow;horizontal=0;startSize=0;swimlaneHead=0;swimlaneBody=0;fillColor=none;collapsible=0;dropTarget=0;points=[[0,0.5],[1,0.5]];portConstraint=eastwest;top=0;left=0;right=0;bottom=0;" vertex="1" parent="dxGmpXsbxTn3v0M72mMc-4">
          <mxGeometry y="150" width="180" height="30" as="geometry" />
        </mxCell>
        <mxCell id="dxGmpXsbxTn3v0M72mMc-15" value="" style="shape=partialRectangle;connectable=0;fillColor=none;top=0;left=0;bottom=0;right=0;editable=1;overflow=hidden;whiteSpace=wrap;html=1;" vertex="1" parent="dxGmpXsbxTn3v0M72mMc-14">
          <mxGeometry width="30" height="30" as="geometry">
            <mxRectangle width="30" height="30" as="alternateBounds" />
          </mxGeometry>
        </mxCell>
        <mxCell id="dxGmpXsbxTn3v0M72mMc-16" value="appraiser: string" style="shape=partialRectangle;connectable=0;fillColor=none;top=0;left=0;bottom=0;right=0;align=left;spacingLeft=6;overflow=hidden;whiteSpace=wrap;html=1;" vertex="1" parent="dxGmpXsbxTn3v0M72mMc-14">
          <mxGeometry x="30" width="150" height="30" as="geometry">
            <mxRectangle width="150" height="30" as="alternateBounds" />
          </mxGeometry>
        </mxCell>
        <mxCell id="dxGmpXsbxTn3v0M72mMc-17" value="" style="shape=tableRow;horizontal=0;startSize=0;swimlaneHead=0;swimlaneBody=0;fillColor=none;collapsible=0;dropTarget=0;points=[[0,0.5],[1,0.5]];portConstraint=eastwest;top=0;left=0;right=0;bottom=0;" vertex="1" parent="dxGmpXsbxTn3v0M72mMc-4">
          <mxGeometry y="180" width="180" height="30" as="geometry" />
        </mxCell>
        <mxCell id="dxGmpXsbxTn3v0M72mMc-18" value="" style="shape=partialRectangle;connectable=0;fillColor=none;top=0;left=0;bottom=0;right=0;editable=1;overflow=hidden;whiteSpace=wrap;html=1;" vertex="1" parent="dxGmpXsbxTn3v0M72mMc-17">
          <mxGeometry width="30" height="30" as="geometry">
            <mxRectangle width="30" height="30" as="alternateBounds" />
          </mxGeometry>
        </mxCell>
        <mxCell id="dxGmpXsbxTn3v0M72mMc-19" value="type: string" style="shape=partialRectangle;connectable=0;fillColor=none;top=0;left=0;bottom=0;right=0;align=left;spacingLeft=6;overflow=hidden;whiteSpace=wrap;html=1;" vertex="1" parent="dxGmpXsbxTn3v0M72mMc-17">
          <mxGeometry x="30" width="150" height="30" as="geometry">
            <mxRectangle width="150" height="30" as="alternateBounds" />
          </mxGeometry>
        </mxCell>
        <mxCell id="dxGmpXsbxTn3v0M72mMc-20" value="" style="shape=tableRow;horizontal=0;startSize=0;swimlaneHead=0;swimlaneBody=0;fillColor=none;collapsible=0;dropTarget=0;points=[[0,0.5],[1,0.5]];portConstraint=eastwest;top=0;left=0;right=0;bottom=0;" vertex="1" parent="dxGmpXsbxTn3v0M72mMc-4">
          <mxGeometry y="210" width="180" height="30" as="geometry" />
        </mxCell>
        <mxCell id="dxGmpXsbxTn3v0M72mMc-21" value="" style="shape=partialRectangle;connectable=0;fillColor=none;top=0;left=0;bottom=0;right=0;editable=1;overflow=hidden;whiteSpace=wrap;html=1;" vertex="1" parent="dxGmpXsbxTn3v0M72mMc-20">
          <mxGeometry width="30" height="30" as="geometry">
            <mxRectangle width="30" height="30" as="alternateBounds" />
          </mxGeometry>
        </mxCell>
        <mxCell id="dxGmpXsbxTn3v0M72mMc-22" value="data: jsonb" style="shape=partialRectangle;connectable=0;fillColor=none;top=0;left=0;bottom=0;right=0;align=left;spacingLeft=6;overflow=hidden;whiteSpace=wrap;html=1;" vertex="1" parent="dxGmpXsbxTn3v0M72mMc-20">
          <mxGeometry x="30" width="150" height="30" as="geometry">
            <mxRectangle width="150" height="30" as="alternateBounds" />
          </mxGeometry>
        </mxCell>
        <mxCell id="dxGmpXsbxTn3v0M72mMc-29" value="" style="edgeStyle=orthogonalEdgeStyle;rounded=0;orthogonalLoop=1;jettySize=auto;html=1;endArrow=ERone;endFill=0;startArrow=ERzeroToMany;startFill=0;" edge="1" parent="1" source="dxGmpXsbxTn3v0M72mMc-4" target="Q5zIUpZef0RbTiOsl3um-1">
          <mxGeometry relative="1" as="geometry">
            <mxPoint x="820" y="285" as="sourcePoint" />
            <mxPoint x="720" y="300" as="targetPoint" />
          </mxGeometry>
        </mxCell>
        <mxCell id="dxGmpXsbxTn3v0M72mMc-30" value="user_lock_schedules" style="shape=table;startSize=30;container=1;collapsible=1;childLayout=tableLayout;fixedRows=1;rowLines=0;fontStyle=1;align=center;resizeLast=1;html=1;" vertex="1" parent="1">
          <mxGeometry x="1350" y="65" width="180" height="240" as="geometry" />
        </mxCell>
        <mxCell id="dxGmpXsbxTn3v0M72mMc-31" value="" style="shape=tableRow;horizontal=0;startSize=0;swimlaneHead=0;swimlaneBody=0;fillColor=none;collapsible=0;dropTarget=0;points=[[0,0.5],[1,0.5]];portConstraint=eastwest;top=0;left=0;right=0;bottom=1;" vertex="1" parent="dxGmpXsbxTn3v0M72mMc-30">
          <mxGeometry y="30" width="180" height="30" as="geometry" />
        </mxCell>
        <mxCell id="dxGmpXsbxTn3v0M72mMc-32" value="PK" style="shape=partialRectangle;connectable=0;fillColor=none;top=0;left=0;bottom=0;right=0;fontStyle=1;overflow=hidden;whiteSpace=wrap;html=1;" vertex="1" parent="dxGmpXsbxTn3v0M72mMc-31">
          <mxGeometry width="30" height="30" as="geometry">
            <mxRectangle width="30" height="30" as="alternateBounds" />
          </mxGeometry>
        </mxCell>
        <mxCell id="dxGmpXsbxTn3v0M72mMc-33" value="id" style="shape=partialRectangle;connectable=0;fillColor=none;top=0;left=0;bottom=0;right=0;align=left;spacingLeft=6;fontStyle=5;overflow=hidden;whiteSpace=wrap;html=1;" vertex="1" parent="dxGmpXsbxTn3v0M72mMc-31">
          <mxGeometry x="30" width="150" height="30" as="geometry">
            <mxRectangle width="150" height="30" as="alternateBounds" />
          </mxGeometry>
        </mxCell>
        <mxCell id="dxGmpXsbxTn3v0M72mMc-34" value="" style="shape=tableRow;horizontal=0;startSize=0;swimlaneHead=0;swimlaneBody=0;fillColor=none;collapsible=0;dropTarget=0;points=[[0,0.5],[1,0.5]];portConstraint=eastwest;top=0;left=0;right=0;bottom=0;" vertex="1" parent="dxGmpXsbxTn3v0M72mMc-30">
          <mxGeometry y="60" width="180" height="30" as="geometry" />
        </mxCell>
        <mxCell id="dxGmpXsbxTn3v0M72mMc-35" value="" style="shape=partialRectangle;connectable=0;fillColor=none;top=0;left=0;bottom=0;right=0;editable=1;overflow=hidden;whiteSpace=wrap;html=1;" vertex="1" parent="dxGmpXsbxTn3v0M72mMc-34">
          <mxGeometry width="30" height="30" as="geometry">
            <mxRectangle width="30" height="30" as="alternateBounds" />
          </mxGeometry>
        </mxCell>
        <mxCell id="dxGmpXsbxTn3v0M72mMc-36" value="user_id:int" style="shape=partialRectangle;connectable=0;fillColor=none;top=0;left=0;bottom=0;right=0;align=left;spacingLeft=6;overflow=hidden;whiteSpace=wrap;html=1;" vertex="1" parent="dxGmpXsbxTn3v0M72mMc-34">
          <mxGeometry x="30" width="150" height="30" as="geometry">
            <mxRectangle width="150" height="30" as="alternateBounds" />
          </mxGeometry>
        </mxCell>
        <mxCell id="dxGmpXsbxTn3v0M72mMc-37" value="" style="shape=tableRow;horizontal=0;startSize=0;swimlaneHead=0;swimlaneBody=0;fillColor=none;collapsible=0;dropTarget=0;points=[[0,0.5],[1,0.5]];portConstraint=eastwest;top=0;left=0;right=0;bottom=0;" vertex="1" parent="dxGmpXsbxTn3v0M72mMc-30">
          <mxGeometry y="90" width="180" height="30" as="geometry" />
        </mxCell>
        <mxCell id="dxGmpXsbxTn3v0M72mMc-38" value="" style="shape=partialRectangle;connectable=0;fillColor=none;top=0;left=0;bottom=0;right=0;editable=1;overflow=hidden;whiteSpace=wrap;html=1;" vertex="1" parent="dxGmpXsbxTn3v0M72mMc-37">
          <mxGeometry width="30" height="30" as="geometry">
            <mxRectangle width="30" height="30" as="alternateBounds" />
          </mxGeometry>
        </mxCell>
        <mxCell id="dxGmpXsbxTn3v0M72mMc-39" value="lock_date:int (22)" style="shape=partialRectangle;connectable=0;fillColor=none;top=0;left=0;bottom=0;right=0;align=left;spacingLeft=6;overflow=hidden;whiteSpace=wrap;html=1;" vertex="1" parent="dxGmpXsbxTn3v0M72mMc-37">
          <mxGeometry x="30" width="150" height="30" as="geometry">
            <mxRectangle width="150" height="30" as="alternateBounds" />
          </mxGeometry>
        </mxCell>
        <mxCell id="dxGmpXsbxTn3v0M72mMc-40" value="" style="shape=tableRow;horizontal=0;startSize=0;swimlaneHead=0;swimlaneBody=0;fillColor=none;collapsible=0;dropTarget=0;points=[[0,0.5],[1,0.5]];portConstraint=eastwest;top=0;left=0;right=0;bottom=0;" vertex="1" parent="dxGmpXsbxTn3v0M72mMc-30">
          <mxGeometry y="120" width="180" height="30" as="geometry" />
        </mxCell>
        <mxCell id="dxGmpXsbxTn3v0M72mMc-41" value="" style="shape=partialRectangle;connectable=0;fillColor=none;top=0;left=0;bottom=0;right=0;editable=1;overflow=hidden;whiteSpace=wrap;html=1;" vertex="1" parent="dxGmpXsbxTn3v0M72mMc-40">
          <mxGeometry width="30" height="30" as="geometry">
            <mxRectangle width="30" height="30" as="alternateBounds" />
          </mxGeometry>
        </mxCell>
        <mxCell id="dxGmpXsbxTn3v0M72mMc-42" value="previous_lock_at: datetime nullable" style="shape=partialRectangle;connectable=0;fillColor=none;top=0;left=0;bottom=0;right=0;align=left;spacingLeft=6;overflow=hidden;whiteSpace=wrap;html=1;" vertex="1" parent="dxGmpXsbxTn3v0M72mMc-40">
          <mxGeometry x="30" width="150" height="30" as="geometry">
            <mxRectangle width="150" height="30" as="alternateBounds" />
          </mxGeometry>
        </mxCell>
        <mxCell id="dxGmpXsbxTn3v0M72mMc-43" value="" style="shape=tableRow;horizontal=0;startSize=0;swimlaneHead=0;swimlaneBody=0;fillColor=none;collapsible=0;dropTarget=0;points=[[0,0.5],[1,0.5]];portConstraint=eastwest;top=0;left=0;right=0;bottom=0;" vertex="1" parent="dxGmpXsbxTn3v0M72mMc-30">
          <mxGeometry y="150" width="180" height="30" as="geometry" />
        </mxCell>
        <mxCell id="dxGmpXsbxTn3v0M72mMc-44" value="" style="shape=partialRectangle;connectable=0;fillColor=none;top=0;left=0;bottom=0;right=0;editable=1;overflow=hidden;whiteSpace=wrap;html=1;" vertex="1" parent="dxGmpXsbxTn3v0M72mMc-43">
          <mxGeometry width="30" height="30" as="geometry">
            <mxRectangle width="30" height="30" as="alternateBounds" />
          </mxGeometry>
        </mxCell>
        <mxCell id="dxGmpXsbxTn3v0M72mMc-45" value="next_lock_at: datetime nullable" style="shape=partialRectangle;connectable=0;fillColor=none;top=0;left=0;bottom=0;right=0;align=left;spacingLeft=6;overflow=hidden;whiteSpace=wrap;html=1;" vertex="1" parent="dxGmpXsbxTn3v0M72mMc-43">
          <mxGeometry x="30" width="150" height="30" as="geometry">
            <mxRectangle width="150" height="30" as="alternateBounds" />
          </mxGeometry>
        </mxCell>
        <mxCell id="dxGmpXsbxTn3v0M72mMc-46" value="" style="shape=tableRow;horizontal=0;startSize=0;swimlaneHead=0;swimlaneBody=0;fillColor=none;collapsible=0;dropTarget=0;points=[[0,0.5],[1,0.5]];portConstraint=eastwest;top=0;left=0;right=0;bottom=0;" vertex="1" parent="dxGmpXsbxTn3v0M72mMc-30">
          <mxGeometry y="180" width="180" height="30" as="geometry" />
        </mxCell>
        <mxCell id="dxGmpXsbxTn3v0M72mMc-47" value="" style="shape=partialRectangle;connectable=0;fillColor=none;top=0;left=0;bottom=0;right=0;editable=1;overflow=hidden;whiteSpace=wrap;html=1;" vertex="1" parent="dxGmpXsbxTn3v0M72mMc-46">
          <mxGeometry width="30" height="30" as="geometry">
            <mxRectangle width="30" height="30" as="alternateBounds" />
          </mxGeometry>
        </mxCell>
        <mxCell id="dxGmpXsbxTn3v0M72mMc-48" value="is_active" style="shape=partialRectangle;connectable=0;fillColor=none;top=0;left=0;bottom=0;right=0;align=left;spacingLeft=6;overflow=hidden;whiteSpace=wrap;html=1;" vertex="1" parent="dxGmpXsbxTn3v0M72mMc-46">
          <mxGeometry x="30" width="150" height="30" as="geometry">
            <mxRectangle width="150" height="30" as="alternateBounds" />
          </mxGeometry>
        </mxCell>
        <mxCell id="dxGmpXsbxTn3v0M72mMc-49" value="" style="shape=tableRow;horizontal=0;startSize=0;swimlaneHead=0;swimlaneBody=0;fillColor=none;collapsible=0;dropTarget=0;points=[[0,0.5],[1,0.5]];portConstraint=eastwest;top=0;left=0;right=0;bottom=0;" vertex="1" parent="dxGmpXsbxTn3v0M72mMc-30">
          <mxGeometry y="210" width="180" height="30" as="geometry" />
        </mxCell>
        <mxCell id="dxGmpXsbxTn3v0M72mMc-50" value="" style="shape=partialRectangle;connectable=0;fillColor=none;top=0;left=0;bottom=0;right=0;editable=1;overflow=hidden;whiteSpace=wrap;html=1;" vertex="1" parent="dxGmpXsbxTn3v0M72mMc-49">
          <mxGeometry width="30" height="30" as="geometry">
            <mxRectangle width="30" height="30" as="alternateBounds" />
          </mxGeometry>
        </mxCell>
        <mxCell id="dxGmpXsbxTn3v0M72mMc-51" value="lock_amount: 1000000" style="shape=partialRectangle;connectable=0;fillColor=none;top=0;left=0;bottom=0;right=0;align=left;spacingLeft=6;overflow=hidden;whiteSpace=wrap;html=1;" vertex="1" parent="dxGmpXsbxTn3v0M72mMc-49">
          <mxGeometry x="30" width="150" height="30" as="geometry">
            <mxRectangle width="150" height="30" as="alternateBounds" />
          </mxGeometry>
        </mxCell>
      </root>
    </mxGraphModel>
  </diagram>
</mxfile>
